<svg xmlns="http://www.w3.org/2000/svg" xmlns:svg="http://www.w3.org/2000/svg" xmlns:xlink="http://www.w3.org/1999/xlink" id="svg249" width="64" height="64" version="1.1"><defs id="defs3"><linearGradient id="linearGradient5048"><stop style="stop-color:black;stop-opacity:0" id="stop5050" offset="0"/><stop id="stop5056" offset=".5" style="stop-color:black;stop-opacity:1"/><stop style="stop-color:black;stop-opacity:0" id="stop5052" offset="1"/></linearGradient><linearGradient id="linearGradient4542"><stop style="stop-color:#000;stop-opacity:1" id="stop4544" offset="0"/><stop style="stop-color:#000;stop-opacity:0" id="stop4546" offset="1"/></linearGradient><radialGradient id="radialGradient4548" cx="24.307" cy="42.078" r="15.822" fx="24.307" fy="42.078" gradientTransform="matrix(1,0,0,0.284916,0,30.08928)" gradientUnits="userSpaceOnUse" xlink:href="#linearGradient4542"/><linearGradient id="linearGradient15662"><stop style="stop-color:#fff;stop-opacity:1" id="stop15664" offset="0"/><stop style="stop-color:#f8f8f8;stop-opacity:1" id="stop15666" offset="1"/></linearGradient><radialGradient id="aigrd3" cx="20.892" cy="64.568" r="5.257" fx="20.892" fy="64.568" gradientUnits="userSpaceOnUse"><stop id="stop15573" offset="0" style="stop-color:#f0f0f0"/><stop id="stop15575" offset="1" style="stop-color:#9a9a9a;stop-opacity:1"/></radialGradient><radialGradient id="aigrd2" cx="20.892" cy="114.568" r="5.256" fx="20.892" fy="114.568" gradientUnits="userSpaceOnUse"><stop id="stop15566" offset="0" style="stop-color:#f0f0f0"/><stop id="stop15568" offset="1" style="stop-color:#9a9a9a;stop-opacity:1"/></radialGradient><linearGradient id="linearGradient269"><stop style="stop-color:#a3a3a3;stop-opacity:1" id="stop270" offset="0"/><stop style="stop-color:#4c4c4c;stop-opacity:1" id="stop271" offset="1"/></linearGradient><linearGradient id="linearGradient259"><stop style="stop-color:#fafafa;stop-opacity:1" id="stop260" offset="0"/><stop style="stop-color:#bbb;stop-opacity:1" id="stop261" offset="1"/></linearGradient><linearGradient id="linearGradient12512"><stop style="stop-color:#fff;stop-opacity:1" id="stop12513" offset="0"/><stop style="stop-color:#fff520;stop-opacity:.89108908" id="stop12517" offset=".5"/><stop style="stop-color:#fff300;stop-opacity:0" id="stop12514" offset="1"/></linearGradient><radialGradient id="radialGradient278" cx="55" cy="125" r="14.375" fx="55" fy="125" gradientUnits="userSpaceOnUse" xlink:href="#linearGradient12512"/><linearGradient id="linearGradient3600-63"><stop id="stop3602-9" offset="0" style="stop-color:#000117;stop-opacity:1"/><stop id="stop3604-0" offset="1" style="stop-color:#4f82b9;stop-opacity:1"/></linearGradient><linearGradient id="linearGradient3606-0" x1="51.037" x2="14.872" y1="47.693" y2="10.398" gradientUnits="userSpaceOnUse" xlink:href="#linearGradient3600-63"/><linearGradient id="linearGradient3600-6"><stop id="stop3602-5" offset="0" style="stop-color:#000117;stop-opacity:1"/><stop id="stop3604-4" offset="1" style="stop-color:#4f82b9;stop-opacity:1"/></linearGradient><linearGradient id="linearGradient3606-5" x1="51.037" x2="14.872" y1="47.693" y2="10.398" gradientUnits="userSpaceOnUse" xlink:href="#linearGradient3600-6"/><linearGradient id="linearGradient3600"><stop id="stop3602" offset="0" style="stop-color:#000117;stop-opacity:1"/><stop id="stop3604" offset="1" style="stop-color:#4f82b9;stop-opacity:1"/></linearGradient><linearGradient id="linearGradient3781-3" x1="10" x2="53" y1="40" y2="26" gradientTransform="translate(-48,-1.1469727e-7)" gradientUnits="userSpaceOnUse" xlink:href="#linearGradient3775-6"/><linearGradient id="linearGradient3775-6"><stop style="stop-color:#d3d7cf;stop-opacity:1" id="stop3777-7" offset="0"/><stop style="stop-color:#fff;stop-opacity:1" id="stop3779-5" offset="1"/></linearGradient><filter id="filter3871" width="1.907" height="1.907" x="-.454" y="-.454" color-interpolation-filters="sRGB"><feGaussianBlur id="feGaussianBlur3873" stdDeviation="9.898"/></filter><linearGradient id="linearGradient3606-3" x1="51.037" x2="14.872" y1="47.693" y2="10.398" gradientUnits="userSpaceOnUse" xlink:href="#linearGradient3600-67"/><linearGradient id="linearGradient3600-67"><stop style="stop-color:#204a87;stop-opacity:1" id="stop3602-53" offset="0"/><stop style="stop-color:#729fcf;stop-opacity:1" id="stop3604-5" offset="1"/></linearGradient><filter id="filter3889" width="1.83" height="1.849" x="-.415" y="-.424" color-interpolation-filters="sRGB"><feGaussianBlur id="feGaussianBlur3891" stdDeviation="3.149"/></filter><radialGradient id="radialGradient3982" cx="10.691" cy="19.29" r="10.455" fx="10.691" fy="19.29" gradientTransform="matrix(1.5657532,0.0370859,-0.05881345,0.89447218,-5.0994254,1.9283753)" gradientUnits="userSpaceOnUse" xlink:href="#linearGradient3976"/><linearGradient id="linearGradient3976"><stop style="stop-color:#fff;stop-opacity:1" id="stop3978" offset="0"/><stop style="stop-color:#fff;stop-opacity:0" id="stop3980" offset="1"/></linearGradient><radialGradient id="radialGradient3999" cx="10.691" cy="19.29" r="10.455" fx="10.691" fy="19.29" gradientTransform="matrix(1.5657532,0.0370859,-0.05881345,0.89447218,-5.0994254,1.9283753)" gradientUnits="userSpaceOnUse" xlink:href="#linearGradient3976"/></defs><metadata id="metadata4"/><g id="layer4" transform="translate(0,16)" style="display:inline"><rect style="fill:#d3d7cf;fill-opacity:1;stroke:#2e3436;stroke-width:2;stroke-linecap:round;stroke-linejoin:round;stroke-miterlimit:4;stroke-opacity:1;stroke-dasharray:none;stroke-dashoffset:0" id="rect2987" width="46" height="58" x="-39" y="3" transform="matrix(0,-1,1,0,0,0)"/><rect style="fill:url(#linearGradient3781-3);fill-opacity:1;stroke:#fff;stroke-width:2;stroke-linecap:round;stroke-linejoin:miter;stroke-miterlimit:4;stroke-opacity:1;stroke-dasharray:none;stroke-dashoffset:0" id="rect2987-1" width="42" height="54" x="-37" y="5" transform="matrix(0,-1,1,0,0,0)"/><path style="color:#000;fill:#000;fill-opacity:.65625;fill-rule:evenodd;stroke:none;stroke-width:5;marker:none;visibility:visible;display:inline;overflow:visible;filter:url(#filter3871);enable-background:accumulate" id="path2826-8" d="m 57.818182,30.363636 c 0,14.459819 -11.721999,26.181818 -26.181818,26.181818 -14.459819,0 -26.181818,-11.721999 -26.181818,-26.181818 0,-14.459819 11.721999,-26.181818 26.181818,-26.181818 14.459819,0 26.181818,11.721999 26.181818,26.181818 z" transform="matrix(0.28724962,0,0,0.071811,28.139039,29.793613)"/><path style="color:#000;fill:url(#linearGradient3606-3);fill-opacity:1;fill-rule:evenodd;stroke:#0b1521;stroke-width:2.90911961;marker:none;visibility:visible;display:inline;overflow:visible;enable-background:accumulate" id="path2826" d="m 57.818182,30.363636 c 0,14.459819 -11.721999,26.181818 -26.181818,26.181818 -14.459819,0 -26.181818,-11.721999 -26.181818,-26.181818 0,-14.459819 11.721999,-26.181818 26.181818,-26.181818 14.459819,0 26.181818,11.721999 26.181818,26.181818 z" transform="matrix(0.6875,0,0,0.68748659,10.25,-5.8749437)"/><path style="color:#000;fill:none;stroke:#729fcf;stroke-width:3.27275991;marker:none;visibility:visible;display:inline;overflow:visible;enable-background:accumulate" id="path2826-4" d="m 57.818182,30.363636 c 0,14.459819 -11.721999,26.181818 -26.181818,26.181818 -14.459819,0 -26.181818,-11.721999 -26.181818,-26.181818 0,-14.459819 11.721999,-26.181818 26.181818,-26.181818 14.459819,0 26.181818,11.721999 26.181818,26.181818 z" transform="matrix(0.6111111,0,0,0.61109915,12.666667,-3.5555053)"/><path style="color:#000;fill:none;stroke:#0b1521;stroke-width:2.90911961;marker:none;visibility:visible;display:inline;overflow:visible;enable-background:accumulate" id="path2826-5" d="m 57.818182,30.363636 c 0,14.459819 -11.721999,26.181818 -26.181818,26.181818 -14.459819,0 -26.181818,-11.721999 -26.181818,-26.181818 0,-14.459819 11.721999,-26.181818 26.181818,-26.181818 14.459819,0 26.181818,11.721999 26.181818,26.181818 z" transform="matrix(0.6875,0,0,0.68748661,10.25,-5.8749438)"/><path style="color:#000;fill:url(#radialGradient278);fill-opacity:1;fill-rule:nonzero;stroke:none;stroke-width:1.25000024;marker:none;visibility:visible;display:block" id="path12511" d="m 69.375,125 c 0,7.93909 -6.435907,14.375 -14.375,14.375 -7.939093,0 -14.375,-6.43591 -14.375,-14.375 0,-7.93909 6.435907,-14.375 14.375,-14.375 7.939093,0 14.375,6.43591 14.375,14.375 z" transform="matrix(1.0434783,0,0,1.0434783,-8.3913059,-131.43479)"/><path style="opacity:.84482757;color:#000;fill:url(#radialGradient3999);fill-opacity:1;fill-rule:evenodd;stroke:none;stroke-width:5;marker:none;visibility:visible;display:inline;overflow:visible;enable-background:accumulate" id="path3608" d="m 27.118794,20.181818 a 15.936976,13.99132 0 1 1 -31.8739524,0 15.936976,13.99132 0 1 1 31.8739524,0 z" transform="matrix(0.55967544,-0.47172456,0.46001058,0.57392733,10.457961,2.6918413)"/></g></svg>