<svg xmlns="http://www.w3.org/2000/svg" xmlns:svg="http://www.w3.org/2000/svg" xmlns:xlink="http://www.w3.org/1999/xlink" id="svg2784" width="64" height="64" version="1.1"><defs id="defs2786"><linearGradient id="linearGradient3377"><stop id="stop3379" offset="0" style="stop-color:#faff2b;stop-opacity:1"/><stop id="stop3381" offset="1" style="stop-color:#fa0;stop-opacity:1"/></linearGradient><filter id="filter3871" width="1.907" height="1.907" x="-.454" y="-.454" color-interpolation-filters="sRGB"><feGaussianBlur id="feGaussianBlur3873" stdDeviation="9.898"/></filter><linearGradient id="linearGradient3600"><stop style="stop-color:#fce94f;stop-opacity:1" id="stop3602" offset="0"/><stop style="stop-color:#c4a000;stop-opacity:1" id="stop3604" offset="1"/></linearGradient><linearGradient id="linearGradient3801-1-3-14-0-35" x1="-18" x2="-22" y1="18" y2="5" gradientTransform="matrix(0.76342439,0,0,0.75750425,-4.596389,2.7525637)" gradientUnits="userSpaceOnUse" xlink:href="#linearGradient3836-0-6-92-4-62"/><linearGradient id="linearGradient3836-0-6-92-4-62"><stop style="stop-color:#a40000;stop-opacity:1" id="stop3838-2-7-06-8-9" offset="0"/><stop style="stop-color:#ef2929;stop-opacity:1" id="stop3840-5-5-8-7-1" offset="1"/></linearGradient><linearGradient id="linearGradient3801-1-3-14-0-3" x1="-18" x2="-22" y1="18" y2="5" gradientTransform="matrix(0.76342439,0,0,0.75750425,-4.596389,2.7525637)" gradientUnits="userSpaceOnUse" xlink:href="#linearGradient3836-0-6-92-4-6"/><linearGradient id="linearGradient3836-0-6-92-4-6"><stop style="stop-color:#a40000;stop-opacity:1" id="stop3838-2-7-06-8-7" offset="0"/><stop style="stop-color:#ef2929;stop-opacity:1" id="stop3840-5-5-8-7-5" offset="1"/></linearGradient><radialGradient id="radialGradient3808" cx="20.803" cy="18.627" r="27.085" fx="20.803" fy="18.627" gradientTransform="matrix(0.66666671,0.70000004,-1.3510775,1.2867404,32.100634,-19.902858)" gradientUnits="userSpaceOnUse" xlink:href="#linearGradient3600"/></defs><metadata id="metadata2789"/><g id="layer1"><path style="color:#000;fill:url(#radialGradient3808);fill-opacity:1;fill-rule:evenodd;stroke:#0b1521;stroke-width:1.80564272000000003;marker:none;visibility:visible;display:inline;overflow:visible;enable-background:accumulate" id="path2826" d="m 57.818182,30.363636 a 26.181818,26.181818 0 1 1 -52.363636,0 26.181818,26.181818 0 1 1 52.363636,0 z" transform="matrix(1.1076389,0,0,1.1076389,-3.0416672,-1.6319442)"/><path style="color:#000;fill:none;stroke:#fce94f;stroke-width:1.93939412;marker:none;visibility:visible;display:inline;overflow:visible;enable-background:accumulate" id="path2826-4" d="m 57.818182,30.363636 a 26.181818,26.181818 0 1 1 -52.363636,0 26.181818,26.181818 0 1 1 52.363636,0 z" transform="matrix(1.03125,0,0,1.03125,-0.62500046,0.68750048)"/><path style="color:#000;fill:none;stroke:#302b00;stroke-width:1.80564272000000003;marker:none;visibility:visible;display:inline;overflow:visible;enable-background:accumulate" id="path2826-5" d="m 57.818182,30.363636 a 26.181818,26.181818 0 1 1 -52.363636,0 26.181818,26.181818 0 1 1 52.363636,0 z" transform="matrix(1.1076389,0,0,1.1076389,-3.0416672,-1.631944)"/></g></svg>