<svg xmlns="http://www.w3.org/2000/svg" xmlns:svg="http://www.w3.org/2000/svg" xmlns:xlink="http://www.w3.org/1999/xlink" id="svg2985" width="64" height="64" version="1.1"><defs id="defs2987"><linearGradient id="linearGradient3924"><stop id="stop3926" offset="0" style="stop-color:#ef2929;stop-opacity:1"/><stop id="stop3928" offset="1" style="stop-color:#c00;stop-opacity:1"/></linearGradient><linearGradient id="linearGradient3916"><stop id="stop3918" offset="0" style="stop-color:#ef2929;stop-opacity:1"/><stop id="stop3920" offset="1" style="stop-color:#c00;stop-opacity:1"/></linearGradient><radialGradient id="radialGradient3705" cx="147.057" cy="83.989" r="19.467" fx="147.057" fy="83.989" gradientTransform="matrix(1.2966028,0.17711231,-0.14092861,1.0317094,-32.689929,-29.109274)" gradientUnits="userSpaceOnUse" xlink:href="#linearGradient4387"/><linearGradient id="linearGradient4387"><stop id="stop4389" offset="0" style="stop-color:#71b2f8;stop-opacity:1"/><stop id="stop4391" offset="1" style="stop-color:#002795;stop-opacity:1"/></linearGradient><radialGradient id="radialGradient3703" cx="131.482" cy="93.557" r="19.467" fx="131.482" fy="93.557" gradientTransform="matrix(0.52711064,1.8158874,-1.4534843,0.42191331,203.23405,-187.6583)" gradientUnits="userSpaceOnUse" xlink:href="#linearGradient4387"/><linearGradient id="linearGradient6321"><stop id="stop6323" offset="0" style="stop-color:#71b2f8;stop-opacity:1"/><stop id="stop6325" offset="1" style="stop-color:#002795;stop-opacity:1"/></linearGradient><radialGradient id="radialGradient3692" cx="45.883" cy="28.87" r="19.467" fx="45.883" fy="28.87" gradientTransform="translate(-0.23443224,0.23443198)" gradientUnits="userSpaceOnUse" xlink:href="#linearGradient3377"/><linearGradient id="linearGradient3377"><stop style="stop-color:#faff2b;stop-opacity:1" id="stop3379" offset="0"/><stop style="stop-color:#fa0;stop-opacity:1" id="stop3381" offset="1"/></linearGradient><linearGradient id="linearGradient3377-3"><stop style="stop-color:#faff2b;stop-opacity:1" id="stop3379-8" offset="0"/><stop style="stop-color:#fa0;stop-opacity:1" id="stop3381-3" offset="1"/></linearGradient><radialGradient id="radialGradient6347" cx="45.883" cy="28.87" r="19.467" fx="45.883" fy="28.87" gradientTransform="translate(-0.23443224,0.23443198)" gradientUnits="userSpaceOnUse" xlink:href="#linearGradient3377"/><radialGradient id="radialGradient6412" cx="45.883" cy="28.87" r="19.467" fx="45.883" fy="28.87" gradientTransform="matrix(0.67067175,0,0,0.64145918,-63.380792,0.83845403)" gradientUnits="userSpaceOnUse" xlink:href="#linearGradient3377-3"/><radialGradient id="radialGradient6412-7" cx="45.883" cy="28.87" r="19.467" fx="45.883" fy="28.87" gradientTransform="matrix(0.67067175,0,0,0.64145918,-87.325356,-15.679193)" gradientUnits="userSpaceOnUse" xlink:href="#linearGradient3377-3-9"/><linearGradient id="linearGradient3377-3-9"><stop style="stop-color:#faff2b;stop-opacity:1" id="stop3379-8-0" offset="0"/><stop style="stop-color:#fa0;stop-opacity:1" id="stop3381-3-5" offset="1"/></linearGradient><linearGradient id="linearGradient3922" x1="43" x2="58" y1="13" y2="34" gradientTransform="translate(1)" gradientUnits="userSpaceOnUse" xlink:href="#linearGradient3916"/><linearGradient id="linearGradient3930" x1="43" x2="55" y1="49" y2="34" gradientTransform="translate(1)" gradientUnits="userSpaceOnUse" xlink:href="#linearGradient3924"/></defs><metadata id="metadata2990"/><g id="layer1"><g id="g3118"><g style="stroke-width:3.5;stroke-miterlimit:4;stroke-dasharray:none" id="g3060" transform="matrix(0.67067175,0,0,0.55048347,-90.90697,-12.04625)"><path id="path3150-7" d="M 181.76846,74.564006 V 110.8957 l -17.89251,14.53268 v -36.3317 z" style="fill:#204a87;stroke:none"/><path id="path3930" d="m 163.87595,121.79521 17.89251,-14.53268" style="fill:none;stroke:#3465a4;stroke-width:3.29157;stroke-linecap:butt;stroke-linejoin:miter;stroke-opacity:1"/><path id="path3932-1" d="M 178.78637,114.52887 V 78.197173" style="fill:none;stroke:#3465a4;stroke-width:3.29157;stroke-linecap:butt;stroke-linejoin:miter;stroke-opacity:1"/><path id="path3934" d="m 181.76846,78.197173 -17.89251,14.53268" style="fill:none;stroke:#3465a4;stroke-width:3.29157;stroke-linecap:butt;stroke-linejoin:miter;stroke-opacity:1"/><path id="path3936" d="M 166.85803,85.463513 V 121.79521" style="fill:none;stroke:#3465a4;stroke-width:3.29157;stroke-linecap:butt;stroke-linejoin:miter;stroke-opacity:1"/><path id="path3152-1" d="M 163.87595,125.42838 140.01927,110.8957 V 74.564003 l 23.85668,14.532677 z" style="fill:#3465a4;stroke:none"/><path id="path3938" d="M 160.89386,89.096683 V 121.79521" style="fill:none;stroke:#729fcf;stroke-width:3.29157;stroke-linecap:butt;stroke-linejoin:miter;stroke-opacity:1"/><path id="path3940" d="m 140.01927,107.26253 23.85668,14.53268" style="fill:none;stroke:#729fcf;stroke-width:3.29157;stroke-linecap:butt;stroke-linejoin:miter;stroke-opacity:1"/><path id="path3942" d="M 143.00136,110.8957 V 78.197173" style="fill:none;stroke:#729fcf;stroke-width:3.29157;stroke-linecap:butt;stroke-linejoin:miter;stroke-opacity:1"/><path id="path3150" d="M 181.76846,74.564003 V 110.8957 l -17.89251,14.53268 V 89.096683 Z" style="fill:none;stroke:#0b1521;stroke-width:3.29157;stroke-linecap:round;stroke-linejoin:round;stroke-opacity:1"/><path id="path3944" d="M 163.87595,92.729853 140.01927,78.197173" style="fill:none;stroke:#729fcf;stroke-width:3.29157;stroke-linecap:butt;stroke-linejoin:miter;stroke-opacity:1"/><path id="path3152" d="M 163.87595,125.42838 140.01927,110.8957 V 74.564003 l 23.85668,14.53268 z" style="fill:none;stroke:#0b1521;stroke-width:3.29157;stroke-linecap:round;stroke-linejoin:round;stroke-opacity:1"/><path id="path3156" d="m 181.76846,74.564003 -17.89251,14.53268 -23.85668,-14.53268 17.89251,-14.53268 23.85668,14.53268" style="fill:#729fcf;stroke:#0b1521;stroke-width:3.29157;stroke-linecap:round;stroke-linejoin:round;stroke-opacity:1"/></g><path style="fill:#c00;stroke:none;stroke-width:2;stroke-linecap:round;stroke-linejoin:round;stroke-opacity:1" id="path3820-6-0" d="M 34,15 44,5 v 6 c 0,0 17,0 17,24 0,20 -17,20 -17,20 v 6 L 34,51 44,41 v 6 C 44,47 54,47 54,35 54,19 44,19 44,19 v 6 z"/><rect id="rect3848-9" width="5" height="15.685" x="36" y="16" transform="translate(-19.586948,-2.6850777)" style="fill:#888a85;fill-opacity:1;stroke:none;stroke-width:.885581"/><path id="path3855-1" d="m 99.26795,15.196153 -14.5359,0 L 92,2.6076946 Z" transform="matrix(-0.89381012,0,0,0.64358296,101.13974,3.5349373)" style="fill:#888a85;fill-opacity:1;stroke:none"/><rect id="rect3848-3-2" width="4" height="16.685" x="35.992" y="16" transform="translate(-19.586948,-2.6850777)" style="fill:#888a85;stroke:#000;stroke-width:2;stroke-linecap:round;stroke-linejoin:round;stroke-miterlimit:4;stroke-dasharray:none;stroke-opacity:1"/><path id="path3855-5-7" d="m 99.26795,15.196153 -14.5359,0 L 92,2.6076946 Z" transform="matrix(-0.82554287,0,0,0.64358296,94.355322,3.5349373)" style="fill:#888a85;stroke:#000;stroke-width:2.74383;stroke-linecap:round;stroke-linejoin:round;stroke-miterlimit:4;stroke-dasharray:none;stroke-opacity:1"/><rect id="rect3899-0" width="2" height="2.7" x="36.992" y="14.5" transform="translate(-19.586948,-2.6850777)" style="fill:#888a85;stroke:none"/><path style="fill:none;stroke:#ef2929;stroke-width:2;stroke-linecap:butt;stroke-linejoin:miter;stroke-opacity:1" id="path3840" d="M 43.867204,7.9504952 35.626466,16.208292"/><path style="fill:none;stroke:#ef2929;stroke-width:2;stroke-linecap:butt;stroke-linejoin:miter;stroke-opacity:1" id="path3840-7" d="m 43.84881,44.007343 -8.189337,8.149421"/><path style="fill:none;stroke:#ef2929;stroke-width:2;stroke-linecap:butt;stroke-linejoin:miter;stroke-opacity:1" id="path3932" d="m 45,13 c -3,0 -3,-1 -3,-3"/><path style="fill:none;stroke:#0b1521;stroke-width:2;stroke-linecap:round;stroke-linejoin:round;stroke-opacity:1" id="path3820-6" d="M 34,15 44,5 v 6 c 0,0 17,0 17,24 0,20 -17,20 -17,20 v 6 L 34,51 44,41 v 6 C 44,47 54,47 54,35 54,19 44,19 44,19 v 6 z"/><path style="fill:none;stroke:url(#linearGradient3930);stroke-width:2;stroke-linecap:butt;stroke-linejoin:miter;stroke-opacity:1" id="path3912" d="m 44,49 c 0,0 12,0 12,-15"/><path style="fill:none;stroke:url(#linearGradient3922);stroke-width:2;stroke-linecap:butt;stroke-linejoin:miter;stroke-opacity:1" id="path3914" d="m 44,13 c 0,0 15,0 15,21"/><path style="fill:none;stroke:#ef2929;stroke-width:2;stroke-linecap:butt;stroke-linejoin:miter;stroke-opacity:1" id="path3932-2" d="m 45,49 c -3,0 -3,-1 -3,-3"/></g></g></svg>