<svg xmlns="http://www.w3.org/2000/svg" xmlns:svg="http://www.w3.org/2000/svg" xmlns:xlink="http://www.w3.org/1999/xlink" id="svg2985" width="64" height="64" version="1.1"><defs id="defs2987"><linearGradient id="linearGradient3772"><stop style="stop-color:#c4a000;stop-opacity:1" id="stop3774" offset="0"/><stop style="stop-color:#fce94f;stop-opacity:1" id="stop3776" offset="1"/></linearGradient><linearGradient id="linearGradient3778" x1="30.996" x2="22.623" y1="51.868" y2="13.438" gradientUnits="userSpaceOnUse" xlink:href="#linearGradient3772"/></defs><metadata id="metadata2990"/><g id="layer1"><path style="color:#000;fill:#c4a000;fill-opacity:1;fill-rule:evenodd;stroke:#302b00;stroke-width:2;stroke-linecap:butt;stroke-linejoin:round;stroke-miterlimit:4;stroke-opacity:1;stroke-dasharray:none;stroke-dashoffset:0;marker:none;visibility:visible;display:inline;overflow:visible;enable-background:accumulate" id="rect3084-1-4" d="m 29,12 4,-1 0,40 -4,2 z"/><path style="color:#000;fill:#fce94f;fill-opacity:1;fill-rule:evenodd;stroke:#302b00;stroke-width:2;stroke-linecap:butt;stroke-linejoin:round;stroke-miterlimit:4;stroke-opacity:1;stroke-dasharray:none;stroke-dashoffset:0;marker:none;visibility:visible;display:inline;overflow:visible;enable-background:accumulate" id="rect3084-1-9" d="m 33,21 6,2 -4,2 -6,-2 z"/><path style="color:#000;fill:url(#linearGradient3778);fill-opacity:1;fill-rule:evenodd;stroke:#302b00;stroke-width:2;stroke-linecap:butt;stroke-linejoin:round;stroke-miterlimit:4;stroke-opacity:1;stroke-dasharray:none;stroke-dashoffset:0;marker:none;visibility:visible;display:inline;overflow:visible;enable-background:accumulate" id="rect3084" d="m 3,5 0,40 26,8 0,-8 6,2 0,8 22,6 0,-40 -22,-6 0,10 -6,-2 0,-11 z"/><path style="color:#000;fill:#fce94f;fill-opacity:1;fill-rule:evenodd;stroke:#302b00;stroke-width:2;stroke-linecap:butt;stroke-linejoin:round;stroke-miterlimit:4;stroke-opacity:1;stroke-dasharray:none;stroke-dashoffset:0;marker:none;visibility:visible;display:inline;overflow:visible;enable-background:accumulate" id="rect3084-9" d="m 7,3 -4,2 26,8 4,-2 z m 32,10 -4,2 22,6 4,-2 z"/><path style="color:#000;fill:#c4a000;fill-opacity:1;fill-rule:evenodd;stroke:#302b00;stroke-width:2;stroke-linecap:butt;stroke-linejoin:round;stroke-miterlimit:4;stroke-opacity:1;stroke-dasharray:none;stroke-dashoffset:0;marker:none;visibility:visible;display:inline;overflow:visible;enable-background:accumulate" id="rect3084-1" d="m 57,21 4,-2 0,40 -4,2 z"/><path style="fill:none;stroke:#fce94f;stroke-width:2;stroke-linecap:butt;stroke-linejoin:miter;stroke-opacity:1" id="path3002" d="m 5.0061313,7.8160622 0,35.7050948 22.0177897,6.75475 L 27,42.195596 l 10.006131,3.442055 0,7.834456 L 55,58.355613 l 0.0061,-35.82772 -18.012262,-4.901295 -0.01839,10.115889 -9.963817,-3.300432 -0.01226,-9.981001 z"/></g></svg>