<svg xmlns="http://www.w3.org/2000/svg" xmlns:svg="http://www.w3.org/2000/svg" id="svg2985" width="64" height="64" version="1.1"><metadata id="metadata2990"/><g id="layer1"><path style="fill:#73d216;fill-opacity:1;stroke:#172a04;stroke-width:2;stroke-linecap:butt;stroke-linejoin:round;stroke-miterlimit:4;stroke-opacity:1;stroke-dasharray:none" id="path3009-9" d="m 49,45 -12,-6 0,16 12,6 z"/><path style="fill:#4e9a06;fill-opacity:1;stroke:#172a04;stroke-width:2;stroke-linecap:butt;stroke-linejoin:round;stroke-miterlimit:4;stroke-opacity:1;stroke-dasharray:none" id="path3009-6-7" d="m 61,39 -12,6 0,16 12,-6 z"/><path style="fill:#8ae234;fill-opacity:1;stroke:#172a04;stroke-width:2;stroke-linecap:butt;stroke-linejoin:round;stroke-miterlimit:4;stroke-opacity:1;stroke-dasharray:none" id="path3029-1" d="m 37,39 12,-6 12,6 -12,6 z"/><path style="fill:#73d216;fill-opacity:1;stroke:#172a04;stroke-width:2;stroke-linecap:butt;stroke-linejoin:round;stroke-miterlimit:4;stroke-opacity:1;stroke-dasharray:none" id="path3009" d="M 19,23 3,15 3,51 19,61 z"/><path style="fill:#4e9a06;fill-opacity:1;stroke:#172a04;stroke-width:2;stroke-linecap:butt;stroke-linejoin:round;stroke-miterlimit:4;stroke-opacity:1;stroke-dasharray:none" id="path3009-6" d="M 49,11 19,23 19,61 31,53 31,31 49,23 z"/><path style="fill:#8ae234;fill-opacity:1;stroke:#172a04;stroke-width:2;stroke-linecap:butt;stroke-linejoin:round;stroke-miterlimit:4;stroke-opacity:1;stroke-dasharray:none" id="path3029" d="M 3,15 33,3 49,11 19,23 z"/><path style="fill:none;stroke:#8ae234;stroke-width:2;stroke-linecap:butt;stroke-linejoin:miter;stroke-opacity:1" id="path2991" d="m 5.0346836,18.231134 0,31.601274 L 17,57.33532 17.034684,24.231134 z"/><path style="fill:none;stroke:#172a04;stroke-width:2;stroke-linecap:butt;stroke-linejoin:miter;stroke-opacity:1" id="path2993" d="M 19,23 3,51"/><path style="fill:none;stroke:#172a04;stroke-width:2;stroke-linecap:butt;stroke-linejoin:miter;stroke-opacity:1" id="path2995" d="M 3,15 49,11"/><path style="fill:none;stroke:#73d216;stroke-width:2;stroke-linecap:butt;stroke-linejoin:miter;stroke-opacity:1" id="path2997" d="m 46.965316,13.965316 0,7.757215 L 29,29.693673 l 0.03468,22.208102 -8,5.306327 L 21,24.312153 z"/><path style="fill:none;stroke:#172a04;stroke-width:2;stroke-linecap:butt;stroke-linejoin:miter;stroke-opacity:1" id="path2993-3" d="M 31,31 19,23"/><path style="fill:none;stroke:#172a04;stroke-width:2;stroke-linecap:butt;stroke-linejoin:miter;stroke-opacity:1" id="path2993-6" d="M 49,12 31,31"/><path style="fill:none;stroke:#172a04;stroke-width:2;stroke-linecap:butt;stroke-linejoin:miter;stroke-opacity:1" id="path2993-7" d="M 31,31 19,61"/><path style="fill:none;stroke:#8ae234;stroke-width:2;stroke-linecap:butt;stroke-linejoin:miter;stroke-opacity:1" id="path3031" d="m 39,42.215199 0,11.545077 7.975475,3.969949 L 47,46.288774 z"/><path style="fill:none;stroke:#73d216;stroke-width:2;stroke-linecap:butt;stroke-linejoin:miter;stroke-opacity:1" id="path3031-5" d="m 58.985149,42.241106 0,11.545077 -7.975475,3.969949 -0.02453,-11.441451 z"/><path style="fill:none;stroke:#172a04;stroke-width:2;stroke-linecap:butt;stroke-linejoin:miter;stroke-opacity:1" id="path2993-7-3" d="M 61,39 36.9019,39.04905"/><path style="fill:none;stroke:#172a04;stroke-width:2;stroke-linecap:butt;stroke-linejoin:miter;stroke-opacity:1" id="path2993-7-5" d="M 61,39 49,61"/><path style="fill:none;stroke:#172a04;stroke-width:2;stroke-linecap:butt;stroke-linejoin:miter;stroke-opacity:1" id="path2993-7-6" d="M 49,45 37,55"/></g></svg>