<svg xmlns="http://www.w3.org/2000/svg" xmlns:svg="http://www.w3.org/2000/svg" xmlns:xlink="http://www.w3.org/1999/xlink" id="svg2985" width="64" height="64" version="1.1"><defs id="defs2987"><linearGradient id="linearGradient3778"><stop style="stop-color:#babdb6;stop-opacity:1" id="stop3780" offset="0"/><stop style="stop-color:#fff;stop-opacity:1" id="stop3782" offset="1"/></linearGradient><linearGradient id="linearGradient3784" x1="31.905" x2="20.735" y1="47.935" y2="7.905" gradientUnits="userSpaceOnUse" xlink:href="#linearGradient3778"/></defs><metadata id="metadata2990"/><g id="layer1"><path style="color:#000;fill:url(#linearGradient3784);fill-opacity:1;fill-rule:nonzero;stroke:#2e3436;stroke-width:1.60501574999999996;stroke-linecap:butt;stroke-linejoin:round;stroke-miterlimit:4;stroke-opacity:1;stroke-dasharray:none;stroke-dashoffset:0;marker:none;visibility:visible;display:inline;overflow:visible;enable-background:accumulate" id="path2993" d="m 51.454546,27.454546 a 23.272728,23.272728 0 1 1 -46.545456,0 23.272728,23.272728 0 1 1 46.545456,0 z" transform="matrix(1.2460937,0,0,1.2460937,-3.1171862,-2.2109372)"/><path style="color:#000;fill:none;stroke:#fff;stroke-width:1.72390591999999998;stroke-linecap:butt;stroke-linejoin:round;stroke-miterlimit:4;stroke-opacity:1;stroke-dasharray:none;stroke-dashoffset:0;marker:none;visibility:visible;display:inline;overflow:visible;enable-background:accumulate" id="path2993-3" d="m 51.454546,27.454546 a 23.272728,23.272728 0 1 1 -46.545456,0 23.272728,23.272728 0 1 1 46.545456,0 z" transform="matrix(1.1601562,0,0,1.1601562,-0.69531114,0.148438)"/><path style="color:#000;fill:#2e3436;fill-opacity:1;fill-rule:nonzero;stroke:#2e3436;stroke-width:1.57488227000000003;stroke-linecap:butt;stroke-linejoin:round;stroke-miterlimit:4;stroke-opacity:1;stroke-dasharray:none;stroke-dashoffset:0;marker:none;visibility:visible;display:inline;overflow:visible;enable-background:accumulate" id="path2997" d="m 11.783744,34.785983 0,-35.39014963 30.648768,17.69507463 z" transform="matrix(0.98405257,0,0,1.6388741,19.244177,3.9901531)"/><g style="font-size:27.77797508000000093px;font-style:normal;font-variant:normal;font-weight:400;font-stretch:normal;line-height:125%;letter-spacing:0;word-spacing:0;fill:#2e3436;fill-opacity:1;stroke:none;font-family:Arial;-inkscape-font-specification:Arial" id="text3767" transform="matrix(1.2,0,0,1.1818182,-5.9999999,-0.54545546)"><path id="path2990" d="m 27.128129,36 -2.371134,-6.432931 -9.455081,0 L 12.916053,36 10,36 18.468336,14 21.664212,14 30,36 27.128129,36 M 21.251841,19.980128 c -0.157105,-0.416355 -0.309289,-0.83793 -0.456554,-1.264727 -0.137468,-0.426763 -0.260197,-0.811905 -0.368188,-1.155429 -0.108007,-0.353896 -0.201287,-0.645356 -0.279824,-0.874379 -0.06873,-0.239394 -0.108018,-0.385123 -0.11782,-0.43719 -0.01964,0.05207 -0.06382,0.197796 -0.132548,0.43719 -0.06875,0.239433 -0.162013,0.536096 -0.279823,0.889992 -0.108008,0.353934 -0.23565,0.744281 -0.382916,1.171043 -0.137467,0.426797 -0.279832,0.848373 -0.427098,1.264728 l -2.650958,7.229241 7.761414,0 -2.665685,-7.260469" style="stroke:none;fill:#2e3436"/></g></g></svg>