<svg xmlns="http://www.w3.org/2000/svg" xmlns:svg="http://www.w3.org/2000/svg" id="svg2" width="200" height="120" version="1.1"><metadata id="metadata7"/><g id="layer1" transform="translate(0,-932.36218)"><rect style="color:#000;fill:#fff;fill-opacity:1;fill-rule:evenodd;stroke:#000;stroke-width:2;stroke-linecap:butt;stroke-linejoin:round;stroke-miterlimit:4;stroke-opacity:1;stroke-dasharray:none;stroke-dashoffset:0;marker:none;visibility:visible;display:inline;overflow:visible;enable-background:accumulate" id="rect2985" width="79.137" height="79.289" x="111.376" y="941.9"/><rect style="color:#000;fill:#6996bd;fill-opacity:1;fill-rule:evenodd;stroke:#000;stroke-width:2.23606156999999994;stroke-linecap:butt;stroke-linejoin:round;stroke-miterlimit:4;stroke-opacity:1;stroke-dasharray:none;stroke-dashoffset:0;marker:none;visibility:visible;display:inline;overflow:visible;enable-background:accumulate" id="rect3755" width="70.114" height="69.766" x="115.961" y="946.48"/><rect style="color:#000;fill:#909090;fill-opacity:1;stroke:none;stroke-width:1px;marker:none;visibility:visible;display:inline;overflow:visible;enable-background:accumulate" id="rect4365-5" width="37.171" height="6.818" x="14.41" y="-941.074" transform="scale(1,-1)"/><path style="color:#000;fill:none;stroke:#000;stroke-width:3;stroke-linecap:butt;stroke-linejoin:miter;stroke-miterlimit:4;stroke-opacity:1;stroke-dasharray:none;stroke-dashoffset:0;marker:none;visibility:visible;display:inline;overflow:visible;enable-background:accumulate" id="path4095-1" d="m 14.490515,941.28831 37.60019,0 0,-7.04665"/><rect style="color:#000;fill:#fff;fill-opacity:1;fill-rule:evenodd;stroke:#000;stroke-width:1;stroke-linecap:butt;stroke-linejoin:round;stroke-miterlimit:4;stroke-opacity:1;stroke-dasharray:none;stroke-dashoffset:0;marker:none;visibility:visible;display:inline;overflow:visible;enable-background:accumulate" id="rect3863" width="18.435" height="78.929" x="20.056" y="941.988"/><rect style="color:#000;fill:#fff;fill-opacity:1;fill-rule:evenodd;stroke:#000;stroke-width:1.91847098;stroke-linecap:butt;stroke-linejoin:round;stroke-miterlimit:4;stroke-opacity:1;stroke-dasharray:none;stroke-dashoffset:0;marker:none;visibility:visible;display:inline;overflow:visible;enable-background:accumulate" id="rect3777" width="18.393" height="4.821" x="20.148" y="941.988"/><rect style="color:#000;fill:#909090;fill-opacity:1;stroke:none;stroke-width:1px;marker:none;visibility:visible;display:inline;overflow:visible;enable-background:accumulate" id="rect4365" width="36.365" height="13.132" x="14.819" y="1021.616"/><rect style="color:#000;fill:#fff;fill-opacity:1;fill-rule:evenodd;stroke:#000;stroke-width:1.91847098;stroke-linecap:butt;stroke-linejoin:round;stroke-miterlimit:4;stroke-opacity:1;stroke-dasharray:none;stroke-dashoffset:0;marker:none;visibility:visible;display:inline;overflow:visible;enable-background:accumulate" id="rect3777-8" width="18.393" height="4.821" x="20.148" y="1016.095"/><path style="fill:none;stroke:#000;stroke-width:2.16455197;stroke-linecap:butt;stroke-linejoin:miter;stroke-miterlimit:4;stroke-opacity:1;stroke-dasharray:none" id="path3861" d="m 26.622468,947.79779 0,67.29531"/><path style="fill:red;stroke:red;stroke-width:.98996162px;stroke-linecap:butt;stroke-linejoin:miter;stroke-opacity:1" id="path3865" d="m 93.07632,938.51389 0,86.62721"/><path style="fill:none;stroke:red;stroke-width:1px;stroke-linecap:butt;stroke-linejoin:miter;stroke-opacity:1" id="path3867" d="m 101.29061,942.27388 -12.14286,0"/><path style="fill:none;stroke:red;stroke-width:1px;stroke-linecap:butt;stroke-linejoin:miter;stroke-opacity:1" id="path3867-8" d="m 101.29061,1021.0239 -12.14286,0"/><path style="color:#000;fill:none;stroke:red;stroke-width:1;stroke-linecap:butt;stroke-linejoin:miter;stroke-miterlimit:4;stroke-opacity:1;stroke-dasharray:none;stroke-dashoffset:0;marker:none;visibility:visible;display:inline;overflow:visible;enable-background:accumulate" id="path3865-3" d="m 51.076324,937.96249 0,14.3138"/><path style="fill:none;stroke:red;stroke-width:1px;stroke-linecap:butt;stroke-linejoin:miter;stroke-opacity:1" id="path3867-7" d="m 55.29061,942.27388 -12.142857,0"/><path style="fill:none;stroke:red;stroke-width:1px;stroke-linecap:butt;stroke-linejoin:miter;stroke-opacity:1" id="path3867-3-7" d="m 55.29061,942.27388 -12.142857,0"/><path style="fill:none;stroke:red;stroke-width:1px;stroke-linecap:butt;stroke-linejoin:miter;stroke-opacity:1" id="path3867-8-2-8" d="m 55.29061,946.77132 -12.142857,0"/><path style="color:#000;fill:none;stroke:red;stroke-width:1;stroke-linecap:butt;stroke-linejoin:miter;stroke-miterlimit:4;stroke-opacity:1;stroke-dasharray:none;stroke-dashoffset:0;marker:none;visibility:visible;display:inline;overflow:visible;enable-background:accumulate" id="path3865-5" d="m 105.68728,1046.2411 89.2943,0"/><path style="fill:none;stroke:red;stroke-width:1px;stroke-linecap:butt;stroke-linejoin:miter;stroke-opacity:1" id="path3867-0" d="m 111.39191,1038.0268 0,12.1429"/><path style="fill:none;stroke:red;stroke-width:1px;stroke-linecap:butt;stroke-linejoin:miter;stroke-opacity:1" id="path3867-8-7" d="m 190.14182,1038.0268 0,12.1429"/><path style="fill:none;stroke:red;stroke-width:1px;stroke-linecap:butt;stroke-linejoin:miter;stroke-opacity:1" id="path3867-8-6-3" d="m 20.374022,1049.9503 0,-12.1429"/><path style="fill:none;stroke:red;stroke-width:1px;stroke-linecap:butt;stroke-linejoin:miter;stroke-opacity:1" id="path3867-8-2-8-9" d="m 37.809923,1049.9503 0,-12.1429"/><text style="font-size:40px;font-style:normal;font-weight:400;line-height:125%;letter-spacing:0;word-spacing:0;fill:red;fill-opacity:1;stroke:none;font-family:Sans" id="text4070" x="133.081" y="1044.529" xml:space="preserve"><tspan id="tspan4072" x="133.081" y="1044.529" style="font-size:10px;font-weight:700;-inkscape-font-specification:Sans Bold">WIDTH</tspan></text><text style="font-size:40px;font-style:normal;font-weight:400;line-height:125%;letter-spacing:0;word-spacing:0;fill:red;fill-opacity:1;stroke:none;font-family:Sans" id="text4070-5" x="-1003.166" y="90.645" transform="matrix(0,-1,1,0,0,0)" xml:space="preserve"><tspan id="tspan4072-7" x="-1003.166" y="90.645" style="font-size:10px;font-weight:700;-inkscape-font-specification:Sans Bold">HEIGHT</tspan></text><path style="fill:none;stroke:#000;stroke-width:3;stroke-linecap:butt;stroke-linejoin:miter;stroke-miterlimit:4;stroke-opacity:1;stroke-dasharray:none" id="path4095" d="m 14.897753,1021.2025 36.785714,0 0,13.5714"/><path style="color:#000;fill:none;stroke:red;stroke-width:1px;stroke-linecap:butt;stroke-linejoin:miter;stroke-miterlimit:4;stroke-opacity:1;stroke-dasharray:none;stroke-dashoffset:0;marker:none;visibility:visible;display:inline;overflow:visible;enable-background:accumulate" id="path3865-3-4" d="m 60.397105,1045.736 -44.79365,0"/><path style="fill:none;stroke:red;stroke-width:1px;stroke-linecap:butt;stroke-linejoin:miter;stroke-opacity:1" id="path3867-8-2-8-9-9" d="m 51.809923,1049.9503 0,-12.1429"/><path style="color:#000;fill:none;stroke:red;stroke-width:1px;stroke-linecap:butt;stroke-linejoin:miter;stroke-miterlimit:4;stroke-opacity:1;stroke-dasharray:none;stroke-dashoffset:0;marker:none;visibility:visible;display:inline;overflow:visible;enable-background:accumulate" id="path4150-6" d="m 40.342969,54.416866 c 0,0.941443 -0.76319,1.704633 -1.704633,1.704633 -0.941442,0 -1.704632,-0.76319 -1.704632,-1.704633 0,-0.941442 0.76319,-1.704632 1.704632,-1.704632 0.941443,0 1.704633,0.76319 1.704633,1.704632 z" transform="translate(-18.204869,991.23201)"/><path style="color:#000;fill:none;stroke:red;stroke-width:1px;stroke-linecap:butt;stroke-linejoin:miter;stroke-miterlimit:4;stroke-opacity:1;stroke-dasharray:none;stroke-dashoffset:0;marker:none;visibility:visible;display:inline;overflow:visible;enable-background:accumulate" id="path4150-80" d="m 40.342969,54.416866 c 0,0.941443 -0.76319,1.704633 -1.704633,1.704633 -0.941442,0 -1.704632,-0.76319 -1.704632,-1.704633 0,-0.941442 0.76319,-1.704632 1.704632,-1.704632 0.941443,0 1.704633,0.76319 1.704633,1.704632 z" transform="translate(-0.7941548,991.14273)"/><path style="color:#000;fill:none;stroke:red;stroke-width:1px;stroke-linecap:butt;stroke-linejoin:miter;stroke-miterlimit:4;stroke-opacity:1;stroke-dasharray:none;stroke-dashoffset:0;marker:none;visibility:visible;display:inline;overflow:visible;enable-background:accumulate" id="path4150-9" d="m 40.342969,54.416866 c 0,0.941443 -0.76319,1.704633 -1.704633,1.704633 -0.941442,0 -1.704632,-0.76319 -1.704632,-1.704633 0,-0.941442 0.76319,-1.704632 1.704632,-1.704632 0.941443,0 1.704633,0.76319 1.704633,1.704632 z" transform="translate(13.045131,991.41059)"/><path style="color:#000;fill:none;stroke:red;stroke-width:1px;stroke-linecap:butt;stroke-linejoin:miter;stroke-miterlimit:4;stroke-opacity:1;stroke-dasharray:none;stroke-dashoffset:0;marker:none;visibility:visible;display:inline;overflow:visible;enable-background:accumulate" id="path4150-68" d="m 40.342969,54.416866 c 0,0.941443 -0.76319,1.704633 -1.704633,1.704633 -0.941442,0 -1.704632,-0.76319 -1.704632,-1.704633 0,-0.941442 0.76319,-1.704632 1.704632,-1.704632 0.941443,0 1.704633,0.76319 1.704633,1.704632 z" transform="translate(12.509417,892.3213)"/><path style="color:#000;fill:none;stroke:red;stroke-width:1px;stroke-linecap:butt;stroke-linejoin:miter;stroke-miterlimit:4;stroke-opacity:1;stroke-dasharray:none;stroke-dashoffset:0;marker:none;visibility:visible;display:inline;overflow:visible;enable-background:accumulate" id="path4150-3" d="m 40.342969,54.416866 c 0,0.941443 -0.76319,1.704633 -1.704633,1.704633 -0.941442,0 -1.704632,-0.76319 -1.704632,-1.704633 0,-0.941442 0.76319,-1.704632 1.704632,-1.704632 0.941443,0 1.704633,0.76319 1.704633,1.704632 z" transform="translate(12.420131,887.76773)"/><path style="color:#000;fill:none;stroke:red;stroke-width:1px;stroke-linecap:butt;stroke-linejoin:miter;stroke-miterlimit:4;stroke-opacity:1;stroke-dasharray:none;stroke-dashoffset:0;marker:none;visibility:visible;display:inline;overflow:visible;enable-background:accumulate" id="path4150-5" d="m 40.342969,54.416866 a 1.7046324,1.7046324 0 1 1 -3.409265,0 1.7046324,1.7046324 0 1 1 3.409265,0 z" transform="translate(54.61656,887.85702)"/><path style="color:#000;fill:none;stroke:red;stroke-width:1px;stroke-linecap:butt;stroke-linejoin:miter;stroke-miterlimit:4;stroke-opacity:1;stroke-dasharray:none;stroke-dashoffset:0;marker:none;visibility:visible;display:inline;overflow:visible;enable-background:accumulate" id="path4150-7" d="m 40.342969,54.416866 a 1.7046324,1.7046324 0 1 1 -3.409265,0 1.7046324,1.7046324 0 1 1 3.409265,0 z" transform="translate(54.43799,966.42845)"/><path style="color:#000;fill:none;stroke:red;stroke-width:1px;stroke-linecap:butt;stroke-linejoin:miter;stroke-miterlimit:4;stroke-opacity:1;stroke-dasharray:none;stroke-dashoffset:0;marker:none;visibility:visible;display:inline;overflow:visible;enable-background:accumulate" id="path4150-87" d="m 40.342969,54.416866 a 1.7046324,1.7046324 0 1 1 -3.409265,0 1.7046324,1.7046324 0 1 1 3.409265,0 z" transform="translate(72.759417,991.76773)"/><path style="color:#000;fill:none;stroke:red;stroke-width:1px;stroke-linecap:butt;stroke-linejoin:miter;stroke-miterlimit:4;stroke-opacity:1;stroke-dasharray:none;stroke-dashoffset:0;marker:none;visibility:visible;display:inline;overflow:visible;enable-background:accumulate" id="path4150-63" d="m 40.342969,54.416866 a 1.7046324,1.7046324 0 1 1 -3.409265,0 1.7046324,1.7046324 0 1 1 3.409265,0 z" transform="translate(151.59871,991.76773)"/><text style="font-size:40px;font-style:normal;font-weight:400;line-height:125%;letter-spacing:0;word-spacing:0;fill:red;fill-opacity:1;stroke:none;font-family:Sans" id="text4070-8" x="55.457" y="945.131" xml:space="preserve"><tspan id="tspan4072-1" x="55.457" y="945.131" style="font-size:10px;font-weight:700;-inkscape-font-specification:Sans Bold">H1</tspan></text><text style="font-size:40px;font-style:normal;font-weight:400;line-height:125%;letter-spacing:0;word-spacing:0;fill:red;fill-opacity:1;stroke:none;font-family:Sans" id="text4070-8-3-2" x="1.377" y="1043.843" xml:space="preserve"><tspan id="tspan4072-1-3-7" x="1.377" y="1043.843" style="font-size:10px;font-weight:700;-inkscape-font-specification:Sans Bold">W1</tspan></text><text style="font-size:40px;font-style:normal;font-weight:400;line-height:125%;letter-spacing:0;word-spacing:0;fill:red;fill-opacity:1;stroke:none;font-family:Sans" id="text4070-8-3-3-9" x="53.885" y="1043.843" xml:space="preserve"><tspan id="tspan4072-1-3-0-0" x="53.885" y="1043.843" style="font-size:10px;font-weight:700;-inkscape-font-specification:Sans Bold">O1</tspan></text></g></svg>