<svg xmlns="http://www.w3.org/2000/svg" xmlns:svg="http://www.w3.org/2000/svg" id="svg2" width="14" height="14" version="1.1" viewBox="0 0 14 14"><metadata id="metadata7"/><g id="layer1" transform="translate(-1074.0663,-342.59799)"><path style="color:#000;font-style:normal;font-variant:normal;font-weight:400;font-stretch:normal;font-size:medium;line-height:normal;font-family:sans-serif;font-variant-ligatures:normal;font-variant-position:normal;font-variant-caps:normal;font-variant-numeric:normal;font-variant-alternates:normal;font-feature-settings:normal;text-indent:0;text-align:start;text-decoration:none;text-decoration-line:none;text-decoration-style:solid;text-decoration-color:#000;letter-spacing:normal;word-spacing:normal;text-transform:none;writing-mode:lr-tb;direction:ltr;text-orientation:mixed;dominant-baseline:auto;baseline-shift:baseline;text-anchor:start;white-space:normal;shape-padding:0;clip-rule:nonzero;display:inline;overflow:visible;visibility:visible;opacity:1;isolation:auto;mix-blend-mode:normal;color-interpolation:sRGB;color-interpolation-filters:linearRGB;solid-color:#000;solid-opacity:1;vector-effect:none;fill:#fff;fill-opacity:.35294119;fill-rule:nonzero;stroke:none;stroke-width:2;stroke-linecap:round;stroke-linejoin:round;stroke-miterlimit:4;stroke-dasharray:none;stroke-dashoffset:0;stroke-opacity:1;color-rendering:auto;image-rendering:auto;shape-rendering:auto;text-rendering:auto;enable-background:accumulate" id="path8784" d="M 2.9902344 1.9902344 A 1.0001 1.0001 0 0 0 2.2929688 3.7070312 L 5.5859375 7 L 2.2929688 10.292969 A 1.0001 1.0001 0 1 0 3.7070312 11.707031 L 7 8.4140625 L 10.292969 11.707031 A 1.0001 1.0001 0 1 0 11.707031 10.292969 L 8.4140625 7 L 11.707031 3.7070312 A 1.0001 1.0001 0 0 0 10.980469 1.9902344 A 1.0001 1.0001 0 0 0 10.292969 2.2929688 L 7 5.5859375 L 3.7070312 2.2929688 A 1.0001 1.0001 0 0 0 2.9902344 1.9902344 z" transform="translate(1074.0663,342.59799)"/></g></svg>