<svg xmlns="http://www.w3.org/2000/svg" xmlns:svg="http://www.w3.org/2000/svg" xmlns:xlink="http://www.w3.org/1999/xlink" id="svg2980" width="64" height="64" version="1.1"><defs id="defs2982"><linearGradient id="linearGradient3861"><stop style="stop-color:#3465a4;stop-opacity:1" id="stop3863" offset="0"/><stop style="stop-color:#729fcf;stop-opacity:1" id="stop3865" offset="1"/></linearGradient><linearGradient id="linearGradient3765"><stop style="stop-color:#d3d7cf;stop-opacity:1" id="stop3767" offset="0"/><stop style="stop-color:#fff;stop-opacity:1" id="stop3769" offset="1"/></linearGradient><linearGradient id="linearGradient3864"><stop id="stop3866" offset="0" style="stop-color:#71b2f8;stop-opacity:1"/><stop id="stop3868" offset="1" style="stop-color:#002795;stop-opacity:1"/></linearGradient><linearGradient id="linearGradient3000" x1="35" x2="31" y1="51" y2="18" gradientUnits="userSpaceOnUse" xlink:href="#linearGradient3765"/><linearGradient id="linearGradient3867" x1="34" x2="24" y1="56" y2="6" gradientUnits="userSpaceOnUse" xlink:href="#linearGradient3861"/></defs><metadata id="metadata2985"/><g id="layer1"><path style="fill:url(#linearGradient3867);stroke:#0b1521;stroke-width:2;stroke-linecap:round;stroke-linejoin:round;stroke-miterlimit:4;stroke-opacity:1;stroke-dasharray:none;stroke-dashoffset:6;fill-opacity:1" id="rect3002" d="m 2.9999997,3.0000001 57.9999993,0 0,57.9999989 -57.9999993,0 z"/><g id="g2996" transform="matrix(-1,0,0,1,64,0)"><path id="path3761" d="M 7,49 15,57 35,37 41,49 57,7 15,23 27,29 z" style="fill:url(#linearGradient3000);fill-opacity:1;stroke:#2e3436;stroke-width:2;stroke-linecap:butt;stroke-linejoin:round;stroke-miterlimit:4;stroke-opacity:1;stroke-dasharray:none"/><path id="path3763" d="M 9.8181818,49 30.363636,28.363636 20,23.272727 53.545455,10.454545 40.727273,44 35.636364,33.636364 15,54.181818 z" style="fill:none;stroke:#fff;stroke-width:2;stroke-linecap:butt;stroke-linejoin:miter;stroke-miterlimit:4;stroke-opacity:1;stroke-dasharray:none"/></g><path style="fill:none;stroke:#729fcf;stroke-width:2;stroke-linecap:round;stroke-linejoin:miter;stroke-miterlimit:4;stroke-opacity:1;stroke-dasharray:none;stroke-dashoffset:6" id="rect3002-6" d="M 5,5 59,5 59,59 5,59 z"/></g></svg>