<svg xmlns="http://www.w3.org/2000/svg" xmlns:svg="http://www.w3.org/2000/svg" xmlns:xlink="http://www.w3.org/1999/xlink" id="svg2980" width="64" height="64" version="1.1"><defs id="defs2982"><linearGradient id="linearGradient3765"><stop style="stop-color:#d3d7cf;stop-opacity:1" id="stop3767" offset="0"/><stop style="stop-color:#fff;stop-opacity:1" id="stop3769" offset="1"/></linearGradient><linearGradient id="linearGradient3864"><stop id="stop3866" offset="0" style="stop-color:#71b2f8;stop-opacity:1"/><stop id="stop3868" offset="1" style="stop-color:#002795;stop-opacity:1"/></linearGradient><linearGradient id="linearGradient3771" x1="35" x2="31" y1="51" y2="18" gradientUnits="userSpaceOnUse" xlink:href="#linearGradient3765"/><linearGradient id="linearGradient4274" x1="1095.125" x2="1065.882" y1="1279.018" y2="1088.94" gradientTransform="matrix(0.99999995,0,0,1.0769231,-1.6476784,-89.65025)" gradientUnits="userSpaceOnUse" xlink:href="#linearGradient3774"/><linearGradient id="linearGradient3774"><stop style="stop-color:#4e9a06;stop-opacity:1" id="stop3776" offset="0"/><stop style="stop-color:#8ae234;stop-opacity:1" id="stop3778" offset="1"/></linearGradient></defs><metadata id="metadata2985"/><g id="layer1"><g id="g4259" transform="matrix(0.1367863,0,0,0.1367863,-102.36543,-136.65792)"><g id="g4169" transform="translate(-232.61234,-45.193255)"><rect id="rect4261" width="255.874" height="255.874" x="988.076" y="1051.784" style="opacity:1;fill:#8ae234;fill-opacity:1;stroke:#172a04;stroke-width:14.62134743;stroke-linejoin:round;stroke-miterlimit:4;stroke-dasharray:none;stroke-opacity:1"/><rect id="rect4263" width="204.699" height="204.699" x="1013.663" y="1077.371" style="opacity:1;fill:url(#linearGradient4274);fill-opacity:1;stroke:none;stroke-width:14.62134743;stroke-linejoin:round;stroke-miterlimit:4;stroke-dasharray:none;stroke-opacity:1"/></g></g><path style="fill:none;stroke:#204a87;stroke-width:6;stroke-linecap:round;stroke-linejoin:round;stroke-miterlimit:4;stroke-dasharray:6,12;stroke-dashoffset:6;stroke-opacity:1" id="rect3002" d="m 5,5.1818182 54,0 0,53.9999998 -54,0 z"/><path style="fill:none;stroke:#729fcf;stroke-width:2;stroke-linecap:round;stroke-linejoin:round;stroke-miterlimit:4;stroke-dasharray:6,12;stroke-dashoffset:6;stroke-opacity:1" id="rect3002-3" d="m 5,5.1818182 54,0 0,53.9999998 -54,0 z"/><g id="g2996" transform="matrix(-1,0,0,1,69.528289,5.5815427)"><path id="path3761" d="M 7,49 15,57 35,37 41,49 57,7 15,23 27,29 Z" style="fill:url(#linearGradient3771);fill-opacity:1;stroke:#2e3436;stroke-width:2;stroke-linecap:butt;stroke-linejoin:round;stroke-miterlimit:4;stroke-dasharray:none;stroke-opacity:1"/><path id="path3763" d="M 9.8181818,49 30.363636,28.363636 20,23.272727 53.545455,10.454545 40.727273,44 35.636364,33.636364 15,54.181818 Z" style="fill:none;stroke:#fff;stroke-width:2;stroke-linecap:butt;stroke-linejoin:miter;stroke-miterlimit:4;stroke-dasharray:none;stroke-opacity:1"/></g></g></svg>