<svg xmlns="http://www.w3.org/2000/svg" xmlns:osb="http://www.openswatchbook.org/uri/2009/osb" xmlns:svg="http://www.w3.org/2000/svg" xmlns:xlink="http://www.w3.org/1999/xlink" id="svg2943" width="64" height="64" version="1.1"><defs id="defs2945"><linearGradient id="linearGradient4158"><stop style="stop-color:#000;stop-opacity:1" id="stop4160" offset="0"/><stop style="stop-color:#f6f6f6;stop-opacity:0" id="stop4162" offset="1"/></linearGradient><linearGradient id="linearGradient4122"><stop style="stop-color:#e3d328;stop-opacity:1" id="stop4124" offset="0"/><stop style="stop-color:#e1dec3;stop-opacity:1" id="stop4126" offset="1"/></linearGradient><linearGradient id="linearGradient4088"><stop style="stop-color:#e9cd23;stop-opacity:1" id="stop4090" offset="0"/><stop style="stop-color:#040000;stop-opacity:0" id="stop4092" offset="1"/></linearGradient><linearGradient id="linearGradient4060"><stop style="stop-color:#ada9a9;stop-opacity:1" id="stop4062" offset="0"/><stop style="stop-color:#ada9a9;stop-opacity:0" id="stop4064" offset="1"/></linearGradient><linearGradient id="linearGradient4052"><stop style="stop-color:#ada9a9;stop-opacity:1" id="stop4054" offset="0"/><stop style="stop-color:#ada9a9;stop-opacity:0" id="stop4056" offset="1"/></linearGradient><linearGradient id="linearGradient4349"><stop style="stop-color:#898709;stop-opacity:1" id="stop4351" offset="0"/><stop style="stop-color:#000;stop-opacity:1" id="stop4353" offset="1"/></linearGradient><linearGradient id="linearGradient5241"><stop style="stop-color:#212c45;stop-opacity:1" id="stop5243" offset="0"/><stop style="stop-color:#000;stop-opacity:1" id="stop5245" offset="1"/></linearGradient><linearGradient id="linearGradient5227" osb:paint="solid"><stop style="stop-color:#000;stop-opacity:1" id="stop5229" offset="0"/></linearGradient><linearGradient id="linearGradient3902"><stop style="stop-color:#000;stop-opacity:.58823532" id="stop3904" offset="0"/><stop style="stop-color:#000;stop-opacity:.39215687" id="stop3906" offset="1"/></linearGradient><linearGradient id="linearGradient3894"><stop style="stop-color:#45351d;stop-opacity:1" id="stop3896" offset="0"/><stop style="stop-color:#000;stop-opacity:1" id="stop3898" offset="1"/></linearGradient><linearGradient id="linearGradient3886"><stop style="stop-color:#45351d;stop-opacity:1" id="stop3888" offset="0"/><stop style="stop-color:#000;stop-opacity:1" id="stop3890" offset="1"/></linearGradient><linearGradient id="linearGradient3792"><stop style="stop-color:#aaa;stop-opacity:1" id="stop3794" offset="0"/><stop style="stop-color:#d2d2d2;stop-opacity:1" id="stop3796" offset="1"/></linearGradient><linearGradient id="linearGradient3784"><stop style="stop-color:#bebebe;stop-opacity:1" id="stop3786" offset="0"/><stop style="stop-color:#fff;stop-opacity:.39215687" id="stop3788" offset="1"/></linearGradient><linearGradient id="linearGradient3377"><stop id="stop3379" offset="0" style="stop-color:#71b2f8;stop-opacity:1"/><stop id="stop3381" offset="1" style="stop-color:#002795;stop-opacity:1"/></linearGradient><linearGradient id="linearGradient4058" x1="139" x2="92.498" y1="44.864" y2="-14.357" gradientTransform="translate(168.6744,65.825928)" gradientUnits="userSpaceOnUse" xlink:href="#linearGradient4052"/><linearGradient id="linearGradient4066" x1="103.937" x2="120.499" y1="49.179" y2=".212" gradientTransform="translate(168.6744,65.825928)" gradientUnits="userSpaceOnUse" xlink:href="#linearGradient4060"/><linearGradient id="linearGradient4128" x1="391.307" x2="394.432" y1="120.811" y2="112.436" gradientTransform="translate(-88.034794,-1.0606602)" gradientUnits="userSpaceOnUse" xlink:href="#linearGradient4122"/><linearGradient id="linearGradient4164" x1="419.994" x2="458.719" y1="102.778" y2="69.432" gradientTransform="translate(-129.22376,-0.88388348)" gradientUnits="userSpaceOnUse" xlink:href="#linearGradient4158"/><linearGradient id="linearGradient3950" x1="285.709" x2="301.709" y1="75.887" y2="119.887" gradientUnits="userSpaceOnUse" xlink:href="#linearGradient3944"/><linearGradient id="linearGradient3944"><stop style="stop-color:#8ae234;stop-opacity:1" id="stop3946" offset="0"/><stop style="stop-color:#4e9a06;stop-opacity:1" id="stop3948" offset="1"/></linearGradient><linearGradient id="linearGradient3959" x1="214.709" x2="218.709" y1="80.887" y2="104.887" gradientTransform="translate(80,0)" gradientUnits="userSpaceOnUse" xlink:href="#linearGradient3953"/><linearGradient id="linearGradient3953"><stop style="stop-color:#babdb6;stop-opacity:1" id="stop3955" offset="0"/><stop style="stop-color:#555753;stop-opacity:1" id="stop3957" offset="1"/></linearGradient><linearGradient id="linearGradient3967" x1="196.709" x2="190.709" y1="106.887" y2="80.887" gradientTransform="translate(80,0)" gradientUnits="userSpaceOnUse" xlink:href="#linearGradient3961"/><linearGradient id="linearGradient3961"><stop style="stop-color:#babdb6;stop-opacity:1" id="stop3963" offset="0"/><stop style="stop-color:#d3d7cf;stop-opacity:1" id="stop3965" offset="1"/></linearGradient><linearGradient id="linearGradient4059" x1="266.082" x2="301.709" y1="90.401" y2="119.887" gradientUnits="userSpaceOnUse" xlink:href="#linearGradient4061"/><linearGradient id="linearGradient4061"><stop id="stop4063" offset="0" style="stop-color:#ef2929;stop-opacity:1"/><stop id="stop4065" offset="1" style="stop-color:#a40000;stop-opacity:1"/></linearGradient></defs><metadata id="metadata2948"/><g id="layer1"><g id="g3629" transform="translate(-256.70919,-66.886588)"><path style="fill:#e3d328;fill-opacity:1;stroke:#040400;stroke-width:.08838835;stroke-miterlimit:4;stroke-opacity:1;stroke-dasharray:none" id="path4102" transform="translate(256.70919,66.886588)"/><path style="fill:#babdb6;stroke:#2e3436;stroke-width:2;stroke-linecap:butt;stroke-linejoin:round;stroke-opacity:1" id="path3100" d="m 285.70919,77.886588 -26,-4 c 0,11 0,26.000002 2,36.000002 l 30,12 0,-6 -2,-4 c 8,-12 0,-24.000002 -4,-34.000002 z"/><path style="fill:#555753;stroke:#2e3436;stroke-width:2;stroke-linecap:butt;stroke-linejoin:round;stroke-opacity:1" id="path3890" d="m 291.70919,121.88659 12,-4 0,-6 -12,4 z"/><path style="fill:#d3d7cf;stroke:#2e3436;stroke-width:2;stroke-linecap:butt;stroke-linejoin:round;stroke-miterlimit:4;stroke-opacity:1;stroke-dasharray:none" id="path3892" d="m 301.70919,107.88659 -12,4 2,4 12,-4 z"/><path style="fill:#888a85;stroke:#2e3436;stroke-width:2;stroke-linecap:butt;stroke-linejoin:round;stroke-miterlimit:4;stroke-opacity:1;stroke-dasharray:none" id="path3894" d="m 285.70919,77.886588 c 4,10 12,22.000002 4,34.000002 l 12,-4 c 8,-12.000002 0,-24.000002 -4,-34.000002 z"/><path style="fill:#d3d7cf;stroke:#2e3436;stroke-width:2;stroke-linecap:butt;stroke-linejoin:round;stroke-opacity:1" id="path3888" d="m 259.70919,73.886588 12,-4 26,4 -12,4 z"/><path style="fill:url(#linearGradient3967);fill-opacity:1;stroke:#d3d7cf;stroke-width:1.99999976;stroke-linecap:butt;stroke-linejoin:miter;stroke-opacity:1" id="path3100-6" d="m 284.30919,79.786588 -22.6,-3.9 c 0,10.043478 -0.0125,23.469562 1.8,32.600002 l 26.2,10.4 0,-2.5 -2.2,-4.5 c 8,-12 1.2,-22.000002 -3.2,-32.100002 z"/><path style="fill:url(#linearGradient3959);fill-opacity:1;stroke:#babdb6;stroke-width:2;stroke-linecap:butt;stroke-linejoin:miter;stroke-miterlimit:4;stroke-opacity:1;stroke-dasharray:none" id="path3894-7" d="m 288.30919,79.086588 c 4,10 9.4,18.3 5.4,29.300002 l 6.6,-2.2 c 6,-9.000002 1.4,-19.300002 -3.8,-29.900002 z"/><path style="fill:#555753;fill-opacity:1;stroke:#2e3436;stroke-width:2.25831866;stroke-linecap:round;stroke-linejoin:miter;stroke-miterlimit:4;stroke-opacity:1;stroke-dasharray:none;stroke-dashoffset:1.6" id="path3932" d="m -78,39 a 15,15 0 1 1 -30,0 15,15 0 1 1 30,0 z" transform="matrix(0.79999998,0.19607832,0,0.9803916,350.10919,74.8866)"/><path style="fill:#edd400;fill-opacity:1;stroke:#302b00;stroke-width:2;stroke-linecap:round;stroke-linejoin:round;stroke-miterlimit:4;stroke-opacity:1;stroke-dashoffset:1.6" id="path3932-5" d="m 287.70919,97.827762 -24,-5.882349 c 0,0 -0.82229,-14.095015 12,-11.764699 11.12322,2.021527 12,17.647048 12,17.647048 z"/><path style="fill:#edd400;fill-opacity:1;stroke:#302b00;stroke-width:2;stroke-linecap:butt;stroke-linejoin:round;stroke-miterlimit:4;stroke-opacity:1;stroke-dasharray:none" id="path3894-7-9" d="m 294.70919,90.886588 c 2,4 3,11.000002 1,15.000002 l 4,-1 c 2,-4 2,-11.000002 0,-15.000002 z"/><path style="fill:#edd400;stroke:#302b00;stroke-width:2;stroke-linecap:butt;stroke-linejoin:round;stroke-miterlimit:4;stroke-opacity:1;stroke-dasharray:none" id="path4003" d="m 293.70919,117.88659 8,-3 16,5 -6,4 z"/><path style="fill:#d3d7cf;stroke:#2e3436;stroke-width:2;stroke-linecap:butt;stroke-linejoin:round;stroke-opacity:1" id="path4005" d="m 317.70919,119.88659 0,4 -6,4 0,-4 z"/><path style="fill:none;stroke:#172a04;stroke-width:8;stroke-linecap:round;stroke-linejoin:round;stroke-opacity:1" id="path3138" d="m 262.70919,120.88659 0,-44.000002 52,0 0,44.000002"/><path style="fill:none;stroke:url(#linearGradient3950);stroke-width:4;stroke-linecap:round;stroke-linejoin:round;stroke-opacity:1" id="path3138-3" d="m 262.70919,120.88659 0,-44.000002 52,0 0,44.000002"/><path style="fill:none;stroke:#8ae234;stroke-width:2;stroke-linecap:round;stroke-linejoin:round;stroke-opacity:1" id="path3138-3-6" d="m 261.70919,120.98659 0,-45.100002 52,0 0,45.100002"/><g id="g4054" transform="matrix(0.70710678,0.70710678,-0.70710678,0.70710678,160.48434,-175.18501)"><path id="path3138-36" d="m 265.53762,120.88659 0,-35.514721 37.85786,0 0,35.514721" style="fill:none;stroke:#280000;stroke-width:8;stroke-linecap:round;stroke-linejoin:round;stroke-opacity:1"/><path id="path3138-3-7" d="m 265.53762,120.88659 0,-35.514721 37.85786,0 0,35.514721" style="fill:none;stroke:url(#linearGradient4059);stroke-width:4;stroke-linecap:round;stroke-linejoin:round;stroke-opacity:1"/><path id="path3138-3-6-5" d="m 264.53762,120.98659 0,-36.614721 37.85786,0 0,36.614721" style="fill:none;stroke:#ef2929;stroke-width:2;stroke-linecap:round;stroke-linejoin:round;stroke-opacity:1"/></g></g></g></svg>