<svg xmlns="http://www.w3.org/2000/svg" xmlns:freecad="http://www.freecadweb.org/wiki/index.php?title=Svg_Namespace" width="297mm" height="420mm" version="1.1" viewBox="0 0 297 420"><g style="fill:none;stroke:#000;stroke-width:.25;stroke-linecap:miter;stroke-miterlimit:4" id="orienation-border"><path d="m 21,1 h 275"/><path d="m 21,1 v 418"/><path d="m 296,1 v 418"/><path d="m 21,419 h 275"/><path d="m 66.8333,1 v 4"/><path d="m 112.6666,1 v 4"/><path d="m 158.5,1 v 4"/><path d="m 204.3333,1 v 4"/><path d="m 250.1666,1 v 4"/><path d="m 295.9999,1 v 4"/><path d="m 21,53.25 h 4"/><path d="m 21,105.5 h 4"/><path d="m 21,157.75 h 4"/><path d="m 21,210 h 4"/><path d="m 21,262.25 h 4"/><path d="m 21,314.5 h 4"/><path d="m 21,366.75 h 4"/><path d="m 21,419 h 4"/><path d="m 292,53.25 h 4"/><path d="m 292,105.5 h 4"/><path d="m 292,157.75 h 4"/><path d="m 292,210 h 4"/><path d="m 292,262.25 h 4"/><path d="m 292,314.5 h 4"/><path d="m 292,366.75 h 4"/><path d="m 292,419 h 4"/><path d="m 66.8333,415 v 4"/><path d="m 112.6666,415 v 4"/><path d="m 158.5,415 v 4"/><path d="m 204.3333,415 v 4"/><path d="m 250.1666,415 v 4"/><path d="m 295.9999,415 v 4"/></g><g style="font-size:3.5;text-anchor:start;fill:#000;font-family:tahoma" id="orientation-text" xml:space="preserve"><text x="44" y="4.25">1</text><text x="89" y="4.25">2</text><text x="133" y="4.25">3</text><text x="179" y="4.25">4</text><text x="223" y="4.25">5</text><text x="268" y="4.25">6</text><text x="21.825" y="27.125">A</text><text x="21.825" y="79.375">B</text><text x="21.825" y="131.625">C</text><text x="21.825" y="183.875">D</text><text x="21.825" y="236.125">E</text><text x="21.825" y="288.375">F</text><text x="21.825" y="340.625">G</text><text x="21.825" y="392.875">H</text><text x="293" y="27.125">A</text><text x="293" y="79.375">B</text><text x="293" y="131.625">C</text><text x="293" y="183.875">D</text><text x="293" y="236.125">E</text><text x="293" y="288.375">F</text><text x="293" y="340.625">G</text><text x="293" y="392.875">H</text><text x="44" y="418.25">1</text><text x="89" y="418.25">2</text><text x="133" y="418.25">3</text><text x="179" y="418.25">4</text><text x="223" y="418.25">5</text><text x="268" y="418.25">6</text></g><g style="fill:none;stroke:#000;stroke-width:.5;stroke-linecap:miter;stroke-miterlimit:4" id="drawing-border"><rect width="267" height="410" x="25" y="5"/></g><g style="stroke:#000;stroke-width:.5" id="center-line"><line x1="158.5" x2="158.5" y1="1" y2="10"/><line x1="21" x2="30" y1="210" y2="210"/><line x1="287" x2="296" y1="210" y2="210"/></g><g id="cut-marker" fill="#000" stroke="#000" stroke-width="2"><line x1="0" x2="10" y1="0" y2="0"/><line x1="0" x2="0" y1="0" y2="10"/><line x1="287" x2="297" y1="0" y2="0"/><line x1="297" x2="297" y1="0" y2="10"/><line x1="0" x2="0" y1="410" y2="420"/><line x1="0" x2="10" y1="420" y2="420"/><line x1="287" x2="297" y1="420" y2="420"/><line x1="297" x2="297" y1="410" y2="420"/></g><g style="fill:none;stroke:#000;stroke-width:.5;stroke-linecap:miter;stroke-miterlimit:4" id="titleblock-structure"><rect width="180" height="56" x="112" y="359"/><path d="m 112,366 h 80"/><path d="m 112,373 h 80"/><path d="m 112,380 h 80"/><path d="m 112,387 h 130"/><path d="m 112,394 h 80"/><path d="m 112,401 h 80"/><path d="m 112,408 h 80"/><path d="m 122,359 v 28"/><path d="m 132,359 v 28"/><path d="m 148,359 v 28"/><path d="m 164,359 v 56"/><path d="m 176,359 v 56"/><path d="m 192,359 v 56"/><path d="m 242,359 v 56"/><path d="m 124,387 v 28"/><path d="m 136,387 v 28"/><path d="m 152,387 v 28"/><path d="m 192,397 h 50"/><path d="m 192,406 h 50"/><path d="m 242,374 h 50"/><path d="m 242,395 h 50"/><path d="m 198.5,397 v 9"/><path d="m 205,397 v 9"/><path d="m 211.5,397 v 9"/><path d="m 218,387 v 19"/><path d="m 230,387 v 19"/></g><g style="strock:black;font-size:5;text-anchor:start;font-family:HYSWLongFangSong" id="titleblock-text-non-editable" xml:space="preserve"><text x="113.5" y="385">标记</text><text x="123.5" y="385">处数</text><text x="136" y="385">分区</text><text x="148.25" y="385">更</text><text x="151.25" y="385">改</text><text x="154.15" y="385">文</text><text x="157.25" y="385">件</text><text x="160.25" y="385">号</text><text x="166.5" y="385">签名</text><text x="177" y="385">(年月日)</text><text x="114" y="392">设计</text><text x="125" y="392">(签名)</text><text x="137" y="392">(年月日)</text><text x="153" y="392">标准化</text><text x="165" y="392">(签名)</text><text x="177" y="392">(年月日)</text><text x="197" y="393">阶段标记</text><text x="220" y="393">重量</text><text x="232" y="393">比例</text><text x="114" y="406">审核</text><text x="154.5" y="406">制图</text><text x="114" y="413">工艺</text><text x="154.5" y="413">批准</text><text x="193" y="412">共</text><text x="213" y="412">张</text><text x="217" y="412">第</text><text x="237" y="412">张</text><text style="font-size:10" x="243" y="414">A3</text><text style="font-size:1.8" x="254.5" y="408.5">模板版本:0.0.2</text><text style="font-size:1.8" x="254.5" y="411">模板设计:李峰</text><text style="font-size:1.8" x="254.5" y="413.5">felix@95839.com</text><text x="210" y="364">材料牌号</text></g><g id="project mark"><g style="stroke:#000;stroke-width:.5"><line x1="269" x2="279" y1="409.5" y2="409.5" stroke-dasharray="2.75 .25 .25 .25 2.75 .25 .25 .25"/><line x1="281" x2="291" y1="409.5" y2="409.5" stroke-dasharray="2.5 .25 .5 .25 3 .25 .5 .25"/><line x1="286" x2="286" y1="405" y2="414" stroke-dasharray="2 .25 .5 .25 3 .25 .5 .25"/></g><g fill="none" stroke="#000" stroke-width=".5"><polygon points="270 407.5 278 405.5 278 413.5 270 411.5"/><circle cx="286" cy="409.5" r="2"/><circle cx="286" cy="409.5" r="4"/></g></g><g id="bunding hole"><g fill="#BBB" stroke="#666" stroke-width=".5"><circle cx="10" cy="150.5" r="3"/><circle cx="10" cy="188.5" r="3"/><circle cx="10" cy="271.5" r="3"/><circle cx="10" cy="354.5" r="3"/><circle cx="10" cy="392.5" r="3"/><line x1="0" x2="20" y1="123" y2="123"/><text style="font-size:3.5" x="5" y="127">297折线</text><line x1="10" x2="10" y1="163" y2="173"/><line x1="10" x2="10" y1="366" y2="376"/><text style="font-size:5" x="7.5" y="210">装</text><text style="font-size:5" x="7.5" y="248">订</text><line x1="5" x2="15" y1="271.5" y2="271.5"/><line x1="10" x2="10" y1="266.5" y2="276.5"/></g></g><g style="font-size:5;text-anchor:start;text-align:center;strock:black;font-family:HYSWLongFangSong" id="titleblock-text-editable" xml:space="preserve"><text x="106" y="398.5" freecad:editable="AUTHOR_NAME"><tspan dx="106" dy="395.5" text-anchor="left">设计人</tspan></text><text style="font-size:5;text-anchor:start;text-align:center;fill:#000" x="157.5" y="406" freecad:editable="DRAWING_NAME"><tspan>制图人</tspan></text><text style="font-size:5;text-anchor:start;text-align:center;fill:#000" x="117.5" y="406" freecad:editable="CHECKED_NAME"><tspan>审核人</tspan></text><text style="font-size:5;text-anchor:start;text-align:center;fill:#000" x="157.5" y="413" freecad:editable="APPROVER_NAME"><tspan>批准人</tspan></text><text style="font-size:5;text-anchor:start;text-align:center;fill:#000" x="117.5" y="413" freecad:editable="CRAFTS_NAME"><tspan>评审人</tspan></text><text style="font-size:5;text-anchor:start;text-align:center;fill:#000" x="190" y="412" freecad:editable="TOTAL_SHEETS"><tspan>99</tspan></text><text style="font-size:5;text-anchor:start;text-align:center;fill:#000" x="214" y="412" freecad:editable="OF_SHEET"><tspan>1</tspan></text><text style="font-size:5;text-anchor:start;text-align:center;fill:#000" x="224" y="403" freecad:editable="SCALE"><tspan>M x:x</tspan></text><text style="font-size:5;text-anchor:start;text-align:center;fill:#000" x="212" y="403" freecad:editable="WEIGHT"><tspan>重量</tspan></text><text style="font-size:3.5;text-anchor:start;text-align:center;fill:#000" x="132" y="398.5" freecad:editable="DATE-1"><tspan>YYYY-MM-DD</tspan></text><text style="font-size:3.5;text-anchor:start;text-align:center;fill:#000" x="172" y="405.5" freecad:editable="DATE-2"><tspan>YYYY-MM-DD</tspan></text><text style="font-size:5;text-anchor:start;text-align:center;fill:#000" x="235.5" y="363" freecad:editable="COMPANYNAME"><tspan>(单位名称/单位代号)</tspan></text><text style="font-size:5;text-anchor:start;text-align:center;fill:#000" x="235.5" y="368" freecad:editable="COMPANYADDR"><tspan>(单位地址)</tspan></text><text style="font-size:5;text-anchor:start;text-align:center;fill:#000" x="235.5" y="373" freecad:editable="COMPANYPHONE"><tspan>(单位电话/电邮)</tspan></text><text style="font-size:10" x="215" y="378" text-anchor="middle" freecad:editable="MATERIALMARK"><tspan>(材料标记)</tspan></text><text style="font-size:5;text-anchor:start;text-align:center;fill:#000" x="235.5" y="378.5" freecad:editable="PROJECT_TITLE"><tspan>(项目标题)</tspan></text><text style="font-size:5;text-anchor:start;text-align:center;fill:#000" x="235.5" y="383.5" freecad:editable="SUBTITLE"><tspan>(子项目标题)</tspan></text><text style="font-size:5;text-anchor:start;text-align:center;fill:#000" x="235.5" y="388.5" freecad:editable="PARTNAME"><tspan>(零件名称)</tspan></text><text style="font-size:5;text-anchor:start;text-align:center;fill:#000" x="235.5" y="393.5" freecad:editable="VERSION"><tspan>(版本号)</tspan></text><text style="font-size:5;text-anchor:middle;text-align:center;fill:#000" x="267" y="402" freecad:editable="PART_CODE_NAME"><tspan>(图样代号)</tspan></text></g></svg>