<svg xmlns="http://www.w3.org/2000/svg" xmlns:freecad="http://www.freecadweb.org/wiki/index.php?title=Svg_Namespace" width="210mm" height="297mm" version="1.1" viewBox="0 0 210 297"><g style="fill:none;stroke:#000;stroke-width:.25;stroke-linecap:miter;stroke-miterlimit:4" id="orienation-border"><path d="m 21,1 h 188"/><path d="m 21,1 v 295"/><path d="m 209,1 v 295"/><path d="m 21,296 h 188"/><path d="m 68,1 v 4"/><path d="m 115,1 v 4"/><path d="m 162,1 v 4"/><path d="m 21,50.1667 h 4"/><path d="m 21,99.3334 h 4"/><path d="m 21,148.5001 h 4"/><path d="m 21,197.6668 h 4"/><path d="m 21,246.8335 h 4"/><path d="m 205,50.1667 h 4"/><path d="m 205,99.3334 h 4"/><path d="m 205,148.5001 h 4"/><path d="m 205,197.6668 h 4"/><path d="m 205,246.8335 h 4"/><path d="m 68,292 v 4"/><path d="m 115,292 v 4"/><path d="m 162,292 v 4"/></g><g style="font-size:3.5;text-anchor:start;fill:#000;font-family:tahoma" id="orientation-text" xml:space="preserve"><text x="44" y="4.25">1</text><text x="90" y="4.25">2</text><text x="137" y="4.25">3</text><text x="184" y="4.25">4</text><text x="21.825" y="26">A</text><text x="21.825" y="75">B</text><text x="21.825" y="124">C</text><text x="21.825" y="173">D</text><text x="21.825" y="222">E</text><text x="21.825" y="271">F</text><text x="205.75" y="26">A</text><text x="205.75" y="75">B</text><text x="205.75" y="124">C</text><text x="205.75" y="173">D</text><text x="205.75" y="222">E</text><text x="205.75" y="271">F</text><text x="44" y="295.25">1</text><text x="90" y="295.25">2</text><text x="137" y="295.25">3</text><text x="184" y="295.25">4</text></g><g style="fill:none;stroke:#000;stroke-width:.5;stroke-linecap:miter;stroke-miterlimit:4" id="drawing-border"><rect width="180" height="287" x="25" y="5"/></g><g style="stroke:#000;stroke-width:.5" id="center-line"><line x1="115" x2="115" y1="1" y2="10"/><line x1="21" x2="30" y1="148.5" y2="148.5"/><line x1="200" x2="209" y1="148.5" y2="148.5"/></g><g id="cut-marker" fill="#000" stroke="#000" stroke-width="2"><line x1="0" x2="10" y1="0" y2="0"/><line x1="0" x2="0" y1="0" y2="10"/><line x1="200" x2="210" y1="0" y2="0"/><line x1="210" x2="210" y1="0" y2="10"/><line x1="0" x2="0" y1="287" y2="297"/><line x1="0" x2="10" y1="297" y2="297"/><line x1="210" x2="210" y1="287" y2="297"/><line x1="200" x2="210" y1="297" y2="297"/></g><g style="fill:none;stroke:#000;stroke-width:.5;stroke-linecap:miter;stroke-miterlimit:4" id="titleblock-structure"><rect width="180" height="56" x="25" y="236"/><path d="m 25,243 h 80"/><path d="m 25,250 h 80"/><path d="m 25,257 h 80"/><path d="m 25,264 h 130"/><path d="m 25,271 h 80"/><path d="m 25,278 h 80"/><path d="m 25,285 h 80"/><path d="m 35,236 v 28"/><path d="m 45,236 v 28"/><path d="m 61,236 v 28"/><path d="m 77,236 v 56"/><path d="m 89,236 v 56"/><path d="m 105,236 v 56"/><path d="m 155,236 v 56"/><path d="m 37,264 v 28"/><path d="m 49,264 v 28"/><path d="m 65,264 v 28"/><path d="m 105,274 h 50"/><path d="m 105,283 h 50"/><path d="m 155,251 h 50"/><path d="m 155,272 h 50"/><path d="m 111.5,274 v 9"/><path d="m 118,274 v 9"/><path d="m 124.5,274 v 9"/><path d="m 131,264 v 19"/><path d="m 143,264 v 19"/></g><g style="strock:black;font-size:5;text-anchor:start;font-family:HYSWLongFangSong" id="titleblock-text-non-editable" xml:space="preserve"><text x="26.5" y="262">标记</text><text x="36.5" y="262">处数</text><text x="49" y="262">分区</text><text x="61.25" y="262">更</text><text x="64.25" y="262">改</text><text x="67.15" y="262">文</text><text x="70.25" y="262">件</text><text x="73.25" y="262">号</text><text x="79.5" y="262">签名</text><text x="90" y="262">(年月日)</text><text x="27" y="269">设计</text><text x="38" y="269">(签名)</text><text x="50" y="269">(年月日)</text><text x="66" y="269">标准化</text><text x="78" y="269">(签名)</text><text x="90" y="269">(年月日)</text><text x="110" y="270">阶段标记</text><text x="133" y="270">重量</text><text x="145" y="270">比例</text><text x="27" y="283">审核</text><text x="67.5" y="283">制图</text><text x="27" y="290">工艺</text><text x="67.5" y="290">批准</text><text x="106" y="289">共</text><text x="126" y="289">张</text><text x="130" y="289">第</text><text x="150" y="289">张</text><text style="font-size:10" x="156" y="291">A4</text><text style="font-size:1.8" x="167.5" y="285.5">模板版本:0.0.2</text><text style="font-size:1.8" x="167.5" y="288">模板设计:李峰</text><text style="font-size:1.8" x="167.5" y="290.5">felix@95839.com</text><text x="123" y="241">材料牌号</text></g><g id="project mark"><g style="stroke:#000;stroke-width:.5"><line x1="182" x2="192" y1="286.5" y2="286.5" stroke-dasharray="2.75 .25 .25 .25 2.75 .25 .25 .25"/><line x1="194" x2="204" y1="286.5" y2="286.5" stroke-dasharray="2.5 .25 .5 .25 3 .25 .5 .25"/><line x1="199" x2="199" y1="282" y2="291" stroke-dasharray="2 .25 .5 .25 3 .25 .5 .25"/></g><g fill="none" stroke="#000" stroke-width=".5"><polygon points="183 284.5 191 282.5 191 290.5 183 288.5"/><circle cx="199" cy="286.5" r="2"/><circle cx="199" cy="286.5" r="4"/></g></g><g id="bunding hole"><g fill="#BBB" stroke="#666" stroke-width=".5"><circle cx="10" cy="27.5" r="3"/><circle cx="10" cy="65.5" r="3"/><circle cx="10" cy="148.5" r="3"/><circle cx="10" cy="231.5" r="3"/><circle cx="10" cy="269.5" r="3"/><line x1="10" x2="10" y1="38" y2="48"/><line x1="10" x2="10" y1="247" y2="257"/><text style="font-size:5" x="7.5" y="85">装</text><text style="font-size:5" x="7.5" y="128">订</text><line x1="5" x2="15" y1="148.5" y2="148.5"/><line x1="10" x2="10" y1="153.5" y2="143.5"/></g></g><g style="font-size:5;text-anchor:start;text-align:center;strock:black;font-family:HYSWLongFangSong" id="titleblock-text-editable" xml:space="preserve"><text x="19" y="275.5" freecad:editable="AUTHOR_NAME"><tspan dx="19" dy="275.5" text-anchor="left">设计人</tspan></text><text style="font-size:5;text-anchor:start;text-align:center;fill:#000" x="70.5" y="283" freecad:editable="DRAWING_NAME"><tspan>制图人</tspan></text><text style="font-size:5;text-anchor:start;text-align:center;fill:#000" x="30.5" y="283" freecad:editable="CHECKED_NAME"><tspan>审核人</tspan></text><text style="font-size:5;text-anchor:start;text-align:center;fill:#000" x="70.5" y="290" freecad:editable="APPROVER_NAME"><tspan>批准人</tspan></text><text style="font-size:5;text-anchor:start;text-align:center;fill:#000" x="30.5" y="290" freecad:editable="CRAFTS_NAME"><tspan>评审人</tspan></text><text style="font-size:5;text-anchor:start;text-align:center;fill:#000" x="103" y="289" freecad:editable="TOTAL_SHEETS"><tspan>99</tspan></text><text style="font-size:5;text-anchor:start;text-align:center;fill:#000" x="127" y="289" freecad:editable="OF_SHEET"><tspan>1</tspan></text><text style="font-size:5;text-anchor:start;text-align:center;fill:#000" x="137" y="280" freecad:editable="SCALE"><tspan>M x:x</tspan></text><text style="font-size:5;text-anchor:start;text-align:center;fill:#000" x="125" y="280" freecad:editable="WEIGHT"><tspan>重量</tspan></text><text style="font-size:3.5;text-anchor:start;text-align:center;fill:#000" x="45" y="275.5" freecad:editable="DATE-1"><tspan>YYYY-MM-DD</tspan></text><text style="font-size:3.5;text-anchor:start;text-align:center;fill:#000" x="85" y="282.5" freecad:editable="DATE-2"><tspan>YYYY-MM-DD</tspan></text><text style="font-size:5;text-anchor:start;text-align:center;fill:#000" x="148.5" y="240" freecad:editable="COMPANYNAME"><tspan>(单位名称/单位代号)</tspan></text><text style="font-size:5;text-anchor:start;text-align:center;fill:#000" x="148.5" y="245" freecad:editable="COMPANYADDR"><tspan>(单位地址)</tspan></text><text style="font-size:5;text-anchor:start;text-align:center;fill:#000" x="148.5" y="250" freecad:editable="COMPANYPHONE"><tspan>(单位电话/电邮)</tspan></text><text style="font-size:10" x="128" y="255" text-anchor="middle" freecad:editable="MATERIALMARK"><tspan>(材料标记)</tspan></text><text style="font-size:5;text-anchor:start;text-align:center;fill:#000" x="148.5" y="255.5" freecad:editable="PROJECT_TITLE"><tspan>(项目标题)</tspan></text><text style="font-size:5;text-anchor:start;text-align:center;fill:#000" x="148.5" y="260.5" freecad:editable="SUBTITLE"><tspan>(子项目标题)</tspan></text><text style="font-size:5;text-anchor:start;text-align:center;fill:#000" x="148.5" y="265.5" freecad:editable="PARTNAME"><tspan>(零件名称)</tspan></text><text style="font-size:5;text-anchor:start;text-align:center;fill:#000" x="148.5" y="270.5" freecad:editable="VERSION"><tspan>(版本号)</tspan></text><text style="font-size:5;text-anchor:middle;text-align:center;fill:#000" x="180" y="279" freecad:editable="PART_CODE_NAME"><tspan>(图样代号)</tspan></text></g></svg>