<svg xmlns="http://www.w3.org/2000/svg" xmlns:svg="http://www.w3.org/2000/svg" xmlns:xlink="http://www.w3.org/1999/xlink" id="svg2816" width="64" height="64" version="1.1"><defs id="defs2818"><linearGradient id="linearGradient3602"><stop style="stop-color:#ff2600;stop-opacity:1" id="stop3604" offset="0"/><stop style="stop-color:#ff5f00;stop-opacity:1" id="stop3606" offset="1"/></linearGradient><linearGradient id="linearGradient3608-5" x1="3.909" x2="24.818" y1="14.364" y2="14.364" gradientUnits="userSpaceOnUse" xlink:href="#linearGradient3602-7"/><linearGradient id="linearGradient3602-7"><stop style="stop-color:#c51900;stop-opacity:1" id="stop3604-1" offset="0"/><stop style="stop-color:#ff5f00;stop-opacity:1" id="stop3606-3" offset="1"/></linearGradient><linearGradient id="linearGradient3608-1" x1="3.909" x2="24.818" y1="14.364" y2="14.364" gradientUnits="userSpaceOnUse" xlink:href="#linearGradient3602-5"/><linearGradient id="linearGradient3602-5"><stop style="stop-color:#c51900;stop-opacity:1" id="stop3604-9" offset="0"/><stop style="stop-color:#ff5f00;stop-opacity:1" id="stop3606-9" offset="1"/></linearGradient><linearGradient id="linearGradient3686" x1="3.909" x2="24.818" y1="14.364" y2="14.364" gradientUnits="userSpaceOnUse" xlink:href="#linearGradient3602-5"/><linearGradient id="linearGradient3608-8" x1="3.909" x2="24.818" y1="14.364" y2="14.364" gradientUnits="userSpaceOnUse" xlink:href="#linearGradient3602-58"/><linearGradient id="linearGradient3602-58"><stop style="stop-color:#c51900;stop-opacity:1" id="stop3604-2" offset="0"/><stop style="stop-color:#ff5f00;stop-opacity:1" id="stop3606-2" offset="1"/></linearGradient><linearGradient id="linearGradient3726" x1="3.909" x2="24.818" y1="14.364" y2="14.364" gradientUnits="userSpaceOnUse" xlink:href="#linearGradient3602-58"/><filter id="filter7861"><feGaussianBlur id="feGaussianBlur7863" stdDeviation="1.093"/></filter></defs><metadata id="metadata2821"/><g id="layer1"><path style="fill:none;stroke:#0b1521;stroke-width:8;stroke-linecap:round;stroke-linejoin:miter;stroke-opacity:1" id="path3135" d="M 32,32 50,14"/><path style="fill:none;stroke:#0b1521;stroke-width:9.23076915999999947;stroke-linecap:round;stroke-linejoin:round;stroke-miterlimit:4;stroke-opacity:1;stroke-dasharray:none;stroke-dashoffset:10.80000000000000071" id="path3060" d="M 62,32 A 30,30 0 1 1 2,32 30,30 0 1 1 62,32 z" transform="matrix(0.86666667,0,0,0.86666667,4.266667,4.2666666)"/><path style="fill:none;stroke:#3465a4;stroke-width:4.61538457999999974;stroke-linecap:round;stroke-linejoin:round;stroke-miterlimit:4;stroke-opacity:1;stroke-dasharray:none;stroke-dashoffset:10.80000000000000071" id="path3060-3" d="M 62,32 A 30,30 0 1 1 2,32 30,30 0 1 1 62,32 z" transform="matrix(0.86666667,0,0,0.86666667,4.266667,4.2666666)"/><path style="fill:none;stroke:#3465a4;stroke-width:4;stroke-linecap:round;stroke-linejoin:miter;stroke-opacity:1" id="path3135-3" d="M 32,32 50,14"/><path style="fill:none;stroke:#729fcf;stroke-width:2.22222208999999982;stroke-linecap:round;stroke-linejoin:round;stroke-miterlimit:4;stroke-opacity:1;stroke-dasharray:none;stroke-dashoffset:10.80000000000000071" id="path3060-3-7" d="M 62,32 A 30,30 0 1 1 2,32 30,30 0 1 1 62,32 z" transform="matrix(0.9,0,0,0.9,3.2,3.1999999)"/><path style="fill:none;stroke:#729fcf;stroke-width:2;stroke-linecap:round;stroke-linejoin:miter;stroke-opacity:1" id="path3135-3-6" d="M 31.269,31.338388 49.74589,12.834271"/></g></svg>