<svg xmlns="http://www.w3.org/2000/svg" xmlns:svg="http://www.w3.org/2000/svg" xmlns:xlink="http://www.w3.org/1999/xlink" id="svg2816" width="64" height="64" version="1.1"><defs id="defs2818"><linearGradient id="linearGradient3602"><stop style="stop-color:#ff2600;stop-opacity:1" id="stop3604" offset="0"/><stop style="stop-color:#ff5f00;stop-opacity:1" id="stop3606" offset="1"/></linearGradient><linearGradient id="linearGradient3608-5" x1="3.909" x2="24.818" y1="14.364" y2="14.364" gradientUnits="userSpaceOnUse" xlink:href="#linearGradient3602-7"/><linearGradient id="linearGradient3602-7"><stop style="stop-color:#c51900;stop-opacity:1" id="stop3604-1" offset="0"/><stop style="stop-color:#ff5f00;stop-opacity:1" id="stop3606-3" offset="1"/></linearGradient><linearGradient id="linearGradient3608-1" x1="3.909" x2="24.818" y1="14.364" y2="14.364" gradientUnits="userSpaceOnUse" xlink:href="#linearGradient3602-5"/><linearGradient id="linearGradient3602-5"><stop style="stop-color:#c51900;stop-opacity:1" id="stop3604-9" offset="0"/><stop style="stop-color:#ff5f00;stop-opacity:1" id="stop3606-9" offset="1"/></linearGradient><linearGradient id="linearGradient3686" x1="3.909" x2="24.818" y1="14.364" y2="14.364" gradientUnits="userSpaceOnUse" xlink:href="#linearGradient3602-5"/><linearGradient id="linearGradient3608-8" x1="3.909" x2="24.818" y1="14.364" y2="14.364" gradientUnits="userSpaceOnUse" xlink:href="#linearGradient3602-58"/><linearGradient id="linearGradient3602-58"><stop style="stop-color:#c51900;stop-opacity:1" id="stop3604-2" offset="0"/><stop style="stop-color:#ff5f00;stop-opacity:1" id="stop3606-2" offset="1"/></linearGradient><linearGradient id="linearGradient3726" x1="3.909" x2="24.818" y1="14.364" y2="14.364" gradientUnits="userSpaceOnUse" xlink:href="#linearGradient3602-58"/><linearGradient id="linearGradient8866" x1="3.909" x2="24.818" y1="14.364" y2="14.364" gradientUnits="userSpaceOnUse" xlink:href="#linearGradient3602-1"/><linearGradient id="linearGradient3602-1"><stop style="stop-color:#ff2600;stop-opacity:1" id="stop3604-8" offset="0"/><stop style="stop-color:#ff5f00;stop-opacity:1" id="stop3606-96" offset="1"/></linearGradient><linearGradient id="linearGradient2875" x1="3.909" x2="24.818" y1="14.364" y2="14.364" gradientUnits="userSpaceOnUse" xlink:href="#linearGradient3602-1"/><linearGradient id="linearGradient2875-7" x1="3.909" x2="24.818" y1="14.364" y2="14.364" gradientUnits="userSpaceOnUse" xlink:href="#linearGradient3602-1-5"/><linearGradient id="linearGradient3602-1-5"><stop style="stop-color:#ff2600;stop-opacity:1" id="stop3604-8-3" offset="0"/><stop style="stop-color:#ff5f00;stop-opacity:1" id="stop3606-96-8" offset="1"/></linearGradient><linearGradient id="linearGradient2875-8" x1="3.909" x2="24.818" y1="14.364" y2="14.364" gradientUnits="userSpaceOnUse" xlink:href="#linearGradient3602-1-8"/><linearGradient id="linearGradient3602-1-8"><stop style="stop-color:#ff2600;stop-opacity:1" id="stop3604-8-8" offset="0"/><stop style="stop-color:#ff5f00;stop-opacity:1" id="stop3606-96-9" offset="1"/></linearGradient><filter id="filter3680"><feGaussianBlur id="feGaussianBlur3682" stdDeviation="1.071"/></filter></defs><metadata id="metadata2821"/><g id="layer1"><path style="fill:#c00;stroke:#280000;stroke-width:2;stroke-linecap:butt;stroke-linejoin:round;stroke-opacity:1" id="path3892" d="m 22,23 0,8 -11,-13 11,-13 0,8 c 14,0 24,10 24,26 L 36,39 C 36,31 32,23 22,23 z"/><path style="fill:none;stroke:#ef2929;stroke-width:2;stroke-linecap:butt;stroke-linejoin:miter;stroke-opacity:1" id="path3918" d="M 20,10.5 13.6,18 20,25.5 20,21 c 9,-1 17,5 18,16 l 6,0 C 44,26 36,14 20,15 z"/><g id="g3813" transform="translate(-25,19)"><path id="path3025" d="m 43,31 a 12,12 0 1 1 -24,0 12,12 0 1 1 24,0 z" transform="translate(35,-1)" style="fill:#c00;fill-opacity:1;stroke:#280000;stroke-width:2;stroke-linecap:round;stroke-linejoin:miter;stroke-miterlimit:4.5;stroke-opacity:1;stroke-dasharray:none"/><path id="path3025-3" d="m 43,31 a 12,12 0 1 1 -24,0 12,12 0 1 1 24,0 z" transform="matrix(0.83333337,0,0,0.83333333,40.166665,4.1666669)" style="fill:none;stroke:#ef2929;stroke-width:2.4000001;stroke-linecap:round;stroke-linejoin:miter;stroke-miterlimit:4.5;stroke-opacity:1;stroke-dasharray:none"/></g></g></svg>