<svg xmlns="http://www.w3.org/2000/svg" xmlns:svg="http://www.w3.org/2000/svg" xmlns:xlink="http://www.w3.org/1999/xlink" id="svg5821" width="64" height="64" version="1.1"><defs id="defs5823"><linearGradient id="linearGradient6349"><stop style="stop-color:#000;stop-opacity:1" id="stop6351" offset="0"/><stop style="stop-color:#000;stop-opacity:0" id="stop6353" offset="1"/></linearGradient><linearGradient id="linearGradient3377"><stop style="stop-color:#0019a3;stop-opacity:1" id="stop3379" offset="0"/><stop style="stop-color:#0069ff;stop-opacity:1" id="stop3381" offset="1"/></linearGradient><linearGradient id="linearGradient3383" x1="901.188" x2="1267.906" y1="1190.875" y2="1190.875" gradientTransform="matrix(-1,0,0,1,2199.356,0)" gradientUnits="userSpaceOnUse" xlink:href="#linearGradient3377"/><radialGradient id="radialGradient6355" cx="1103.64" cy="1424.447" r="194.406" fx="1103.64" fy="1424.447" gradientTransform="matrix(-1.4307499,-1.3605156e-7,-1.202713e-8,0.1264801,2674.7488,1244.2826)" gradientUnits="userSpaceOnUse" xlink:href="#linearGradient6349"/><linearGradient id="linearGradient3774-9" x1="1178.153" x2="1105.046" y1="1453.871" y2="1059.094" gradientTransform="matrix(1,0,0,0.5757573,-365.5337,605.49565)" gradientUnits="userSpaceOnUse" xlink:href="#linearGradient3768-4"/><linearGradient id="linearGradient3768-4"><stop style="stop-color:#c00;stop-opacity:1" id="stop3770-8" offset="0"/><stop style="stop-color:#ef2929;stop-opacity:1" id="stop3772-8" offset="1"/></linearGradient></defs><metadata id="metadata5826"/><g id="layer1"><g id="g3360" transform="matrix(0.1367863,0,0,0.1367863,-119.15519,-134.86962)"><rect style="color:#000;fill:none;stroke:#a40000;stroke-width:43.86404037;stroke-linecap:round;stroke-linejoin:round;stroke-miterlimit:4;stroke-opacity:1;stroke-dasharray:none;stroke-dashoffset:0;marker:none;visibility:visible;display:inline;overflow:visible;enable-background:accumulate" id="rect3860-36" width="204.699" height="116.971" x="951.522" y="1051.784"/><path style="color:#000;fill:none;stroke:#a40000;stroke-width:10.401409149999999;stroke-linecap:round;stroke-linejoin:round;stroke-miterlimit:4;stroke-opacity:1;stroke-dasharray:none;stroke-dashoffset:0;marker:none;visibility:visible;display:inline;overflow:visible;enable-background:accumulate" id="path3862-7" d="m 48.363636,33.272728 c 0,10.041541 -8.140277,18.181818 -18.181818,18.181818 C 20.140277,51.454546 12,43.314269 12,33.272728 12,23.231187 20.140277,15.09091 30.181818,15.09091 c 10.041541,0 18.181818,8.140277 18.181818,18.181818 z" transform="matrix(4.4229577,0,0,4.0208706,1044.6602,961.86255)"/><rect style="color:#000;fill:none;stroke:#ef2929;stroke-width:14.62134361000000027;stroke-linecap:round;stroke-linejoin:round;stroke-miterlimit:4;stroke-opacity:1;stroke-dasharray:none;stroke-dashoffset:0;marker:none;visibility:visible;display:inline;overflow:visible;enable-background:accumulate" id="rect3860-3" width="204.699" height="116.972" x="951.522" y="1051.783"/><path style="color:#000;fill:none;stroke:#ef2929;stroke-width:3.4671368600000001;stroke-linecap:round;stroke-linejoin:round;stroke-miterlimit:4;stroke-opacity:1;stroke-dasharray:none;stroke-dashoffset:0;marker:none;visibility:visible;display:inline;overflow:visible;enable-background:accumulate" id="path3862-6" d="m 48.363636,33.272728 c 0,10.041541 -8.140277,18.181818 -18.181818,18.181818 C 20.140277,51.454546 12,43.314269 12,33.272728 12,23.231187 20.140277,15.09091 30.181818,15.09091 c 10.041541,0 18.181818,8.140277 18.181818,18.181818 z" transform="matrix(4.4229575,0,0,4.0208705,1044.6602,961.86255)"/><g id="g3187" transform="matrix(1,0,0,-1,438.64043,2717.6642)"><rect id="rect3860-36-1" width="204.699" height="116.971" x="512.882" y="1329.59" style="color:#000;fill:none;stroke:#a40000;stroke-width:43.86404037;stroke-linecap:round;stroke-linejoin:round;stroke-miterlimit:4;stroke-opacity:1;stroke-dasharray:none;stroke-dashoffset:0;marker:none;visibility:visible;display:inline;overflow:visible;enable-background:accumulate"/><path id="path3862-7-6" d="m 48.363636,33.272728 c 0,10.041541 -8.140277,18.181818 -18.181818,18.181818 C 20.140277,51.454546 12,43.314269 12,33.272728 12,23.231187 20.140277,15.09091 30.181818,15.09091 c 10.041541,0 18.181818,8.140277 18.181818,18.181818 z" transform="matrix(4.4229577,0,0,4.0208706,606.01966,1239.6681)" style="color:#000;fill:none;stroke:#a40000;stroke-width:10.401409149999999;stroke-linecap:round;stroke-linejoin:round;stroke-miterlimit:4;stroke-opacity:1;stroke-dasharray:none;stroke-dashoffset:0;marker:none;visibility:visible;display:inline;overflow:visible;enable-background:accumulate"/><rect id="rect3860-3-8" width="204.699" height="116.971" x="512.882" y="1329.589" style="color:#000;fill:none;stroke:#ef2929;stroke-width:14.62134361000000027;stroke-linecap:round;stroke-linejoin:round;stroke-miterlimit:4;stroke-opacity:1;stroke-dasharray:none;stroke-dashoffset:0;marker:none;visibility:visible;display:inline;overflow:visible;enable-background:accumulate"/><path id="path3862-6-5" d="m 48.363636,33.272728 c 0,10.041541 -8.140277,18.181818 -18.181818,18.181818 C 20.140277,51.454546 12,43.314269 12,33.272728 12,23.231187 20.140277,15.09091 30.181818,15.09091 c 10.041541,0 18.181818,8.140277 18.181818,18.181818 z" transform="matrix(4.4229575,0,0,4.0208705,606.01966,1239.6681)" style="color:#000;fill:none;stroke:#ef2929;stroke-width:3.4671368600000001;stroke-linecap:round;stroke-linejoin:round;stroke-miterlimit:4;stroke-opacity:1;stroke-dasharray:none;stroke-dashoffset:0;marker:none;visibility:visible;display:inline;overflow:visible;enable-background:accumulate"/></g><path style="fill:none;stroke:#204a87;stroke-width:5.9999999600000002;stroke-linecap:round;stroke-linejoin:miter;stroke-opacity:1;stroke-miterlimit:4;stroke-dasharray:5.9999999600000002,11.99999993;stroke-dashoffset:2.9999999800000001" id="path3200" d="M 4.9999998,32 58.999999,32" transform="matrix(7.3106737,0,0,7.3106737,871.10471,985.98778)"/><path style="fill:none;stroke:#729fcf;stroke-width:14.62134731;stroke-linecap:round;stroke-linejoin:miter;stroke-miterlimit:4;stroke-opacity:1;stroke-dasharray:43.864041649999997,87.728083369999979;stroke-dashoffset:21.932020820000002" id="path3200-8" d="m 907.65808,1219.9293 394.77632,0"/></g></g></svg>