<svg xmlns="http://www.w3.org/2000/svg" xmlns:freecad="http://www.freecadweb.org/wiki/index.php?title=Svg_Namespace" width="1189" height="841" version="1.1" viewBox="0 0 1189 841"><g style="fill:none;stroke:#000;stroke-width:.35;stroke-linecap:miter;stroke-miterlimit:4" id="orientation-border"><path d="m 21,6,h 1162"/><path d="m 21,6,v 829"/><path d="m 1183,6,v 829"/><path d="m 21,835,h 508.55"/><path d="m 674.475,835,h 508.375"/><path d="m 93.625,6 v 4"/><path d="m 166.25,6 v 4"/><path d="m 238.875,6 v 4"/><path d="m 311.5,6 v 4"/><path d="m 384.125,6 v 4"/><path d="m 456.75,6 v 4"/><path d="m 529.375,6 v 4"/><path d="m 602,6 v 4"/><path d="m 674.625,6 v 4"/><path d="m 747.25,6 v 4"/><path d="m 819.875,6 v 4"/><path d="m 892.5,6 v 4"/><path d="m 965.125,6 v 4"/><path d="m 1037.75,6 v 4"/><path d="m 1100.375,6 v 4"/><path d="m 21,75.0833 h 4"/><path d="m 21,144.1666 h 4"/><path d="m 21,213.2499 h 4"/><path d="m 21,282.3332 h 4"/><path d="m 21,351.4165 h 4"/><path d="m 21,420.4998 h 4"/><path d="m 21,489.5831 h 4"/><path d="m 21,558.6664 h 4"/><path d="m 21,627.7497 h 4"/><path d="m 21,696.833 h 4"/><path d="m 21,765.9163 h 4"/><path d="m 1179,75.0833 h 4"/><path d="m 1179,144.1666 h 4"/><path d="m 1179,213.2499 h 4"/><path d="m 1179,282.3332 h 4"/><path d="m 1179,351.4165 h 4"/><path d="m 1179,420.4998 h 4"/><path d="m 1179,489.5831 h 4"/><path d="m 1179,558.6664 h 4"/><path d="m 1179,627.7497 h 4"/><path d="m 1179,696.833 h 4"/><path d="m 1179,765.9163 h 4"/><path d="m 93.625,831 v 4"/><path d="m 166.25,831 v 4"/><path d="m 238.875,831 v 4"/><path d="m 311.5,831 v 4"/><path d="m 384.125,831 v 4"/><path d="m 456.75,831 v 4"/><path d="m 529.375,831 v 4"/><path d="m 674.625,831 v 4"/><path d="m 747.25,831 v 4"/><path d="m 819.875,831 v 4"/><path d="m 892.5,831 v 4"/><path d="m 965.125,831 v 4"/><path d="m 1037.75,831 v 4"/><path d="m 1100.375,831 v 4"/></g><g style="font-size:3.5;text-anchor:start;fill:#000;font-family:tahoma" id="orientation-text" xml:space="preserve"><text x="57.313" y="9">1</text><text x="129.938" y="9">2</text><text x="196.813" y="9">3</text><text x="269.438" y="9">4</text><text x="342.063" y="9">5</text><text x="414.688" y="9">6</text><text x="487.313" y="9">7</text><text x="559.938" y="9">8</text><text x="632.563" y="9">9</text><text x="705.188" y="9">10</text><text x="777.813" y="9">11</text><text x="850.438" y="9">12</text><text x="923.063" y="9">13</text><text x="995.688" y="9">14</text><text x="1068.313" y="9">15</text><text x="1140.938" y="9">16</text><text x="22" y="40.542">A</text><text x="22" y="109.625">B</text><text x="22" y="178.708">C</text><text x="22" y="247.792">D</text><text x="22" y="316.875">E</text><text x="22" y="385.958">F</text><text x="22" y="455.041">G</text><text x="22" y="524.125">H</text><text x="22" y="593.208">I</text><text x="22" y="662.291">J</text><text x="22" y="731.375">K</text><text x="22" y="800.458">L</text><text x="1180" y="40.542">A</text><text x="1180" y="109.625">B</text><text x="1180" y="178.708">C</text><text x="1180" y="247.792">D</text><text x="1180" y="316.875">E</text><text x="1180" y="385.958">F</text><text x="1180" y="455.041">G</text><text x="1180" y="524.125">H</text><text x="1180" y="593.208">I</text><text x="1180" y="662.291">J</text><text x="1180" y="731.375">K</text><text x="1180" y="800.458">L</text><text x="57.313" y="834">1</text><text x="129.938" y="834">2</text><text x="196.813" y="834">3</text><text x="269.438" y="834">4</text><text x="342.063" y="834">5</text><text x="414.688" y="834">6</text><text x="487.313" y="834">7</text><text x="705.188" y="834">10</text><text x="777.813" y="834">11</text><text x="850.438" y="834">12</text><text x="923.063" y="834">13</text><text x="995.688" y="834">14</text><text x="1068.313" y="834">15</text><text x="1140.938" y="834">16</text></g><g style="fill:none;stroke:#000;stroke-width:.75;stroke-linecap:miter;stroke-miterlimit:4" id="drawing-border"><rect width="1154" height="821" x="25" y="10"/></g><g style="fill:none;stroke:#000;stroke-width:.5;stroke-linecap:miter;stroke-miterlimit:4" id="titleblock-structure"><rect width="180" height="56" x="999" y="775"/><path d="m 999,782 h 80"/><path d="m 999,789 h 80"/><path d="m 999,796 h 80"/><path d="m 999,803 h 130"/><path d="m 999,810 h 80"/><path d="m 999,817 h 80"/><path d="m 999,824 h 80"/><path d="m 1009,775 v 28"/><path d="m 1019,775 v 28"/><path d="m 1035,775 v 28"/><path d="m 1051,775 v 56"/><path d="m 1063,775 v 56"/><path d="m 1079,775 v 56"/><path d="m 1129,775 v 56"/><path d="m 1011,803 v 28"/><path d="m 1023,803 v 28"/><path d="m 1039,803 v 28"/><path d="m 1079,813 h 50"/><path d="m 1079,822 h 50"/><path d="m 1129,790 h 50"/><path d="m 1129,811 h 50"/><path d="m 1085,813 v 9"/><path d="m 1092,813 v 9"/><path d="m 1098,813 v 9"/><path d="m 1105,803 v 19"/><path d="m 1117,803 v 19"/></g><g style="font-size:5;text-anchor:start;fill:#000;font-family:HYSWLongFangSong" id="titleblock-text-non-editable" xml:space="preserv e"><text x="1001" y="808">设计</text><text x="1012" y="808">(签名)</text><text x="1024" y="808">(年月日)</text><text x="1040" y="808">标准化</text><text x="1052" y="808">(签名)</text><text x="1064" y="808">(年月日)</text><text x="1041.5" y="822">制图</text><text x="1001" y="822">审核</text><text x="1001" y="829">工艺</text><text x="1041.5" y="829">批准</text><text x="1084" y="809">阶段标记</text><text x="1107" y="809">重量</text><text x="1119" y="809">比例</text><text x="1080" y="828">共</text><text x="1099" y="828">张</text><text x="1105" y="828">第</text><text x="1124" y="828">张</text><text x="1000.5" y="801">标记</text><text x="1010.5" y="801">处数</text><text x="1023" y="801">分区</text><text x="1035" y="801">更</text><text x="1038" y="801">改</text><text x="1041" y="801">文</text><text x="1044" y="801">件</text><text x="1047" y="801">号</text><text x="1053.5" y="801">签名</text><text x="1064" y="801">(年月日)</text><text style="font-size:10" x="1130" y="830">A0</text><text style="font-size:1.8" x="1141.5" y="825">模板版本:0.0.2</text><text style="font-size:1.8" x="1141.5" y="827.5">模板设计:李峰</text><text style="font-size:1.8" x="1141.5" y="830">felix@95839.com</text><text x="1096" y="780">材料牌号</text></g><g style="font-size:5;text-anchor:start;fill:#000;font-family:HYSWLongFangSong" id="titleblock-text-editable" xml:space="preserve"><text x="993" y="815" freecad:editable="AUTHOR_NAME"><tspan>设计人</tspan></text><text x="1045" y="822" freecad:editable="DRAWING_NAME"><tspan>制图人</tspan></text><text x="1045" y="829" freecad:editable="APPROVER_NAME"><tspan>批准人</tspan></text><text x="1005" y="829" freecad:editable="CRAFTS_NAME"><tspan>评审人</tspan></text><text x="1005" y="822" freecad:editable="CHECKED_NAME"><tspan>审核人</tspan></text><text x="1077" y="828" freecad:editable="TOTAL_SHEETS"><tspan>99</tspan></text><text x="1102" y="828" freecad:editable="OF_SHEET"><tspan>1</tspan></text><text x="1111" y="819" freecad:editable="SCALE"><tspan>M x:x</tspan></text><text x="1099" y="819" freecad:editable="WEIGHT"><tspan>重量</tspan></text><text style="font-size:3.5;text-anchor:start;text-align:center;fill:#000;font-family:HYSWLongFangSong" x="1059" y="815" freecad:editable="DATE-1"><tspan>YYYY-MM-DD</tspan></text><text style="font-size:3.5;text-anchor:start;text-align:center;fill:#000;font-family:HYSWLongFangSong" x="1019" y="815" freecad:editable="DATE-2"><tspan>YYYY-MM-DD</tspan></text><text x="1123" y="779.5" freecad:editable="COMPANYNAME"><tspan>(单位名称/单位代号)</tspan></text><text x="1123" y="784.5" freecad:editable="COMPANYADDR"><tspan>(单位地址)</tspan></text><text x="1123" y="789.5" freecad:editable="COMPANYPHONE"><tspan>(单位电话/电邮)</tspan></text><text style="font-size:10" x="1100" y="795" text-anchor="middle" freecad:editable="MATERIALMARK"><tspan>(材料标记)</tspan></text><text x="1123" y="795" freecad:editable="PROJECT_TITLE"><tspan>(项目标题)</tspan></text><text x="1123" y="800" freecad:editable="SUBTITLE"><tspan>(子项目标题)</tspan></text><text x="1123" y="805" freecad:editable="PARTNAME"><tspan>(零件名称)</tspan></text><text x="1123" y="810" freecad:editable="VERSION"><tspan>(版本号)</tspan></text><text style="font-size:5;text-anchor:middle;text-align:center;fill:#000" x="1153" y="819" freecad:editable="PART_CODE_NAME"><tspan>(图样代号)</tspan></text></g><g id="project mark"><g style="stroke:#000;stroke-width:.5"><line x1="1156" x2="1166" y1="826" y2="826" stroke-dasharray="2.75 .25 .25 .25 2.75 .25 .25 .25"/><line x1="1168" x2="1178" y1="826" y2="826" stroke-dasharray="2.75 .25 .25 .25 2.75 .25 .25 .25"/><line x1="1173" x2="1173" y1="821" y2="831" stroke-dasharray="2.75 .25 .25 .25 2.75 .25 .25 .25"/></g><g fill="none" stroke="#000" stroke-width=".5"><polygon points="1157 824 1165 822 1165 830 1157 828"/><circle cx="1173" cy="826" r="2"/><circle cx="1173" cy="826" r="4"/></g></g><g style="stroke:#000;stroke-width:.5" id="center-line"><line x1="602" x2="602" y1="6" y2="15"/><line x1="602" x2="602" y1="826" y2="841"/><line x1="21" x2="30" y1="420.5" y2="420.5"/><line x1="1174" x2="1183" y1="420.5" y2="420.5"/></g><g id="cut-marker" fill="#000" stroke="#000" stroke-width="2"><line x1="0" x2="10" y1="0" y2="0"/><line x1="0" x2="0" y1="0" y2="10"/><line x1="1179" x2="1189" y1="0" y2="0"/><line x1="1189" x2="1189" y1="0" y2="10"/><line x1="0" x2="0" y1="831" y2="841"/><line x1="0" x2="10" y1="841" y2="841"/><line x1="1179" x2="1189" y1="841" y2="841"/><line x1="1189" x2="1189" y1="831" y2="841"/></g><g style="stroke:#000;stroke-width:.5" id="metric-marker"><line x1="551.75" x2="652.25" y1="836" y2="836"/><line x1="552" x2="552" y1="831" y2="836"/><line x1="562" x2="562" y1="831" y2="836"/><line x1="572" x2="572" y1="831" y2="836"/><line x1="582" x2="582" y1="831" y2="836"/><line x1="592" x2="592" y1="831" y2="836"/><line x1="612" x2="612" y1="831" y2="836"/><line x1="622" x2="622" y1="831" y2="836"/><line x1="632" x2="632" y1="831" y2="836"/><line x1="642" x2="642" y1="831" y2="836"/><line x1="652" x2="652" y1="831" y2="836"/></g><g style="fill:none;stroke:#000;stroke-width:.5" id="direction-marker"><polygon points="598 828 606 828 602 834"/></g><g id="bunding hole"><g fill="#BBB" stroke="#666" stroke-width=".5"><circle cx="10" cy="571.5" r="3"/><circle cx="10" cy="609.5" r="3"/><circle cx="10" cy="692.5" r="3"/><circle cx="10" cy="775.5" r="3"/><circle cx="10" cy="813.5" r="3"/><line x1="10" x2="10" y1="582" y2="592"/><line x1="10" x2="10" y1="785.5" y2="795.5"/><text style="font-size:5" x="7.5" y="628">装</text><text style="font-size:5" x="7.5" y="661">订</text><line x1="5" x2="15" y1="692.5" y2="692.5"/><line x1="10" x2="10" y1="687.5" y2="697.5"/><line x1="0" x2="20" y1="544" y2="544"/><text style="font-size:3.5" x="5" y="548">297折线</text></g></g></svg>