<svg xmlns="http://www.w3.org/2000/svg" xmlns:freecad="http://www.freecadweb.org/wiki/index.php?title=Svg_Namespace" width="841mm" height="594mm" version="1.1" viewBox="0 0 841 594"><g style="fill:none;stroke:#000;stroke-width:.35;stroke-linecap:miter;stroke-miterlimit:4" id="orientation-border"><path d="m 16,16,h 809"/><path d="m 16,16,v 562"/><path d="m 825,16,v 562"/><path d="m 16,578,h 337.323"/><path d="m 487.66666,578,h 337.323"/><path d="m 83.416667,16 v 4"/><path d="m 150.83333,16 v 4"/><path d="m 218.24996,16 v 4"/><path d="m 285.66662,16 v 4"/><path d="m 353.08328,16 v 4"/><path d="m 420.5,16 v 4"/><path d="m 487.91666,16 v 4"/><path d="m 555.33333,16 v 4"/><path d="m 622.74992,16 v 4"/><path d="m 690.16658,16 v 4"/><path d="m 757.58324,16 v 4"/><path d="m 16,72.2 h 4"/><path d="m 16,128.4 h 4"/><path d="m 16,184.6 h 4"/><path d="m 16,240.8 h 4"/><path d="m 16,297 h 4"/><path d="m 16,353.2 h 4"/><path d="m 16,409.4 h 4"/><path d="m 16,465.6 h 4"/><path d="m 16,521.8 h 4"/><path d="m 821,72.2 h 4"/><path d="m 821,128.4 h 4"/><path d="m 821,184.6 h 4"/><path d="m 821,240.8 h 4"/><path d="m 821,297 h 4"/><path d="m 821,353.2 h 4"/><path d="m 821,409.4 h 4"/><path d="m 821,465.6 h 4"/><path d="m 821,521.8 h 4"/><path d="m 83.416667,574 v 4"/><path d="m 150.83333,574 v 4"/><path d="m 218.24996,574 v 4"/><path d="m 285.66662,574 v 4"/><path d="m 353.08328,574 v 4"/><path d="m 487.91666,574 v 4"/><path d="m 555.33333,574 v 4"/><path d="m 622.74992,574 v 4"/><path d="m 690.16658,574 v 4"/><path d="m 757.58324,574 v 4"/></g><g style="font-size:3.5;text-anchor:start;fill:#000;font-family:tahoma" id="orientation-text" xml:space="preserve"><text x="47.2" y="19">1</text><text x="111.6" y="19">2</text><text x="179.6" y="19">3</text><text x="248.02" y="19">4</text><text x="316.44" y="19">5</text><text x="384.86" y="19">6</text><text x="453.28" y="19">7</text><text x="521.7" y="19">8</text><text x="588.12" y="19">9</text><text x="655.54" y="19">10</text><text x="722.96" y="19">11</text><text x="791.38" y="19">12</text><text x="17" y="44.1">A</text><text x="17" y="100.3">B</text><text x="17" y="156.5">C</text><text x="17" y="212.7">D</text><text x="17" y="268.9">E</text><text x="17" y="325.1">F</text><text x="17" y="381.3">G</text><text x="17" y="437.5">H</text><text x="17" y="493.7">I</text><text x="17" y="549.9">J</text><text x="822" y="44.1">A</text><text x="822" y="100.3">B</text><text x="822" y="156.5">C</text><text x="822" y="212.7">D</text><text x="822" y="268.9">E</text><text x="822" y="325.1">F</text><text x="822" y="381.3">G</text><text x="822" y="437.5">H</text><text x="822" y="493.7">I</text><text x="822" y="549.9">J</text><text x="47.2" y="577.5">1</text><text x="111.6" y="577.5">2</text><text x="179.6" y="577.5">3</text><text x="248.02" y="577.5">4</text><text x="316.44" y="577.5">5</text><text x="521.7" y="577.5">8</text><text x="588.12" y="577.5">9</text><text x="655.54" y="577.5">10</text><text x="722.96" y="577.5">11</text><text x="791.38" y="577.5">12</text></g><g style="fill:none;stroke:#000;stroke-width:.7;stroke-linecap:miter;stroke-miterlimit:4" id="drawing-border"><rect width="801" height="554" x="20" y="20"/></g><g style="fill:none;stroke:#000;stroke-width:.7;stroke-linecap:miter;stroke-miterlimit:4" id="titleblock-structure"><rect width="180" height="56" x="641" y="518"/><path d="m 641,525 h 80"/><path d="m 641,532 h 80"/><path d="m 641,539 h 80"/><path d="m 641,546 h 130"/><path d="m 641,553 h 80"/><path d="m 641,560 h 80"/><path d="m 641,567 h 80"/><path d="m 651,518 v 28"/><path d="m 661,518 v 28"/><path d="m 677,518 v 28"/><path d="m 693,518 v 56"/><path d="m 705,518 v 56"/><path d="m 721,518 v 56"/><path d="m 771,518 v 56"/><path d="m 653,546 v 28"/><path d="m 665,546 v 28"/><path d="m 681,546 v 28"/><path d="m 721,556 h 50"/><path d="m 721,565 h 50"/><path d="m 771,533 h 50"/><path d="m 771,554 h 50"/><path d="m 727.5,556 v 9"/><path d="m 734,556 v 9"/><path d="m 740.5,556 v 9"/><path d="m 747,546 v 19"/><path d="m 759,546 v 19"/></g><g style="font-size:5;text-anchor:start;fill:#000;font-family:HYSWLongFangSong" id="titleblock-text-non-editable" xml:space="preserv e"><text x="643" y="551">设计</text><text x="654" y="551">(签名)</text><text x="666" y="551">(年月日)</text><text x="682" y="551">标准化</text><text x="694" y="551">(签名)</text><text x="706" y="551">(年月日)</text><text x="683.5" y="565">制图</text><text x="643" y="565">审核</text><text x="643" y="572">工艺</text><text x="683.5" y="572">批准</text><text x="726" y="552">阶段标记</text><text x="749" y="552">重量</text><text x="761" y="552">比例</text><text x="722" y="571">共</text><text x="741" y="571">张</text><text x="747" y="571">第</text><text x="766" y="571">张</text><text x="642.5" y="544">标记</text><text x="652.5" y="544">处数</text><text x="665" y="544">分区</text><text x="677" y="544">更</text><text x="680" y="544">改</text><text x="683" y="544">文</text><text x="686" y="544">件</text><text x="689" y="544">号</text><text x="695.5" y="544">签名</text><text x="706" y="544">(年月日)</text><text style="font-size:10" x="773" y="573">A1</text><text style="font-size:1.8" x="783" y="567.5">模板版本:0.0.2</text><text style="font-size:1.8" x="783" y="570">模板设计:李峰</text><text style="font-size:1.8" x="783" y="572.5">felix@95839.com</text><text x="737" y="523">材料牌号</text></g><g style="font-size:5;text-anchor:start;fill:#000;font-family:HYSWLongFangSong" id="titleblock-text-editable" xml:space="preserve"><text x="635" y="558" freecad:editable="AUTHOR_NAME"><tspan>设计人</tspan></text><text x="687" y="565" freecad:editable="DRAWING_NAME"><tspan>制图人</tspan></text><text x="687" y="572" freecad:editable="APPROVER_NAME"><tspan>批准人</tspan></text><text x="646.5" y="572" freecad:editable="CRAFTS_NAME"><tspan>评审人</tspan></text><text x="647" y="565" freecad:editable="CHECKED_NAME"><tspan>审核人</tspan></text><text x="719" y="571" freecad:editable="TOTAL_SHEETS"><tspan>99</tspan></text><text x="744" y="571" freecad:editable="OF_SHEET"><tspan>1</tspan></text><text x="753" y="562" freecad:editable="SCALE"><tspan>M x:x</tspan></text><text x="741" y="562" freecad:editable="WEIGHT"><tspan>重量</tspan></text><text style="font-size:3.5;text-anchor:start;text-align:center;fill:#000;font-family:HYSWLongFangSong" x="701" y="558" freecad:editable="DATE-1"><tspan>YYYY-MM-DD</tspan></text><text style="font-size:3.5;text-anchor:start;text-align:center;fill:#000;font-family:HYSWLongFangSong" x="661" y="558" freecad:editable="DATE-2"><tspan>YYYY-MM-DD</tspan></text><text x="765" y="522.5" freecad:editable="COMPANYNAME"><tspan>(单位名称/单位代号)</tspan></text><text x="765" y="527.5" freecad:editable="COMPANYADDR"><tspan>(单位地址)</tspan></text><text x="765" y="532.5" freecad:editable="COMPANYPHONE"><tspan>(单位电话/电邮)</tspan></text><text style="font-size:9" x="742" y="537" text-anchor="middle" freecad:editable="MATERIALMARK"><tspan>(材料标记)</tspan></text><text x="765" y="538" freecad:editable="PROJECT_TITLE"><tspan>(项目标题)</tspan></text><text x="765" y="543" freecad:editable="SUBTITLE"><tspan>(子项目标题)</tspan></text><text x="765" y="548" freecad:editable="PARTNAME"><tspan>(零件名称)</tspan></text><text x="765" y="553" freecad:editable="VERSION"><tspan>(版本号)</tspan></text><text style="font-size:5;text-anchor:middle;text-align:center;fill:#000" x="795" y="562" freecad:editable="PART_CODE_NAME"><tspan>(图样代号)</tspan></text></g><g id="project mark"><g style="stroke:#000;stroke-width:.5mm"><line x1="798" x2="808" y1="569" y2="569" stroke-dasharray="2.75 .25 .25 .25 2.75 .25 .25 .25"/><line x1="810" x2="820" y1="569" y2="569" stroke-dasharray="2.75 .25 .25 .25 2.75 .25 .25 .25"/><line x1="815" x2="815" y1="564" y2="574" stroke-dasharray="2.75 .25 .25 .25 2.75 .25 .25 .25"/></g><g fill="none" stroke="#000" stroke-width="1.89"><polygon points="799 567 807 565 807 573 799 571"/><circle cx="815" cy="569" r="2"/><circle cx="815" cy="569" r="4"/></g></g><g style="stroke:#000;stroke-width:.5mm" id="center-line"><line x1="420.5" x2="420.5" y1="16" y2="25"/><line x1="420.5" x2="420.5" y1="565" y2="574"/><line x1="16" x2="25" y1="297" y2="297"/><line x1="816" x2="825" y1="297" y2="297"/></g><g id="cut-marker" fill="#000" stroke="#000" stroke-width="2"><line x1="0" x2="10" y1="0" y2="0"/><line x1="0" x2="0" y1="0" y2="10"/><line x1="831" x2="841" y1="0" y2="0"/><line x1="841" x2="841" y1="0" y2="10"/><line x1="0" x2="0" y1="584" y2="594"/><line x1="0" x2="10" y1="594" y2="594"/><line x1="831" x2="841" y1="594" y2="594"/><line x1="841" x2="841" y1="584" y2="594"/></g><g style="stroke:#000;stroke-width:.5mm" id="metric-marker"><line x1="420.5" x2="420.5" y1="574" y2="584"/><line x1="370.25" x2="470.75" y1="579" y2="579"/><line x1="370.5" x2="370.5" y1="574" y2="579"/><line x1="380.5" x2="380.5" y1="574" y2="579"/><line x1="390.5" x2="390.5" y1="574" y2="579"/><line x1="400.5" x2="400.5" y1="574" y2="579"/><line x1="410.5" x2="410.5" y1="574" y2="579"/><line x1="420.5" x2="420.5" y1="574" y2="579"/><line x1="430.5" x2="430.5" y1="574" y2="579"/><line x1="440.5" x2="440.5" y1="574" y2="579"/><line x1="450.5" x2="450.5" y1="574" y2="579"/><line x1="460.5" x2="460.5" y1="574" y2="579"/><line x1="470.5" x2="470.5" y1="574" y2="579"/></g><g style="fill:none;stroke:#000;stroke-width:.5" id="direction-marker"><polygon points="416.5 571 425 571 420.5 577"/></g></svg>