<svg xmlns="http://www.w3.org/2000/svg" xmlns:freecad="http://www.freecadweb.org/wiki/index.php?title=Svg_Namespace" width="297" height="210" version="1.1" viewBox="0 0 297 210"><g style="fill:none;stroke:#000;stroke-width:.25;stroke-linecap:miter;stroke-miterlimit:4" id="orienation-border"><path d="m 21,1 h 275"/><path d="m 21,1 v 208"/><path d="m 296,1 v 208"/><path d="m 21,209 h 45.8333"/><path d="m 250.1665,209 h 45.8333"/><path d="m 66.8333,1 v 4"/><path d="m 112.6666,1 v 4"/><path d="m 158.4999,1 v 4"/><path d="m 204.3332,1 v 4"/><path d="m 250.1665,1 v 4"/><path d="m 21,52 h 4"/><path d="m 21,104 h 4"/><path d="m 21,156 h 4"/><path d="m 292,52 h 4"/><path d="m 292,104 h 4"/><path d="m 292,156 h 4"/><path d="m 66.8333,205 v 4"/><path d="m 250.1665,205 v 4"/></g><g style="font-size:3.5;text-anchor:start;fill:#000;font-family:tahoma" id="orientation-text" xml:space="preserve"><text x="43.917" y="4.25">1</text><text x="88" y="4.25">2</text><text x="133" y="4.25">3</text><text x="177" y="4.25">4</text><text x="224" y="4.25">5</text><text x="268" y="4.25">6</text><text x="21.825" y="30.75">A</text><text x="21.825" y="80.25">B</text><text x="21.825" y="129.75">C</text><text x="21.825" y="179.25">D</text><text x="292.825" y="30.75">A</text><text x="292.825" y="80.25">B</text><text x="292.825" y="129.75">C</text><text x="292.825" y="179.25">D</text><text x="43.917" y="208.25">1</text><text x="268" y="208.25">6</text></g><g style="fill:none;stroke:#000;stroke-width:.5;stroke-linecap:miter;stroke-miterlimit:4" id="drawing-border"><rect width="267" height="200" x="25" y="5"/></g><g style="stroke:#000;stroke-width:.5" id="center-line"><line x1="158.5" x2="158.499" y1="1" y2="10"/><line x1="21" x2="30" y1="104" y2="104"/><line x1="287" x2="296" y1="104" y2="104"/><line x1="158.5" x2="158.499" y1="205" y2="210"/></g><g style="stroke:#000;stroke-width:.5" id="metric-mark"><path d="m 108.4999,210 h 100"/><path d="m 108.4999,205 v 5"/><path d="m 118.4999,205 v 5"/><path d="m 128.4999,205 v 5"/><path d="m 138.4999,205 v 5"/><path d="m 148.4999,205 v 5"/><path d="m 158.4999,205 v 5"/><path d="m 168.4999,205 v 5"/><path d="m 178.4999,205 v 5"/><path d="m 188.4999,205 v 5"/><path d="m 198.4999,205 v 5"/><path d="m 208.4999,205 v 5"/></g><g style="fill:none;stroke:#000;stroke-width:.5;stroke-linecap:miter;stroke-miterlimit:4" id="titleblock-structure"><rect width="180" height="56" x="112" y="149"/><path d="m 112,156 h 80"/><path d="m 112,163 h 80"/><path d="m 112,170 h 80"/><path d="m 112,177 h 130"/><path d="m 112,184 h 80"/><path d="m 112,191 h 80"/><path d="m 112,198 h 80"/><path d="m 122,149 v 28"/><path d="m 132,149 v 28"/><path d="m 148,149 v 28"/><path d="m 164,149 v 56"/><path d="m 176,149 v 56"/><path d="m 192,149 v 56"/><path d="m 242,149 v 56"/><path d="m 124,177 v 28"/><path d="m 136,177 v 28"/><path d="m 152,177 v 28"/><path d="m 192,187 h 50"/><path d="m 192,196 h 50"/><path d="m 242,164 h 50"/><path d="m 242,185 h 50"/><path d="m 198.5,187 v 9"/><path d="m 205,187 v 9"/><path d="m 211.5,187 v 9"/><path d="m 218,177 v 19"/><path d="m 230,177 v 19"/></g><g style="strock:black;font-size:5;text-anchor:start;font-family:HYSWLongFangSong" id="titleblock-text-non-editable" xml:space="preserve"><text x="113.5" y="175">标记</text><text x="123.5" y="175">处数</text><text x="136" y="175">分区</text><text x="148.25" y="175">更</text><text x="151.25" y="175">改</text><text x="154.25" y="175">文</text><text x="157.25" y="175">件</text><text x="160.25" y="175">号</text><text x="166.5" y="175">签名</text><text x="177" y="175">(年月日)</text><text x="114" y="182">设计</text><text x="125" y="182">(签名)</text><text x="137" y="182">(年月日)</text><text x="153" y="182">标准化</text><text x="165" y="182">(签名)</text><text x="177" y="182">(年月日)</text><text x="197" y="183">阶段标记</text><text x="220" y="183">重量</text><text x="232" y="183">比例</text><text x="114" y="196">审核</text><text x="154.5" y="196">制图</text><text x="114" y="203">工艺</text><text x="154.5" y="203">批准</text><text x="193" y="202">共</text><text x="213" y="202">张</text><text x="217" y="202">第</text><text x="237" y="202">张</text><text style="font-size:10;font-family:HYSWLongFangSong" x="244" y="204">A4</text><text style="font-size:1.8;font-family:HYSWLongFangSong" x="255" y="198.5">模板版本:0.0.2</text><text style="font-size:1.8;font-family:HYSWLongFangSong" x="255" y="201">模板设计:李峰</text><text style="font-size:1.8;font-family:HYSWLongFangSong" x="255" y="203.5">felix@95839.com</text><text style="font-family:HYSWLongFangSong" x="210" y="154">材料牌号</text></g><g id="project mark"><g style="stroke:#000;stroke-width:.5"><line x1="269" x2="279" y1="199.5" y2="199.5" stroke-dasharray="2.75 .25 .25 .25 2.75 .25 .25 .25"/><line x1="281" x2="291" y1="199.5" y2="199.5" stroke-dasharray="2.5 .25 .5 .25 3 .25 .5 .25"/><line x1="286" x2="286" y1="194.5" y2="204.5" stroke-dasharray="2.5 .25 .5 .25 3 .25 .5 .25"/></g><g fill="none" stroke="#000" stroke-width=".5"><polygon points="270 197.5 278 195.5 278 203.5 270 201.5"/><circle cx="286" cy="199.5" r="2"/><circle cx="286" cy="199.5" r="4"/></g></g><g style="font-size:5;text-anchor:start;text-align:center;strock:black;font-family:HYSWLongFangSong" id="titleblock-text-editable" xml:space="preserve"><text x="106" y="188.5" freecad:editable="AUTHOR_NAME"><tspan dx="106" dy="188.5" text-anchor="left">设计人</tspan></text><text style="font-size:5;text-anchor:start;text-align:center;fill:#000" x="157.5" y="196" freecad:editable="DRAWING_NAME"><tspan>制图人</tspan></text><text style="font-size:5;text-anchor:start;text-align:center;fill:#000" x="117.5" y="196" freecad:editable="CHECKED_NAME"><tspan>审核人</tspan></text><text style="font-size:5;text-anchor:start;text-align:center;fill:#000" x="157.5" y="203" freecad:editable="APPROVER_NAME"><tspan>批准人</tspan></text><text style="font-size:5;text-anchor:start;text-align:center;fill:#000" x="117.5" y="203" freecad:editable="CRAFTS_NAME"><tspan>评审人</tspan></text><text style="font-size:5;text-anchor:start;text-align:center;fill:#000" x="190" y="202" freecad:editable="TOTAL_SHEETS"><tspan>99</tspan></text><text style="font-size:5;text-anchor:start;text-align:center;fill:#000" x="214" y="202" freecad:editable="OF_SHEET"><tspan>1</tspan></text><text style="font-size:5;text-anchor:start;text-align:center;fill:#000" x="224" y="193" freecad:editable="SCALE"><tspan>M x:x</tspan></text><text style="font-size:5;text-anchor:start;text-align:center;fill:#000" x="212" y="193" freecad:editable="WEIGHT"><tspan>重量</tspan></text><text style="font-size:3.5;text-anchor:start;text-align:center;fill:#000" x="132" y="188.5" freecad:editable="DATE-1"><tspan>YYYY-MM-DD</tspan></text><text style="font-size:3.5;text-anchor:start;text-align:center;fill:#000" x="172" y="195.5" freecad:editable="DATE-2"><tspan>YYYY-MM-DD</tspan></text><text style="font-size:5;text-anchor:start;text-align:center;fill:#000" x="235.5" y="153" freecad:editable="COMPANYNAME"><tspan>(单位名称/单位代号)</tspan></text><text style="font-size:5;text-anchor:start;text-align:center;fill:#000" x="235.5" y="158" freecad:editable="COMPANYADDR"><tspan>(单位地址)</tspan></text><text style="font-size:5;text-anchor:start;text-align:center;fill:#000" x="235.5" y="163" freecad:editable="COMPANYPHONE"><tspan>(单位电话/电邮)</tspan></text><text style="font-size:10" x="215" y="168" text-anchor="middle" freecad:editable="MATERIALMARK"><tspan>(材料标记)</tspan></text><text style="font-size:5;text-anchor:start;text-align:center;fill:#000" x="235.5" y="168.5" freecad:editable="PROJECT_TITLE"><tspan>(项目标题)</tspan></text><text style="font-size:5;text-anchor:start;text-align:center;fill:#000" x="235.5" y="173.5" freecad:editable="SUBTITLE"><tspan>(子项目标题)</tspan></text><text style="font-size:5;text-anchor:start;text-align:center;fill:#000" x="235.5" y="178.5" freecad:editable="PARTNAME"><tspan>(零件名称)</tspan></text><text style="font-size:5;text-anchor:start;text-align:center;fill:#000" x="235.5" y="183.5" freecad:editable="VERSION"><tspan>(版本号)</tspan></text><text style="font-size:5;text-anchor:middle;text-align:center;fill:#000" x="267" y="192" freecad:editable="PART_CODE_NAME"><tspan>(图样代号)</tspan></text></g></svg>