<svg xmlns="http://www.w3.org/2000/svg" xmlns:svg="http://www.w3.org/2000/svg" xmlns:xlink="http://www.w3.org/1999/xlink" id="svg3052" width="64" height="64" version="1.1"><defs id="defs3054"><linearGradient id="linearGradient4032"><stop style="stop-color:#71b2f8;stop-opacity:1" id="stop4034" offset="0"/><stop style="stop-color:#002795;stop-opacity:1" id="stop4036" offset="1"/></linearGradient><radialGradient id="radialGradient3705" cx="148.883" cy="81.87" r="19.467" fx="148.883" fy="81.87" gradientTransform="matrix(1.6244669,-0.05136783,0.04345521,0.9993132,-102.99033,7.7040438)" gradientUnits="userSpaceOnUse" xlink:href="#linearGradient3377"/><linearGradient id="linearGradient3377"><stop id="stop3379" offset="0" style="stop-color:#4bff54;stop-opacity:1"/><stop id="stop3381" offset="1" style="stop-color:#00b800;stop-opacity:1"/></linearGradient><radialGradient id="radialGradient3703" cx="135.383" cy="97.37" r="19.467" fx="135.383" fy="97.37" gradientTransform="matrix(0.87904684,0.2250379,-0.41709097,2.0016728,56.73751,-127.99883)" gradientUnits="userSpaceOnUse" xlink:href="#linearGradient3206"/><linearGradient id="linearGradient3199"><stop id="stop3201" offset="0" style="stop-color:#faff2b;stop-opacity:1"/><stop id="stop3203" offset="1" style="stop-color:#fa0;stop-opacity:1"/></linearGradient><radialGradient id="radialGradient3692" cx="45.883" cy="28.87" r="19.467" fx="45.883" fy="28.87" gradientUnits="userSpaceOnUse" xlink:href="#linearGradient3377"/><linearGradient id="linearGradient3206"><stop id="stop3208" offset="0" style="stop-color:#faff2b;stop-opacity:1"/><stop id="stop3210" offset="1" style="stop-color:#fa0;stop-opacity:1"/></linearGradient><radialGradient id="radialGradient4030" cx="148.883" cy="81.87" r="19.467" fx="148.883" fy="81.87" gradientTransform="matrix(1.260164,-0.05136783,0.03370995,0.9993132,-43.139781,7.2044077)" gradientUnits="userSpaceOnUse" xlink:href="#linearGradient4032"/></defs><metadata id="metadata3057"/><g id="layer1"><g id="g3842" transform="matrix(-1,0,0,-1,48,68)"><path id="path3770-7" d="M 43,9 19,47" style="fill:none;stroke:#204a87;stroke-width:6;stroke-linecap:round;stroke-linejoin:miter;stroke-miterlimit:4;stroke-opacity:1;stroke-dasharray:none"/><path id="path3770-3-5" d="M 43,9 19,47" style="fill:none;stroke:#729fcf;stroke-width:2;stroke-linecap:round;stroke-linejoin:miter;stroke-miterlimit:4;stroke-opacity:1;stroke-dasharray:none"/><path style="fill:#d3d7cf;fill-opacity:1;fill-rule:nonzero;stroke:#2e3436;stroke-width:3.74162674;stroke-linecap:round;stroke-linejoin:round;stroke-miterlimit:4;stroke-opacity:1;stroke-dasharray:none;stroke-dashoffset:0" id="path3023-3" d="m 73.247149,12.613435 a 7.6248417,7.3409381 0 1 1 -15.249684,0 7.6248417,7.3409381 0 1 1 15.249684,0 z" transform="matrix(-0.51007852,0.12206732,-0.12678816,-0.52980525,54.071763,45.672324)"/></g><path style="fill:none;stroke:#204a87;stroke-width:6;stroke-linecap:round;stroke-linejoin:miter;stroke-miterlimit:4;stroke-opacity:1;stroke-dasharray:none" id="path3770" d="M 35,43 59,5.0000003"/><path style="fill:none;stroke:#729fcf;stroke-width:2;stroke-linecap:round;stroke-linejoin:miter;stroke-miterlimit:4;stroke-opacity:1;stroke-dasharray:none" id="path3770-3" d="M 35,43 59,5"/><path id="path3023" d="m 73.247149,12.613435 a 7.6248417,7.3409381 0 1 1 -15.249684,0 7.6248417,7.3409381 0 1 1 15.249684,0 z" transform="matrix(0.51007852,-0.12206732,0.12678816,0.52980525,-0.07176326,44.327674)" style="fill:#d3d7cf;fill-opacity:1;fill-rule:nonzero;stroke:#2e3436;stroke-width:3.74162674;stroke-linecap:round;stroke-linejoin:round;stroke-miterlimit:4;stroke-opacity:1;stroke-dasharray:none;stroke-dashoffset:0"/><path style="fill:none;stroke:#a40000;stroke-width:5.74972398;stroke-linecap:round;stroke-linejoin:miter;stroke-miterlimit:4;stroke-opacity:1;stroke-dasharray:5.74972398,17.24917195;stroke-dashoffset:10.34950331" id="path3801" d="m 51.102661,7.1381497 a 25.551331,26.200253 0 1 1 -51.102661,0 25.551331,26.200253 0 1 1 51.102661,0 z" transform="matrix(1.0566964,0,0,1.0305244,5.0000001,24.643963)"/><path style="fill:none;stroke:#ef2929;stroke-width:1.91657465999999999;stroke-linecap:round;stroke-linejoin:miter;stroke-miterlimit:4;stroke-opacity:1;stroke-dasharray:5.74972397999999973,17.24917195000000092;stroke-dashoffset:10.34950330999999935" id="path3801-6" d="m 51.102661,7.1381497 a 25.551331,26.200253 0 1 1 -51.102661,0 25.551331,26.200253 0 1 1 51.102661,0 z" transform="matrix(1.0566964,0,0,1.0305244,5,24.643963)"/></g></svg>