<svg xmlns="http://www.w3.org/2000/svg" xmlns:svg="http://www.w3.org/2000/svg" xmlns:xlink="http://www.w3.org/1999/xlink" id="svg3559" width="64" height="64" version="1.1" viewBox="0 0 64 64"><defs id="defs3561"><linearGradient id="linearGradient4383-1"><stop id="stop69725" offset="0" style="stop-color:#c4a000;stop-opacity:1"/><stop id="stop69727" offset="1" style="stop-color:#fce94f;stop-opacity:1"/></linearGradient><linearGradient id="linearGradient4393"><stop style="stop-color:#204a87;stop-opacity:1" id="stop4395" offset="0"/><stop style="stop-color:#3465a4;stop-opacity:1" id="stop4397" offset="1"/></linearGradient><linearGradient id="linearGradient4383"><stop style="stop-color:#3465a4;stop-opacity:1" id="stop4385" offset="0"/><stop style="stop-color:#729fcf;stop-opacity:1" id="stop4387" offset="1"/></linearGradient><linearGradient id="linearGradient4389" x1="20.244" x2="17.244" y1="37.588" y2="27.588" gradientTransform="translate(-1.243533,-2.588112)" gradientUnits="userSpaceOnUse" xlink:href="#linearGradient4383"/><linearGradient id="linearGradient4399" x1="48.714" x2="44.714" y1="45.586" y2="34.586" gradientTransform="translate(1.2856487,1.4142136)" gradientUnits="userSpaceOnUse" xlink:href="#linearGradient4393"/><linearGradient id="linearGradient4389-0" x1="27.244" x2="21.244" y1="54.588" y2="30.588" gradientTransform="translate(-1.243533,-2.588112)" gradientUnits="userSpaceOnUse" xlink:href="#linearGradient4383-3"/><linearGradient id="linearGradient4383-3"><stop style="stop-color:#3465a4;stop-opacity:1" id="stop4385-1" offset="0"/><stop style="stop-color:#729fcf;stop-opacity:1" id="stop4387-2" offset="1"/></linearGradient><linearGradient id="linearGradient4399-7" x1="48.714" x2="40.714" y1="45.586" y2="24.586" gradientTransform="translate(1.2856487,1.4142136)" gradientUnits="userSpaceOnUse" xlink:href="#linearGradient4393-9"/><linearGradient id="linearGradient4393-9"><stop style="stop-color:#204a87;stop-opacity:1" id="stop4395-8" offset="0"/><stop style="stop-color:#3465a4;stop-opacity:1" id="stop4397-1" offset="1"/></linearGradient><linearGradient id="linearGradient69042" x1="48.714" x2="44.714" y1="45.586" y2="34.586" gradientTransform="translate(-12.714351,-17.585786)" gradientUnits="userSpaceOnUse" xlink:href="#linearGradient4393"/><linearGradient id="linearGradient69056" x1="27.244" x2="22.244" y1="54.588" y2="40.588" gradientTransform="translate(-1.243533,-2.588112)" gradientUnits="userSpaceOnUse" xlink:href="#linearGradient4383"/><linearGradient id="linearGradient69709" x1="20.244" x2="17.244" y1="37.588" y2="27.588" gradientTransform="translate(21.756467,-5.588112)" gradientUnits="userSpaceOnUse" xlink:href="#linearGradient4383-1"/><linearGradient id="linearGradient69717" x1="50.714" x2="48.714" y1="25.586" y2="20.586" gradientTransform="translate(1.2856487,1.4142136)" gradientUnits="userSpaceOnUse" xlink:href="#linearGradient4383-1"/></defs><metadata id="metadata3564"/><g id="layer1" style="display:inline"><path id="path69052" d="m 9,35 0,-14 14,5 0,14 z" style="fill:url(#linearGradient4389);fill-opacity:1;fill-rule:nonzero;stroke:#0b1521;stroke-width:2;stroke-linejoin:round;stroke-miterlimit:4;stroke-dasharray:none"/><path style="fill:url(#linearGradient69056);fill-opacity:1;fill-rule:nonzero;stroke:#0b1521;stroke-width:2;stroke-linejoin:round;stroke-miterlimit:4;stroke-dasharray:none" id="path4381" d="M 9,49 9,35 37,45 37,59 Z"/><path style="fill:url(#linearGradient4399);fill-opacity:1;fill-rule:nonzero;stroke:#0b1521;stroke-width:2;stroke-linejoin:round;stroke-miterlimit:4;stroke-dasharray:none" id="path4391" d="M 37,59 37,45 55,28 55,41 Z"/><path style="fill:#729fcf;fill-opacity:1;fill-rule:nonzero;stroke:#0b1521;stroke-width:2;stroke-linejoin:round;stroke-miterlimit:4;stroke-dasharray:none" id="path4403" d="M 9,21 29,5 42,10 23,26 Z"/><path style="fill:none;stroke:#729fcf;stroke-width:2;stroke-linejoin:miter;stroke-miterlimit:4;stroke-dasharray:none" id="path4381-7" d="M 11.008035,47.60627 11,38 l 24,8 0.0081,10.184812 z"/><path style="fill:none;stroke:#3465a4;stroke-width:2;stroke-linejoin:miter;stroke-miterlimit:4;stroke-dasharray:none" id="path4391-0" d="M 39.005041,54.16825 39,46 53,33 l 0.0021,7.176847 z"/><path id="path69038" d="M 23,40 42,23 55,28 37,45 Z" style="fill:#729fcf;fill-opacity:1;fill-rule:nonzero;stroke:#0b1521;stroke-width:2;stroke-linejoin:round;stroke-miterlimit:4;stroke-dasharray:none"/><path id="path69040" d="m 23,40 0,-14 8,-7 0,14 z" style="fill:url(#linearGradient69042);fill-opacity:1;fill-rule:nonzero;stroke:#0b1521;stroke-width:2;stroke-linejoin:round;stroke-miterlimit:4;stroke-dasharray:none"/><path id="path69044" d="m 25,36 0,-9 4,-3.5 0,9 z" style="fill:none;stroke:#3465a4;stroke-width:2;stroke-linejoin:miter;stroke-miterlimit:4;stroke-dasharray:none"/><path id="path69048" d="M 11.008,33.60627 11,24 l 10,3 0,10 z" style="fill:none;stroke:#729fcf;stroke-width:2;stroke-linejoin:miter;stroke-miterlimit:4;stroke-dasharray:none"/><path style="fill:url(#linearGradient69709);fill-opacity:1;fill-rule:nonzero;stroke:#302b00;stroke-width:2;stroke-linejoin:round;stroke-miterlimit:4;stroke-dasharray:none" id="path69705" d="m 31,33 0,-14 13,5 0,14.5 z"/><path style="fill:none;stroke:#fce94f;stroke-width:2;stroke-linejoin:miter;stroke-miterlimit:4;stroke-dasharray:none" id="path69707" d="m 33,32 0,-10 9,3 0,10.5 z"/><path id="path69715" d="M 44,38.5 44,24 55,15 55,28 Z" style="fill:url(#linearGradient69717);fill-opacity:1;fill-rule:nonzero;stroke:#302b00;stroke-width:2;stroke-linejoin:round;stroke-miterlimit:4;stroke-dasharray:none"/><path id="path69719" d="m 46,34 0,-9 7,-6 0,8 z" style="fill:none;stroke:#fce94f;stroke-width:2;stroke-linejoin:miter;stroke-miterlimit:4;stroke-dasharray:none"/><path id="path69721" d="m 31,19 11,-9 13,5 -11,9 z" style="fill:#fce94f;fill-opacity:1;fill-rule:nonzero;stroke:#302b00;stroke-width:2;stroke-linejoin:round;stroke-miterlimit:4;stroke-dasharray:none"/></g><g id="layer2" style="display:none;opacity:.58800001"><path id="path68967" d="M 9,35 9,49" style="fill:#ef2929;fill-rule:evenodd;stroke:#ef2929;stroke-width:1px;stroke-linecap:butt;stroke-linejoin:miter;stroke-opacity:1"/><path id="path68971" d="M 9,35 37,45" style="fill:#ef2929;fill-rule:evenodd;stroke:#ef2929;stroke-width:1px;stroke-linecap:butt;stroke-linejoin:miter;stroke-opacity:1"/><path style="fill:#ef2929;fill-rule:evenodd;stroke:#ef2929;stroke-width:1px;stroke-linecap:butt;stroke-linejoin:miter;stroke-opacity:1" id="path68973" d="m 55,28 0,13"/><path style="fill:#ef2929;fill-rule:evenodd;stroke:#ef2929;stroke-width:1px;stroke-linecap:butt;stroke-linejoin:miter;stroke-opacity:1" id="path68977" d="M 37,45 55,28"/><path id="path68983" d="M 23,40 23,26" style="fill:#ef2929;fill-rule:evenodd;stroke:#ef2929;stroke-width:1px;stroke-linecap:butt;stroke-linejoin:miter;stroke-opacity:1"/><path id="path68985" d="m 29,5 13,5" style="fill:#ef2929;fill-rule:evenodd;stroke:#ef2929;stroke-width:1px;stroke-linecap:butt;stroke-linejoin:miter;stroke-opacity:1"/><path style="fill:#ef2929;fill-rule:evenodd;stroke:#ef2929;stroke-width:1px;stroke-linecap:butt;stroke-linejoin:miter;stroke-opacity:1" id="path68989" d="M 23,26 42,10"/><path style="fill:#ef2929;fill-rule:evenodd;stroke:#ef2929;stroke-width:1px;stroke-linecap:butt;stroke-linejoin:miter;stroke-opacity:1" id="path68993" d="M 19,13 29,5"/><path style="fill:#ef2929;fill-rule:evenodd;stroke:#ef2929;stroke-width:1px;stroke-linecap:butt;stroke-linejoin:miter;stroke-opacity:1" id="path68997" d="m 55,15 -9,8"/><path id="path69030" d="M 42,23 42,10" style="fill:#ef2929;fill-rule:evenodd;stroke:#ef2929;stroke-width:1px;stroke-linecap:butt;stroke-linejoin:miter;stroke-opacity:1"/><path style="fill:#ef2929;fill-rule:evenodd;stroke:#ef2929;stroke-width:1px;stroke-linecap:butt;stroke-linejoin:miter;stroke-opacity:1" id="path69034" d="m 42,23 14,5"/><path id="path69036" d="M 23,40 42,23" style="fill:#ef2929;fill-rule:evenodd;stroke:#ef2929;stroke-width:1px;stroke-linecap:butt;stroke-linejoin:miter;stroke-opacity:1"/><path id="path69711" d="m 23,10 19,0" style="fill:#ef2929;fill-rule:evenodd;stroke:#ef2929;stroke-width:1px;stroke-linecap:butt;stroke-linejoin:miter;stroke-opacity:1"/><path style="fill:#ef2929;fill-rule:evenodd;stroke:#ef2929;stroke-width:1px;stroke-linecap:butt;stroke-linejoin:miter;stroke-opacity:1" id="path69713" d="m 34,17 0,13"/></g></svg>