<svg xmlns="http://www.w3.org/2000/svg" xmlns:svg="http://www.w3.org/2000/svg" id="svg881" width="60" height="20.608" version="1.2" viewBox="0 0 45 15.456"><metadata id="metadata885"/><defs id="defs860"><clipPath id="clip1"><path id="path851" d="M 15 0 L 45 0 L 45 15.457031 L 15 15.457031 Z M 15 0"/></clipPath><clipPath id="clip2"><path id="path854" d="M 14 0 L 45 0 L 45 15.457031 L 14 15.457031 Z M 14 0"/></clipPath><clipPath id="clip3"><path id="path857" d="M 0 0 L 16 0 L 16 15.457031 L 0 15.457031 Z M 0 0"/></clipPath></defs><g id="surface320375"><g id="g864" clip-path="url(#clip1)" clip-rule="nonzero"><path style="stroke:none;fill-rule:nonzero;fill:#fff;fill-opacity:1" id="path862" d="M 15.085938 0.367188 L 44.632813 0.367188 L 44.632813 15.089844 L 15.085938 15.089844 Z M 15.085938 0.367188"/></g><g id="g868" clip-path="url(#clip2)" clip-rule="nonzero"><path style="fill:none;stroke-width:.733486;stroke-linecap:round;stroke-linejoin:round;stroke:#000;stroke-opacity:1;stroke-miterlimit:4" id="path866" d="M 15.085938 0.367188 L 44.632813 0.367188 L 44.632813 15.089844 L 15.085938 15.089844 Z M 15.085938 0.367188"/></g><g id="g872" clip-path="url(#clip3)" clip-rule="nonzero"><path style="fill-rule:nonzero;fill:#fff;fill-opacity:1;stroke-width:.73662;stroke-linecap:round;stroke-linejoin:round;stroke:#000;stroke-opacity:1;stroke-miterlimit:4" id="path870" d="M 0.367188 0.367188 L 15.085938 0.367188 L 15.085938 15.085938 L 0.367188 15.085938 Z M 0.367188 0.367188"/></g><path style="fill:none;stroke-width:.73662;stroke-linecap:round;stroke-linejoin:round;stroke:#000;stroke-opacity:1;stroke-miterlimit:4" id="path874" d="M 2.082031 11.617188 L 5.230469 3.769531"/><path style="fill-rule:nonzero;fill:#fff;fill-opacity:1;stroke-width:.73662;stroke-linecap:round;stroke-linejoin:round;stroke:#000;stroke-opacity:1;stroke-miterlimit:4" id="path876" d="M 11.4375 7.898438 C 11.4375 9.992188 9.738281 11.6875 7.644531 11.6875 C 5.554688 11.6875 3.855469 9.992188 3.855469 7.898438 C 3.855469 5.804688 5.554688 4.109375 7.644531 4.109375 C 9.738281 4.109375 11.4375 5.804688 11.4375 7.898438"/><path style="fill:none;stroke-width:.73662;stroke-linecap:round;stroke-linejoin:round;stroke:#000;stroke-opacity:1;stroke-miterlimit:4" id="path878" d="M 10.222656 11.617188 L 13.371094 3.769531"/></g></svg>