<svg xmlns="http://www.w3.org/2000/svg" xmlns:svg="http://www.w3.org/2000/svg" id="svg2718" width="60.214" height="7.897" version="1.2" viewBox="0 0 45.161 5.923"><metadata id="metadata2722"/><defs id="defs2687"><clipPath id="clip1"><path id="path2666" d="M 0 0 L 12 0 L 12 5.921875 L 0 5.921875 Z M 0 0"/></clipPath><clipPath id="clip2"><path id="path2669" d="M 2 0 L 7 0 L 7 5.921875 L 2 5.921875 Z M 2 0"/></clipPath><clipPath id="clip3"><path id="path2672" d="M 5 0 L 9 0 L 9 5.921875 L 5 5.921875 Z M 5 0"/></clipPath><clipPath id="clip4"><path id="path2675" d="M 11 0 L 34 0 L 34 5.921875 L 11 5.921875 Z M 11 0"/></clipPath><clipPath id="clip5"><path id="path2678" d="M 11 0 L 35 0 L 35 5.921875 L 11 5.921875 Z M 11 0"/></clipPath><clipPath id="clip6"><path id="path2681" d="M 33 0 L 45 0 L 45 5.921875 L 33 5.921875 Z M 33 0"/></clipPath><clipPath id="clip7"><path id="path2684" d="M 33 0 L 45.160156 0 L 45.160156 5.921875 L 33 5.921875 Z M 33 0"/></clipPath></defs><g id="surface775860"><g id="g2691" clip-path="url(#clip1)" clip-rule="nonzero"><path id="path2689" d="M 0.277344 0.277506 L 11.40625 0.277506 L 11.40625 11.408598 L 0.277344 11.408598 Z M 0.277344 0.277506" transform="matrix(1,0,0,0.506745,0,0)" style="fill-rule:nonzero;fill:#fff;fill-opacity:1;stroke-width:.557051;stroke-linecap:round;stroke-linejoin:round;stroke:#000;stroke-opacity:1;stroke-miterlimit:4"/></g><g id="g2695" clip-path="url(#clip2)" clip-rule="nonzero"><path id="path2693" d="M 5.9375 1.826917 L 3.136719 9.859187" transform="matrix(1,0,0,0.506745,0,0)" style="fill:none;stroke-width:.55698;stroke-linecap:round;stroke-linejoin:round;stroke:#000;stroke-opacity:1;stroke-miterlimit:4"/></g><g id="g2699" clip-path="url(#clip3)" clip-rule="nonzero"><path id="path2697" d="M 8.550781 1.826917 L 5.746094 9.859187" transform="matrix(1,0,0,0.506745,0,0)" style="fill:none;stroke-width:.55698;stroke-linecap:round;stroke-linejoin:round;stroke:#000;stroke-opacity:1;stroke-miterlimit:4"/></g><g id="g2703" clip-path="url(#clip4)" clip-rule="nonzero"><path id="path2701" d="M 11.40625 0.140625 L 33.753906 0.140625 L 33.753906 5.78125 L 11.40625 5.78125 Z M 11.40625 0.140625" style="stroke:none;fill-rule:nonzero;fill:#fff;fill-opacity:1"/></g><g id="g2707" clip-path="url(#clip5)" clip-rule="nonzero"><path id="path2705" d="M 11.40625 0.277506 L 33.753906 0.277506 L 33.753906 11.408598 L 11.40625 11.408598 Z M 11.40625 0.277506" transform="matrix(1,0,0,0.506745,0,0)" style="fill:none;stroke-width:.554681;stroke-linecap:round;stroke-linejoin:round;stroke:#000;stroke-opacity:1;stroke-miterlimit:4"/></g><g id="g2711" clip-path="url(#clip6)" clip-rule="nonzero"><path id="path2709" d="M 33.753906 0.140625 L 44.882813 0.140625 L 44.882813 5.78125 L 33.753906 5.78125 Z M 33.753906 0.140625" style="stroke:none;fill-rule:nonzero;fill:#fff;fill-opacity:1"/></g><g id="g2715" clip-path="url(#clip7)" clip-rule="nonzero"><path id="path2713" d="M 33.753906 0.277506 L 44.882813 0.277506 L 44.882813 11.408598 L 33.753906 11.408598 Z M 33.753906 0.277506" transform="matrix(1,0,0,0.506745,0,0)" style="fill:none;stroke-width:.557051;stroke-linecap:round;stroke-linejoin:round;stroke:#000;stroke-opacity:1;stroke-miterlimit:4"/></g></g></svg>