<svg xmlns="http://www.w3.org/2000/svg" xmlns:svg="http://www.w3.org/2000/svg" id="svg870" width="60" height="15.529" version="1.2" viewBox="0 0 45 11.647"><metadata id="metadata874"/><defs id="defs851"><clipPath id="clip1"><path id="path842" d="M 11 0 L 34 0 L 34 11.648438 L 11 11.648438 Z M 11 0"/></clipPath><clipPath id="clip2"><path id="path845" d="M 33 0 L 45 0 L 45 11.648438 L 33 11.648438 Z M 33 0"/></clipPath><clipPath id="clip3"><path id="path848" d="M 0 0 L 12 0 L 12 11.648438 L 0 11.648438 Z M 0 0"/></clipPath></defs><g id="surface49720"><g id="g855" clip-path="url(#clip1)" clip-rule="nonzero"><path id="path853" d="M 11.367188 0.277344 L 33.632813 0.277344 L 33.632813 11.371094 L 11.367188 11.371094 Z M 11.367188 0.277344" style="fill-rule:nonzero;fill:#fff;fill-opacity:1;stroke-width:.552709;stroke-linecap:round;stroke-linejoin:round;stroke:#000;stroke-opacity:1;stroke-miterlimit:4"/></g><g id="g859" clip-path="url(#clip2)" clip-rule="nonzero"><path id="path857" d="M 33.632813 0.277344 L 44.722656 0.277344 L 44.722656 11.367188 L 33.632813 11.367188 Z M 33.632813 0.277344" style="fill-rule:nonzero;fill:#fff;fill-opacity:1;stroke-width:.555071;stroke-linecap:round;stroke-linejoin:round;stroke:#000;stroke-opacity:1;stroke-miterlimit:4"/></g><g id="g863" clip-path="url(#clip3)" clip-rule="nonzero"><path id="path861" d="M 0.277344 0.277344 L 11.367188 0.277344 L 11.367188 11.367188 L 0.277344 11.367188 Z M 0.277344 0.277344" style="fill-rule:nonzero;fill:#fff;fill-opacity:1;stroke-width:.555071;stroke-linecap:round;stroke-linejoin:round;stroke:#000;stroke-opacity:1;stroke-miterlimit:4"/></g><path id="path865" d="M 1.753906 9.648438 L 9.890625 9.648438" style="fill:none;stroke-width:.555071;stroke-linecap:round;stroke-linejoin:round;stroke:#000;stroke-opacity:1;stroke-miterlimit:4"/><path id="path867" d="M 5.824219 9.621094 L 5.824219 2" style="fill:none;stroke-width:.555071;stroke-linecap:round;stroke-linejoin:round;stroke:#000;stroke-opacity:1;stroke-miterlimit:4"/></g></svg>