<svg xmlns="http://www.w3.org/2000/svg" xmlns:svg="http://www.w3.org/2000/svg" xmlns:xlink="http://www.w3.org/1999/xlink" id="svg2985" width="64" height="64" version="1.1"><defs id="defs2987"><linearGradient id="linearGradient3126"><stop id="stop3128" offset="0" style="stop-color:#c17d11;stop-opacity:1"/><stop id="stop3130" offset="1" style="stop-color:#e9b96e;stop-opacity:1"/></linearGradient><linearGradient id="linearGradient3120"><stop id="stop3122" offset="0" style="stop-color:#e9b96e;stop-opacity:1"/><stop id="stop3124" offset="1" style="stop-color:#c17d11;stop-opacity:1"/></linearGradient><linearGradient id="linearGradient3937"><stop style="stop-color:#be7328;stop-opacity:1" id="stop3939" offset="0"/><stop style="stop-color:#dc962d;stop-opacity:1" id="stop3941" offset="1"/></linearGradient><linearGradient id="linearGradient3929"><stop id="stop3931" offset="0" style="stop-color:#c88c3c;stop-opacity:1"/><stop id="stop3933" offset="1" style="stop-color:#ffff96;stop-opacity:1"/></linearGradient><linearGradient id="linearGradient3893"><stop style="stop-color:#505050;stop-opacity:1" id="stop3895" offset="0"/><stop style="stop-color:#aaa;stop-opacity:1" id="stop3897" offset="1"/></linearGradient><linearGradient id="linearGradient3873"><stop style="stop-color:#f0be6e;stop-opacity:1" id="stop3875" offset="0"/><stop style="stop-color:#c88228;stop-opacity:1" id="stop3877" offset="1"/></linearGradient><linearGradient id="linearGradient3863"><stop id="stop3865" offset="0" style="stop-color:#6e4b18;stop-opacity:1"/><stop id="stop3867" offset="1" style="stop-color:#c88228;stop-opacity:1"/></linearGradient><linearGradient id="linearGradient3979"><stop id="stop3981" offset="0" style="stop-color:#fff;stop-opacity:1"/><stop id="stop3983" offset="1" style="stop-color:#ff9600;stop-opacity:1"/></linearGradient><linearGradient id="linearGradient3971"><stop id="stop3973" offset="0" style="stop-color:#fff;stop-opacity:1"/><stop id="stop3975" offset="1" style="stop-color:#be7300;stop-opacity:1"/></linearGradient><marker id="Arrow1Send" orient="auto" refX="0" refY="0" style="overflow:visible"><path id="path4031" d="M 0.0,0.0 L 5.0,-5.0 L -12.5,0.0 L 5.0,5.0 L 0.0,0.0 z" transform="scale(0.2) rotate(180) translate(6,0)" style="fill-rule:evenodd;stroke:#000;stroke-width:1pt"/></marker><marker id="Arrow2Send" orient="auto" refX="0" refY="0" style="overflow:visible"><path id="path4049" d="M 8.7185878,4.0337352 L -2.2072895,0.016013256 L 8.7185884,-4.0017078 C 6.9730900,-1.6296469 6.9831476,1.6157441 8.7185878,4.0337352 z" transform="scale(0.3) rotate(180) translate(-2.3,0)" style="fill-rule:evenodd;stroke-width:.625;stroke-linejoin:round"/></marker><marker id="Arrow2Sstart" orient="auto" refX="0" refY="0" style="overflow:visible"><path id="path4046" d="M 8.7185878,4.0337352 L -2.2072895,0.016013256 L 8.7185884,-4.0017078 C 6.9730900,-1.6296469 6.9831476,1.6157441 8.7185878,4.0337352 z" transform="scale(0.3) translate(-2.3,0)" style="fill-rule:evenodd;stroke-width:.625;stroke-linejoin:round"/></marker><marker id="Arrow2Mstart" orient="auto" refX="0" refY="0" style="overflow:visible"><path id="path4040" d="M 8.7185878,4.0337352 L -2.2072895,0.016013256 L 8.7185884,-4.0017078 C 6.9730900,-1.6296469 6.9831476,1.6157441 8.7185878,4.0337352 z" transform="scale(0.6) translate(0,0)" style="fill-rule:evenodd;stroke-width:.625;stroke-linejoin:round"/></marker><linearGradient id="linearGradient3900"><stop style="stop-color:#fff;stop-opacity:1" id="stop3902" offset="0"/><stop style="stop-color:#a0a0a0;stop-opacity:1" id="stop3904" offset="1"/></linearGradient><linearGradient id="linearGradient3882"><stop style="stop-color:#fff;stop-opacity:1" id="stop3884" offset="0"/><stop style="stop-color:#960000;stop-opacity:1" id="stop3886" offset="1"/></linearGradient><linearGradient id="linearGradient3860"><stop style="stop-color:#1e76e3;stop-opacity:1" id="stop3862" offset="0"/><stop style="stop-color:#fff;stop-opacity:1" id="stop3864" offset="1"/></linearGradient><linearGradient id="linearGradient3866-5" x1="31.125" x2="30.114" y1="61.411" y2="12.161" gradientUnits="userSpaceOnUse" xlink:href="#linearGradient3860-6"/><linearGradient id="linearGradient3860-6"><stop style="stop-color:#5a9ff5;stop-opacity:1" id="stop3862-4" offset="0"/><stop style="stop-color:#fff;stop-opacity:1" id="stop3864-4" offset="1"/></linearGradient><linearGradient id="linearGradient3871" x1="38.908" x2="45.302" y1="51.47" y2="54.091" gradientUnits="userSpaceOnUse" xlink:href="#linearGradient3873"/><linearGradient id="linearGradient3891" x1="51.658" x2="45.427" y1="34.47" y2="32.216" gradientUnits="userSpaceOnUse" xlink:href="#linearGradient3863"/><linearGradient id="linearGradient3899" x1="51.658" x2="45.427" y1="34.47" y2="32.216" gradientUnits="userSpaceOnUse" xlink:href="#linearGradient3893"/><radialGradient id="radialGradient3903" cx="53.749" cy="4.917" r="3.287" fx="53.749" fy="4.917" gradientTransform="matrix(2.3303929,-1.4921636,1.0936999,1.7080907,-77.643882,78.644487)" gradientUnits="userSpaceOnUse" xlink:href="#linearGradient3882"/><radialGradient id="radialGradient3927" cx="15.125" cy="48.035" r="18.875" fx="15.125" fy="48.035" gradientTransform="matrix(2.7636523,-0.71644256,0.733044,2.8276918,-61.887066,-71.992203)" gradientUnits="userSpaceOnUse" xlink:href="#linearGradient3929"/><radialGradient id="radialGradient3943" cx="-14.308" cy="14.91" r="18.875" fx="-14.308" fy="14.91" gradientTransform="matrix(0.40097726,-0.37931652,0.11734116,0.12404187,14.422507,4.6205505)" gradientUnits="userSpaceOnUse" xlink:href="#linearGradient3937"/><linearGradient id="linearGradient3127" x1="58" x2="6" y1="38" y2="20" gradientTransform="matrix(0,7.3106737,7.3106737,0,900.34735,985.98777)" gradientUnits="userSpaceOnUse" xlink:href="#linearGradient3866"/><linearGradient id="linearGradient3866"><stop style="stop-color:#d3d7cf;stop-opacity:1" id="stop3868" offset="0"/><stop style="stop-color:#fff;stop-opacity:1" id="stop3870" offset="1"/></linearGradient><linearGradient id="linearGradient3927" x1="56" x2="53" y1="44" y2="39" gradientTransform="matrix(-0.68571822,0.21886538,0,-0.81681671,44.685845,43.692446)" gradientUnits="userSpaceOnUse" xlink:href="#linearGradient3120"/><linearGradient id="linearGradient3931" x1="6" x2="58" y1="18" y2="28" gradientTransform="matrix(0,-0.81681671,-0.68571822,0.21886538,39.200103,51.977903)" gradientUnits="userSpaceOnUse" xlink:href="#linearGradient3126"/></defs><metadata id="metadata2990"/><g id="layer1"><path id="rect3005" d="M 37,49 3,61 3,22 11,11 37,3.0000004 z" style="color:#000;fill:url(#linearGradient3931);fill-opacity:1;fill-rule:evenodd;stroke:#271903;stroke-width:2;stroke-linecap:butt;stroke-linejoin:round;stroke-miterlimit:4;stroke-opacity:1;stroke-dasharray:none;stroke-dashoffset:0;marker:none;visibility:visible;display:inline;overflow:visible;enable-background:accumulate"/><path style="fill:none;stroke:#e9b96e;stroke-width:2;stroke-linecap:butt;stroke-linejoin:miter;stroke-opacity:1" id="path3096" d="M 5,58.2 35,47.6 35,5.7000003 11,13.399999 l -6,8.6 z"/><path id="path3778" d="m 3,22 c 0,0.81682 2.599905,2.311916 5.342779,1.436454 0,0 -0.08565,-8.293724 2.657221,-12.436454 z" style="color:#000;fill:url(#linearGradient3927);fill-opacity:1;fill-rule:evenodd;stroke:#271903;stroke-width:1.95121026;stroke-linecap:butt;stroke-linejoin:round;stroke-miterlimit:4;stroke-opacity:1;stroke-dasharray:none;stroke-dashoffset:0;marker:none;visibility:visible;display:inline;overflow:visible;enable-background:accumulate"/><path style="fill:none;stroke:#e9b96e;stroke-width:2;stroke-linecap:butt;stroke-linejoin:miter;stroke-opacity:1" id="path3125" d="M 8.284146,16.002207 3.718331,22.730933"/><g id="g3961" transform="translate(0.437175,52.805243)" style="stroke-width:.5;stroke-miterlimit:4;stroke-dasharray:none"><path id="path3953" d="m 10.562825,-37.805243 c 0,0 0,12 0,18 0,4.465337 4,12 8,12 4.14201,0 0.375,-4.125 4,-4 3.625,0.125 5,5.625 10,6 m 0,0 c -1,-4.25 -1.659955,-7.439737 -2.5,-12.375 -1,-5.875 -1.5,-21.625 -1.5,-21.625" style="fill:none;stroke:#000;stroke-width:2;stroke-linecap:round;stroke-linejoin:miter;stroke-miterlimit:4;stroke-opacity:1;stroke-dasharray:none"/><path id="path3957" d="m 14.562825,-37.805243 c 0,0 0,11 0,15 0,3.752083 8.437825,9.944757 16.437825,9.944757" style="fill:none;stroke:#000;stroke-width:2;stroke-linecap:round;stroke-linejoin:miter;stroke-miterlimit:4;stroke-opacity:1;stroke-dasharray:none"/><path id="path3959" d="m 18.562825,-37.805243 c 0,0 -0.176777,11.525126 0,14 0.176776,2.474873 2.508081,6.28543 11.612081,6.28543" style="fill:none;stroke:#000;stroke-width:2;stroke-linecap:round;stroke-linejoin:miter;stroke-miterlimit:4;stroke-opacity:1;stroke-dasharray:none"/></g><path id="path3778-3" d="m 3,22 c 0,0.81682 2.599905,2.311916 5.342779,1.436454 0,0 -0.08565,-8.293724 2.657221,-12.436454 z" style="color:#000;fill:none;stroke:#271903;stroke-width:1.95121026;stroke-linecap:butt;stroke-linejoin:round;stroke-miterlimit:4;stroke-opacity:1;stroke-dasharray:none;stroke-dashoffset:0;marker:none;visibility:visible;display:inline;overflow:visible;enable-background:accumulate"/><g id="g3973" transform="matrix(-0.78031416,0.35176755,0.0870326,0.86674487,390.5768,-223.41788)" style="stroke:#271903;stroke-width:1"><g id="g3939" style="stroke-width:1"><rect id="rect3933" width="16.827" height="4.036" x="-253.633" y="375.181" transform="matrix(-0.71328835,0.7008707,0.71328836,0.70087068,0,0)" style="fill:#d3d7cf;fill-opacity:1;stroke:#2e3436;stroke-width:2.37886381;stroke-linecap:round;stroke-linejoin:round;stroke-miterlimit:1.89999998;stroke-opacity:1;stroke-dasharray:none"/><path style="fill:#fff;stroke:#271903;stroke-width:2.37868023;stroke-linecap:butt;stroke-linejoin:round;stroke-opacity:1" id="path3969" d="m 477.31119,113.47336 5.38951,17.33174 -17.6928,-5.799 -2.03543,-4 10.17717,-10 z"/><path style="fill:#e9b96e;stroke:#271903;stroke-width:2.37868023;stroke-linecap:butt;stroke-linejoin:round;stroke-opacity:1" id="path3843-5-6" d="m 451.40433,88.017513 -4.00089,3.931243 25.18722,24.748734 c 0.002,-3.68844 0.56098,-3.37983 4.72053,-3.22413 z"/><path style="fill:#c17d11;stroke:#271903;stroke-width:2.37868023;stroke-linecap:butt;stroke-linejoin:round;stroke-opacity:1" id="path3843-5-6-2" d="m 447.40344,91.948756 -4.0009,3.931244 25.18723,24.74874 c 0.0722,-3.7572 0.002,-3.68845 4.00089,-3.93125 z"/><path style="fill:#8f5902;stroke:#271903;stroke-width:2.37868023;stroke-linecap:butt;stroke-linejoin:round;stroke-opacity:1" id="path3843-5-6-9" d="m 443.40254,95.880002 -4.00089,3.93124 25.18722,24.748738 c 0.56118,-3.37983 0.0722,-3.75719 4.0009,-3.93124 z"/><path style="fill:#271903;stroke:#271903;stroke-width:1.18934011px;stroke-linecap:butt;stroke-linejoin:round;stroke-opacity:1" id="path3971" d="m 479.82216,122.31981 c -3.19428,0.31024 -5.19473,2.27586 -5.75708,5.65686 l 8.63562,2.82843 -2.87854,-8.48529 0,0"/><rect id="rect3935" width="16.827" height="6.053" x="-253.633" y="369.127" transform="matrix(-0.71328835,0.7008707,0.71328836,0.70087068,0,0)" style="fill:#c00;fill-opacity:1;stroke:#280000;stroke-width:2.37886381;stroke-linecap:round;stroke-linejoin:round;stroke-miterlimit:1.89999998;stroke-opacity:1;stroke-dasharray:none"/><path id="path3937" d="m 445.80571,86.447596 -2.1589,-2.121316 -9.00202,8.845293" style="fill:none;stroke:#ef2929;stroke-width:2.37868047;stroke-linecap:butt;stroke-linejoin:miter;stroke-opacity:1"/></g></g></g></svg>