<svg xmlns="http://www.w3.org/2000/svg" xmlns:svg="http://www.w3.org/2000/svg" id="svg3137" width="64" height="64" version="1.1"><defs id="defs3139"><pattern id="woodgrain" width="64" height="64" patternTransform="translate(-0.125,-0.5)" patternUnits="userSpaceOnUse"><g id="g3339" transform="translate(0.125,0.5) scale(0.03,0.03)"><path id="path4854" d="M 4,0 8,24 4,44 v 20" style="fill:none;fill-rule:evenodd;stroke:#000;stroke-width:1px;stroke-linecap:butt;stroke-linejoin:miter;stroke-opacity:1"/><path id="path4855" d="m 16,0 -4,8 v 28 l 4,16 v 12" style="fill:none;fill-rule:evenodd;stroke:#000;stroke-width:1px;stroke-linecap:butt;stroke-linejoin:miter;stroke-opacity:1"/><path id="path4856" d="m 20,0 v 16 l -4,12 4,8 v 28" style="fill:none;fill-rule:evenodd;stroke:#000;stroke-width:1px;stroke-linecap:butt;stroke-linejoin:miter;stroke-opacity:1"/><path id="path4857" d="M 24,64 28,44 24,28 28,12 V 0" style="fill:none;fill-rule:evenodd;stroke:#000;stroke-width:1px;stroke-linecap:butt;stroke-linejoin:miter;stroke-opacity:1"/><path id="path4858" d="m 36,0 c 0,0 0,16 0,16 l 4,4 v 8 l -8,4 v 8 l 4,12 v 12" style="fill:none;fill-rule:evenodd;stroke:#000;stroke-width:1px;stroke-linecap:butt;stroke-linejoin:miter;stroke-opacity:1"/><path id="path4859" d="m 44,0 v 36 l -4,4 v 4 l 4,20" style="fill:none;fill-rule:evenodd;stroke:#000;stroke-width:1px;stroke-linecap:butt;stroke-linejoin:miter;stroke-opacity:1"/><path id="path4860" d="m 48,0 4,20 v 8 l -4,12 v 8 l 4,16" style="fill:none;fill-rule:evenodd;stroke:#000;stroke-width:1px;stroke-linecap:butt;stroke-linejoin:miter;stroke-opacity:1"/><path id="path4861" d="m 56,0 4,16 v 16 l -8,4 v 8 l 4,8 v 12" style="fill:none;fill-rule:evenodd;stroke:#000;stroke-width:1px;stroke-linecap:butt;stroke-linejoin:miter;stroke-opacity:1"/></g></pattern></defs><metadata id="metadata3142"/><g id="layer1"><path id="path4839" d="M 4,0 8,24 4,44 v 20" style="fill:none;fill-rule:evenodd;stroke:#000;stroke-width:1px;stroke-linecap:butt;stroke-linejoin:miter;stroke-opacity:1"/><path id="path4841" d="m 16,0 -4,8 v 28 l 4,16 v 12" style="fill:none;fill-rule:evenodd;stroke:#000;stroke-width:1px;stroke-linecap:butt;stroke-linejoin:miter;stroke-opacity:1"/><path id="path4843" d="m 20,0 v 16 l -4,12 4,8 v 28" style="fill:none;fill-rule:evenodd;stroke:#000;stroke-width:1px;stroke-linecap:butt;stroke-linejoin:miter;stroke-opacity:1"/><path id="path4845" d="M 24,64 28,44 24,28 28,12 V 0" style="fill:none;fill-rule:evenodd;stroke:#000;stroke-width:1px;stroke-linecap:butt;stroke-linejoin:miter;stroke-opacity:1"/><path id="path4847" d="m 36,0 c 0,0 0,16 0,16 l 4,4 v 8 l -8,4 v 8 l 4,12 v 12" style="fill:none;fill-rule:evenodd;stroke:#000;stroke-width:1px;stroke-linecap:butt;stroke-linejoin:miter;stroke-opacity:1"/><path id="path4849" d="m 44,0 v 36 l -4,4 v 4 l 4,20" style="fill:none;fill-rule:evenodd;stroke:#000;stroke-width:1px;stroke-linecap:butt;stroke-linejoin:miter;stroke-opacity:1"/><path id="path4851" d="m 48,0 4,20 v 8 l -4,12 v 8 l 4,16" style="fill:none;fill-rule:evenodd;stroke:#000;stroke-width:1px;stroke-linecap:butt;stroke-linejoin:miter;stroke-opacity:1"/><path id="path4853" d="m 56,0 4,16 v 16 l -8,4 v 8 l 4,8 v 12" style="fill:none;fill-rule:evenodd;stroke:#000;stroke-width:1px;stroke-linecap:butt;stroke-linejoin:miter;stroke-opacity:1"/></g></svg>