<svg xmlns="http://www.w3.org/2000/svg" xmlns:svg="http://www.w3.org/2000/svg" xmlns:xlink="http://www.w3.org/1999/xlink" id="svg2160" width="64" height="64" version="1.1"><defs id="defs2162"><linearGradient id="linearGradient3020"><stop id="stop3022" offset="0" style="stop-color:#555753;stop-opacity:1"/><stop id="stop3024" offset="1" style="stop-color:#d3d7cf;stop-opacity:1"/></linearGradient><linearGradient id="linearGradient3841" x1="24.012" x2="22.6" y1="22.427" y2="19.585" gradientUnits="userSpaceOnUse" xlink:href="#linearGradient3827"/><linearGradient id="linearGradient3827"><stop style="stop-color:#d3d7cf;stop-opacity:1" id="stop3829" offset="0"/><stop style="stop-color:#fff;stop-opacity:1" id="stop3831" offset="1"/></linearGradient><linearGradient id="linearGradient3833" x1="32" x2="26" y1="-15" y2="13" gradientTransform="matrix(1,0,0,-1,0,-1)" gradientUnits="userSpaceOnUse" xlink:href="#linearGradient3020"/></defs><metadata id="metadata2165"/><g id="layer1" transform="translate(0,32)"><rect style="fill:none;stroke:#2e3436;stroke-width:5.99999952;stroke-linecap:round;stroke-linejoin:round;stroke-miterlimit:4;stroke-opacity:1;stroke-dasharray:5.99999988,11.99999978;stroke-dashoffset:7.79999985" id="rect4138-1" width="54" height="54" x="5" y="-27"/><path style="fill:url(#linearGradient3833);fill-opacity:1;fill-rule:evenodd;stroke:#2e3436;stroke-width:2;stroke-linecap:round;stroke-linejoin:round;stroke-opacity:1" id="path7047-7" d="m 13,17 0,-34 38,0 0,25.000001 -24,0 C 27,8.000001 27,17 19,17 c -4,0 -6,0 -6,0 z"/><path style="fill:none;stroke:#d3d7cf;stroke-width:2;stroke-linecap:round;stroke-linejoin:miter;stroke-opacity:1" id="path7047-4" d="m 15,15 0,-30 34,0 0,20.9999998 -24,0 C 25,5.9999998 25,15 20,15 c -4,0 -5,0 -5,0 z"/><path style="fill:url(#linearGradient3841);fill-opacity:1;stroke:#2e3436;stroke-width:.70814687;stroke-linecap:round;stroke-linejoin:round;stroke-miterlimit:4;stroke-opacity:1;stroke-dasharray:none;stroke-dashoffset:0" id="path7049-4" d="m 25.423312,21.006134 c 0,1.373371 -1.106012,2.486707 -2.470347,2.486707 -1.364336,0 -2.470348,-1.113336 -2.470348,-2.486707 0,-1.373371 1.106012,-2.486707 2.470348,-2.486707 1.364335,0 2.470347,1.113336 2.470347,2.486707 z" transform="matrix(2.8336091,0,0,2.8149673,-27.039729,-53.131581)"/><rect style="fill:none;stroke:#babdb6;stroke-width:2;stroke-linecap:round;stroke-linejoin:round;stroke-miterlimit:4;stroke-opacity:1;stroke-dasharray:5.9999998799999998,11.99999978;stroke-dashoffset:7.7999998499999998" id="rect4138-7" width="54" height="54" x="5" y="-27"/><path style="fill:none;stroke:#fff;stroke-width:.99140561;stroke-linecap:round;stroke-linejoin:round;stroke-miterlimit:4;stroke-opacity:1;stroke-dasharray:none;stroke-dashoffset:0" id="path7049-0" d="m 25.423312,21.006134 c 0,1.373371 -1.106012,2.486707 -2.470347,2.486707 -1.364336,0 -2.470348,-1.113336 -2.470348,-2.486707 0,-1.373371 1.106012,-2.486707 2.470348,-2.486707 1.364335,0 2.470347,1.113336 2.470347,2.486707 z" transform="matrix(2.0240063,0,0,2.0106911,-8.4569449,-36.236847)"/></g></svg>