<svg xmlns="http://www.w3.org/2000/svg" xmlns:svg="http://www.w3.org/2000/svg" xmlns:xlink="http://www.w3.org/1999/xlink" id="svg5821" width="64" height="64" version="1.1"><defs id="defs5823"><linearGradient id="linearGradient3036"><stop id="stop3038" offset="0" style="stop-color:#c4a000;stop-opacity:1"/><stop id="stop3040" offset="1" style="stop-color:#fce94f;stop-opacity:1"/></linearGradient><linearGradient id="linearGradient3024"><stop id="stop3026" offset="0" style="stop-color:#c4a000;stop-opacity:1"/><stop id="stop3028" offset="1" style="stop-color:#fce94f;stop-opacity:1"/></linearGradient><linearGradient id="linearGradient3905"><stop style="stop-color:#d3d7cf;stop-opacity:1" id="stop3907" offset="0"/><stop style="stop-color:#fff;stop-opacity:1" id="stop3909" offset="1"/></linearGradient><linearGradient id="linearGradient6349"><stop style="stop-color:#000;stop-opacity:1" id="stop6351" offset="0"/><stop style="stop-color:#000;stop-opacity:0" id="stop6353" offset="1"/></linearGradient><linearGradient id="linearGradient3377"><stop style="stop-color:#0019a3;stop-opacity:1" id="stop3379" offset="0"/><stop style="stop-color:#0069ff;stop-opacity:1" id="stop3381" offset="1"/></linearGradient><linearGradient id="linearGradient3383" x1="901.188" x2="1267.906" y1="1190.875" y2="1190.875" gradientTransform="matrix(-1,0,0,1,2199.356,0)" gradientUnits="userSpaceOnUse" xlink:href="#linearGradient3377"/><radialGradient id="radialGradient6355" cx="1103.64" cy="1424.447" r="194.406" fx="1103.64" fy="1424.447" gradientTransform="matrix(-1.4307499,-1.3605156e-7,-1.202713e-8,0.1264801,2674.7488,1244.2826)" gradientUnits="userSpaceOnUse" xlink:href="#linearGradient6349"/><linearGradient id="linearGradient3899" x1="35" x2="31" y1="50" y2="16" gradientUnits="userSpaceOnUse" xlink:href="#linearGradient3893"/><linearGradient id="linearGradient3893"><stop style="stop-color:#d3d7cf;stop-opacity:1" id="stop3895" offset="0"/><stop style="stop-color:#fff;stop-opacity:1" id="stop3897" offset="1"/></linearGradient><linearGradient id="linearGradient3033" x1="34.094" x2="33.892" y1="49.73" y2="16.104" gradientTransform="rotate(-15.814554,94.318805,-165.39495)" gradientUnits="userSpaceOnUse" xlink:href="#linearGradient3024"/><linearGradient id="linearGradient3911" x1="8.5" x2="5.5" y1="48.5" y2="39.5" gradientUnits="userSpaceOnUse" xlink:href="#linearGradient3905"/><linearGradient id="linearGradient3919" x1="9" x2="5" y1="50" y2="38" gradientUnits="userSpaceOnUse" xlink:href="#linearGradient3036"/><linearGradient id="linearGradient1033" x1="8.5" x2="5.5" y1="48.5" y2="39.5" gradientUnits="userSpaceOnUse" xlink:href="#linearGradient3905"/><linearGradient id="linearGradient1035" x1="9" x2="5" y1="50" y2="38" gradientUnits="userSpaceOnUse" xlink:href="#linearGradient3036"/><linearGradient id="linearGradient1037" x1="8.5" x2="5.5" y1="48.5" y2="39.5" gradientUnits="userSpaceOnUse" xlink:href="#linearGradient3905"/><linearGradient id="linearGradient1039" x1="9" x2="5" y1="50" y2="38" gradientUnits="userSpaceOnUse" xlink:href="#linearGradient3036"/><radialGradient id="radialGradient6355-9" cx="1103.64" cy="1424.447" r="194.406" fx="1103.64" fy="1424.447" gradientTransform="matrix(-1.4307499,-1.3605156e-7,-1.202713e-8,0.1264801,2674.7488,1244.2826)" gradientUnits="userSpaceOnUse" xlink:href="#linearGradient6349"/><linearGradient id="linearGradient3927" x1="19" x2="28" y1="39" y2="9" gradientTransform="translate(-104,-70)" gradientUnits="userSpaceOnUse" xlink:href="#linearGradient3036"/><linearGradient id="linearGradient3949" x1="26" x2="22" y1="53" y2="40" gradientTransform="translate(-52,-35)" gradientUnits="userSpaceOnUse" xlink:href="#linearGradient3036"/></defs><metadata id="metadata5826"/><g id="layer1"><g id="g1271"><g style="opacity:.5" id="g1245" transform="translate(50.675539,33.702155)"><path style="fill:none;stroke:#302b00;stroke-width:8;stroke-linecap:round;stroke-linejoin:miter;stroke-opacity:1" id="path3039-7" d="M -43,9 -3.040157,23.114211"/><path style="fill:none;stroke:#302b00;stroke-width:8;stroke-linecap:round;stroke-linejoin:miter;stroke-opacity:1" id="path3039-7-4" d="m -43,9 24.465679,-34.60391"/><path style="fill:none;stroke:url(#linearGradient3949);stroke-width:4;stroke-linecap:round;stroke-linejoin:miter;stroke-opacity:1" id="path3039-7-0" d="M -43,9 -3.040157,23.114211"/><path style="fill:url(#linearGradient3927);fill-opacity:1;stroke:url(#linearGradient3927);stroke-width:4;stroke-linecap:round;stroke-linejoin:miter;stroke-opacity:1" id="path3039-7-4-9" d="m -43,9 24.465679,-34.60391"/><path style="fill:none;stroke:#fce94f;stroke-width:2;stroke-linecap:round;stroke-linejoin:miter;stroke-opacity:1" id="path3039-7-0-4" d="M -43,8 -2.512907,22.276442"/><path style="fill:none;stroke:#fce94f;stroke-width:2;stroke-linecap:round;stroke-linejoin:miter;stroke-opacity:1" id="path3039-7-4-9-8" d="m -42,6 22.741893,-32.286786"/></g><g id="g1019" transform="translate(0,-0.57357204)"><circle style="fill:url(#linearGradient3911);fill-opacity:1;stroke:#302b00;stroke-width:1.5;stroke-linecap:round;stroke-linejoin:miter;stroke-miterlimit:4;stroke-dasharray:none;stroke-dashoffset:0;stroke-opacity:1" id="path3037" cx="7" cy="44" r="6" transform="matrix(1.3333333,0,0,1.3333331,1.6666669,-14.666655)"/><circle style="fill:url(#linearGradient3919);fill-opacity:1;stroke:#fce94f;stroke-width:1.99999964;stroke-linecap:round;stroke-linejoin:miter;stroke-miterlimit:4;stroke-dasharray:none;stroke-dashoffset:0;stroke-opacity:1" id="path3037-8" cx="7" cy="44" r="6" transform="translate(4)"/></g><g id="g1025" transform="translate(35.225475,8.9083601)"><circle id="path1021" cx="7" cy="44" r="6" transform="matrix(1.3333333,0,0,1.3333331,1.6666669,-14.666655)" style="fill:url(#linearGradient1037);fill-opacity:1;stroke:#302b00;stroke-width:1.5;stroke-linecap:round;stroke-linejoin:miter;stroke-miterlimit:4;stroke-dasharray:none;stroke-dashoffset:0;stroke-opacity:1"/><circle id="path1023" cx="7" cy="44" r="6" transform="translate(4)" style="fill:url(#linearGradient1039);fill-opacity:1;stroke:#fce94f;stroke-width:1.99999964;stroke-linecap:round;stroke-linejoin:miter;stroke-miterlimit:4;stroke-dasharray:none;stroke-dashoffset:0;stroke-opacity:1"/></g><g id="g1031" transform="translate(18.354306,-33.267178)"><circle style="fill:url(#linearGradient1033);fill-opacity:1;stroke:#302b00;stroke-width:1.5;stroke-linecap:round;stroke-linejoin:miter;stroke-miterlimit:4;stroke-dasharray:none;stroke-dashoffset:0;stroke-opacity:1" id="path1027" cx="7" cy="44" r="6" transform="matrix(1.3333333,0,0,1.3333331,1.6666669,-14.666655)"/><circle style="fill:url(#linearGradient1035);fill-opacity:1;stroke:#fce94f;stroke-width:1.99999964;stroke-linecap:round;stroke-linejoin:miter;stroke-miterlimit:4;stroke-dasharray:none;stroke-dashoffset:0;stroke-opacity:1" id="path1029" cx="7" cy="44" r="6" transform="translate(4)"/></g><g style="stroke:#302b00" id="g3024" transform="matrix(1.0698613,0,0,0.99404165,-50.600755,-11.067264)"><path style="color:#000;font-style:normal;font-variant:normal;font-weight:400;font-stretch:normal;font-size:medium;line-height:normal;font-family:sans-serif;text-indent:0;text-align:start;text-decoration:none;text-decoration-line:none;letter-spacing:normal;word-spacing:normal;text-transform:none;writing-mode:lr-tb;direction:ltr;baseline-shift:baseline;text-anchor:start;display:inline;overflow:visible;visibility:visible;fill:url(#linearGradient3033);fill-opacity:1;fill-rule:nonzero;stroke:#302b00;stroke-width:1.9393847;stroke-linecap:butt;stroke-linejoin:round;stroke-miterlimit:4;stroke-dasharray:none;stroke-dashoffset:0;stroke-opacity:1;enable-background:accumulate" id="path3770-1" d="m 84.507061,34.690068 2.04692,-3.436585 C 92,34 97,43 91.825155,50.852457 l -3.607584,-1.727811 c 1.409829,4.001548 1.917761,7.571141 1.955751,9.806886 l 0.03799,2.235745 1.765803,-1.371839 c 1.765802,-1.371838 4.865454,-3.213621 8.866995,-4.62345 L 97.236531,53.444176 C 105,46 98,30 89.624358,26.098604 l 2.046919,-3.436586 c -4.112628,1.042249 -7.713527,1.225354 -9.94355,1.061041 l -2.230023,-0.164314 1.206563,1.882607 c 1.206564,1.882605 2.760544,5.136088 3.802794,9.248716 z"/><path style="fill:none;stroke:#fce94f;stroke-width:1.9393847;stroke-linecap:butt;stroke-linejoin:miter;stroke-opacity:1" id="path3864" d="m 82.42256,26.464811 3.10796,6.506965"/><path style="fill:none;stroke:#fce94f;stroke-width:1.9393847;stroke-linecap:butt;stroke-linejoin:miter;stroke-opacity:1" id="path3864-4" d="M 91.228661,56.049545 90.744642,50.322929"/><path style="fill:none;stroke:#fce94f;stroke-width:1.9393847;stroke-linecap:round;stroke-linejoin:miter;stroke-opacity:1" id="path3866" d="M 82.121673,26.608365 C 100,35 97.513308,48 91.936325,53.148856"/><path style="fill:none;stroke:#fce94f;stroke-width:1.9393847;stroke-linecap:butt;stroke-linejoin:miter;stroke-opacity:1" id="path3868" d="M 86.55398,31.253483 85,28"/><path style="fill:none;stroke:#fce94f;stroke-width:1.9393847;stroke-linecap:butt;stroke-linejoin:miter;stroke-opacity:1" id="path3868-8" d="M 94.626431,49.541142 90.166916,58.93721"/><path style="color:#000;font-style:normal;font-variant:normal;font-weight:400;font-stretch:normal;font-size:medium;line-height:normal;font-family:sans-serif;text-indent:0;text-align:start;text-decoration:none;text-decoration-line:none;letter-spacing:normal;word-spacing:normal;text-transform:none;writing-mode:lr-tb;direction:ltr;baseline-shift:baseline;text-anchor:start;display:inline;overflow:visible;visibility:visible;fill:none;stroke:#302b00;stroke-width:1.9393847;stroke-linecap:butt;stroke-linejoin:round;stroke-miterlimit:4;stroke-dasharray:none;stroke-dashoffset:0;stroke-opacity:1;enable-background:accumulate" id="path3770-9" d="m 84.507061,34.690068 2.04692,-3.436585 C 92,34 97,43 91.825155,50.852457 l -3.607584,-1.727811 c 1.409829,4.001548 1.917761,7.571141 1.955751,9.806886 l 0.03799,2.235745 1.765803,-1.371839 c 1.765802,-1.371838 4.865454,-3.213621 8.866995,-4.62345 L 97.236531,53.444176 C 105,46 98,30 89.624358,26.098604 l 2.046919,-3.436586 c -4.112628,1.042249 -7.713527,1.225354 -9.94355,1.061041 l -2.230023,-0.164314 1.206563,1.882607 c 1.206564,1.882605 2.760544,5.136088 3.802794,9.248716 z"/></g></g></g></svg>