<svg xmlns="http://www.w3.org/2000/svg" xmlns:svg="http://www.w3.org/2000/svg" xmlns:xlink="http://www.w3.org/1999/xlink" id="svg5821" width="64" height="64" version="1.1"><defs id="defs5823"><linearGradient id="linearGradient3022"><stop id="stop3024" offset="0" style="stop-color:#c4a000;stop-opacity:1"/><stop id="stop3026" offset="1" style="stop-color:#fce94f;stop-opacity:1"/></linearGradient><linearGradient id="linearGradient3016"><stop id="stop3018" offset="0" style="stop-color:#c4a000;stop-opacity:1"/><stop id="stop3020" offset="1" style="stop-color:#fce94f;stop-opacity:1"/></linearGradient><linearGradient id="linearGradient3010"><stop id="stop3012" offset="0" style="stop-color:#c4a000;stop-opacity:1"/><stop id="stop3014" offset="1" style="stop-color:#fce94f;stop-opacity:1"/></linearGradient><linearGradient id="linearGradient6349"><stop style="stop-color:#000;stop-opacity:1" id="stop6351" offset="0"/><stop style="stop-color:#000;stop-opacity:0" id="stop6353" offset="1"/></linearGradient><linearGradient id="linearGradient3377"><stop style="stop-color:#0019a3;stop-opacity:1" id="stop3379" offset="0"/><stop style="stop-color:#0069ff;stop-opacity:1" id="stop3381" offset="1"/></linearGradient><linearGradient id="linearGradient3383" x1="901.188" x2="1267.906" y1="1190.875" y2="1190.875" gradientTransform="matrix(-1,0,0,1,2199.356,0)" gradientUnits="userSpaceOnUse" xlink:href="#linearGradient3377"/><radialGradient id="radialGradient6355" cx="1103.64" cy="1424.447" r="194.406" fx="1103.64" fy="1424.447" gradientTransform="matrix(-1.4307499,-1.3605156e-7,-1.202713e-8,0.1264801,2674.7488,1244.2826)" gradientUnits="userSpaceOnUse" xlink:href="#linearGradient6349"/><linearGradient id="linearGradient3899" x1="35" x2="31" y1="50" y2="16" gradientUnits="userSpaceOnUse" xlink:href="#linearGradient3893"/><linearGradient id="linearGradient3893"><stop style="stop-color:#d3d7cf;stop-opacity:1" id="stop3895" offset="0"/><stop style="stop-color:#fff;stop-opacity:1" id="stop3897" offset="1"/></linearGradient><linearGradient id="linearGradient4113" x1="36.46" x2="28.485" y1="33.777" y2="35.589" gradientTransform="matrix(0,1,-1,0,64,3.24e-6)" gradientUnits="userSpaceOnUse" xlink:href="#linearGradient3022"/><linearGradient id="linearGradient3886" x1="39.778" x2="19.778" y1="63.111" y2="3.111" gradientUnits="userSpaceOnUse" xlink:href="#linearGradient3010"/><linearGradient id="linearGradient3894" x1="21.2" x2="44" y1="4.4" y2="59.6" gradientUnits="userSpaceOnUse" xlink:href="#linearGradient3016"/></defs><metadata id="metadata5826"/><g id="layer1"><path style="font-size:medium;font-style:normal;font-variant:normal;font-weight:400;font-stretch:normal;text-indent:0;text-align:start;text-decoration:none;line-height:normal;letter-spacing:normal;word-spacing:normal;text-transform:none;direction:ltr;block-progression:tb;writing-mode:lr-tb;text-anchor:start;baseline-shift:baseline;color:#000;fill:url(#linearGradient4113);fill-opacity:1;fill-rule:nonzero;stroke:#2e3436;stroke-width:2;stroke-linecap:butt;stroke-linejoin:round;stroke-miterlimit:4;stroke-opacity:1;stroke-dasharray:none;stroke-dashoffset:0;visibility:visible;display:inline;overflow:visible;enable-background:accumulate;font-family:sans-serif" id="path3770-1" d="m 43,25.000003 0,4 -21.999999,0 0,-4 c -3,3 -6,5 -8,6 l -2,1 2,0.999997 c 2,1 5,3 8,6 l 0,-4 L 43,35 l 0,4 c 3,-3 6,-5 8,-6 l 2,-0.999997 -2,-1 c -2,-1 -5,-3 -8,-6 z"/><path style="fill:none;stroke:#fce94f;stroke-width:2;stroke-linecap:butt;stroke-linejoin:miter;stroke-opacity:1" id="path3864" d="m 49,31.000003 -6,-4"/><path style="fill:none;stroke:#fce94f;stroke-width:2;stroke-linecap:butt;stroke-linejoin:miter;stroke-opacity:1" id="path3864-4" d="m 15.000001,31.000003 6,-4"/><path style="fill:none;stroke:#fce94f;stroke-width:2;stroke-linecap:round;stroke-linejoin:miter;stroke-opacity:1" id="path3866" d="m 51,31.000003 -37.999999,0"/><path style="fill:none;stroke:#fce94f;stroke-width:2;stroke-linecap:butt;stroke-linejoin:miter;stroke-opacity:1" id="path3868" d="m 43,29.000003 3,2"/><path style="fill:none;stroke:#fce94f;stroke-width:2;stroke-linecap:butt;stroke-linejoin:miter;stroke-opacity:1" id="path3868-8" d="m 21.000001,29.000003 -3,2"/><path style="font-size:medium;font-style:normal;font-variant:normal;font-weight:400;font-stretch:normal;text-indent:0;text-align:start;text-decoration:none;line-height:normal;letter-spacing:normal;word-spacing:normal;text-transform:none;direction:ltr;block-progression:tb;writing-mode:lr-tb;text-anchor:start;baseline-shift:baseline;color:#000;fill:none;stroke:#302b00;stroke-width:2;stroke-linecap:butt;stroke-linejoin:round;stroke-miterlimit:4;stroke-opacity:1;stroke-dasharray:none;stroke-dashoffset:0;visibility:visible;display:inline;overflow:visible;enable-background:accumulate;font-family:sans-serif" id="path3770-9" d="m 43,25.000003 0,4 -21.999999,0 0,-4 c -3,3 -6,5 -8,6 l -2,1 2,0.999997 c 2,1 5,3 8,6 l 0,-4 L 43,35 l 0,4 c 3,-3 6,-5 8,-6 l 2,-0.999997 -2,-1 c -2,-1 -5,-3 -8,-6 z"/><path style="fill:none;stroke:#302b00;stroke-width:9.2307691599999995;stroke-linecap:round;stroke-linejoin:miter;stroke-miterlimit:4;stroke-opacity:1;stroke-dasharray:none;stroke-dashoffset:0" id="path3048" d="M 62,32 A 30,30 0 1 1 2,32 30,30 0 1 1 62,32 z" transform="matrix(0.86666667,0,0,0.86666667,4.2666666,4.2666666)"/><path style="fill:none;stroke:#d3d7cf;stroke-width:2.3076922899999999;stroke-linecap:round;stroke-linejoin:miter;stroke-miterlimit:4;stroke-opacity:1;stroke-dasharray:none;stroke-dashoffset:0" id="path3048-0" d="M 62,32 A 30,30 0 1 1 2,32 30,30 0 1 1 62,32 z" transform="matrix(0.86666667,0,0,0.86666667,4.266666,4.2666665)"/><path style="fill:none;stroke:url(#linearGradient3894);stroke-width:2.3999999999999999;stroke-linecap:round;stroke-linejoin:miter;stroke-miterlimit:4;stroke-opacity:1;stroke-dasharray:none;stroke-dashoffset:0" id="path3048-7" d="M 62,32 A 30,30 0 1 1 2,32 30,30 0 1 1 62,32 z" transform="matrix(0.83333334,0,0,0.83333333,5.3333329,5.3333335)"/><path style="fill:none;stroke:url(#linearGradient3886);stroke-width:2.2222223300000001;stroke-linecap:round;stroke-linejoin:miter;stroke-miterlimit:4;stroke-opacity:1;stroke-dasharray:none;stroke-dashoffset:0" id="path3048-7-4" d="M 62,32 A 30,30 0 1 1 2,32 30,30 0 1 1 62,32 z" transform="matrix(0.9,0,0,0.9,3.2,3.2)"/></g></svg>