<svg xmlns="http://www.w3.org/2000/svg" xmlns:svg="http://www.w3.org/2000/svg" id="svg2" width="32mm" height="18mm" version="1.1" viewBox="0 0 113.386 63.78"><title id="title4147">Parallelism</title><defs id="defs4"><marker id="Arrow1Sstart" orient="auto" refX="0" refY="0" style="overflow:visible"><path id="path1142" d="M 0,0 5,-5 -12.5,0 5,5 Z" transform="matrix(0.2,0,0,0.2,1.2,0)" style="fill:#000;fill-opacity:1;fill-rule:evenodd;stroke:#000;stroke-width:1.00000003pt;stroke-opacity:1"/></marker><marker id="marker1110" orient="auto" refX="0" refY="0" style="overflow:visible"><path id="path1108" d="M 5.77,0 -2.88,5 V -5 Z" transform="scale(-0.8)" style="fill:#000;fill-opacity:1;fill-rule:evenodd;stroke:#000;stroke-width:1.00000003pt;stroke-opacity:1"/></marker><marker id="TriangleInL" orient="auto" refX="0" refY="0" style="overflow:visible"><path id="path957" d="M 5.77,0 -2.88,5 V -5 Z" transform="scale(-0.8)" style="fill:#000;fill-opacity:1;fill-rule:evenodd;stroke:#000;stroke-width:1.00000003pt;stroke-opacity:1"/></marker><marker id="Arrow1Sstart-2" orient="auto" refX="0" refY="0" style="overflow:visible"><path id="path1142-6" d="M 0,0 5,-5 -12.5,0 5,5 Z" transform="matrix(0.2,0,0,0.2,1.2,0)" style="fill:#000;fill-opacity:1;fill-rule:evenodd;stroke:#000;stroke-width:1.00000003pt;stroke-opacity:1"/></marker></defs><metadata id="metadata7"/><g id="layer2" transform="translate(0,38.976377)"><circle id="path844" cx="3.53" cy="-5.714" r="0" style="fill:#000;stroke:none"/><circle id="path846" cx="3.758" cy="-5.372" r="0" style="fill:#000;stroke:none"/><circle id="path848" cx="3.872" cy="-5.144" r="0" style="fill:#000;stroke:none"/><path id="path5125-4" d="M 1.4095915,-1.3530551 15.58457,23.396945 46.409585,-29.703064" style="fill:none;stroke:#000;stroke-width:.93749994;stroke-linecap:round;stroke-linejoin:round;stroke-miterlimit:10;stroke-dasharray:none;stroke-opacity:1"/><path style="fill:none;stroke:#000;stroke-width:.93749988px;stroke-linecap:butt;stroke-linejoin:miter;stroke-opacity:1" id="path12128" d="M 46.409585,-29.703064 H 108.13332"/></g></svg>