<svg xmlns="http://www.w3.org/2000/svg" xmlns:svg="http://www.w3.org/2000/svg" id="svg2" width="34mm" height="20mm" version="1.1" viewBox="0 0 120.472 70.866"><title id="title4147">Parallelism</title><defs id="defs4"><marker id="Arrow1Sstart" orient="auto" refX="0" refY="0" style="overflow:visible"><path id="path1142" d="M 0,0 5,-5 -12.5,0 5,5 Z" transform="matrix(0.2,0,0,0.2,1.2,0)" style="fill:#000;fill-opacity:1;fill-rule:evenodd;stroke:#000;stroke-width:1.00000003pt;stroke-opacity:1"/></marker><marker id="marker1110" orient="auto" refX="0" refY="0" style="overflow:visible"><path id="path1108" d="M 5.77,0 -2.88,5 V -5 Z" transform="scale(-0.8)" style="fill:#000;fill-opacity:1;fill-rule:evenodd;stroke:#000;stroke-width:1.00000003pt;stroke-opacity:1"/></marker><marker id="TriangleInL" orient="auto" refX="0" refY="0" style="overflow:visible"><path id="path957" d="M 5.77,0 -2.88,5 V -5 Z" transform="scale(-0.8)" style="fill:#000;fill-opacity:1;fill-rule:evenodd;stroke:#000;stroke-width:1.00000003pt;stroke-opacity:1"/></marker><marker id="Arrow1Sstart-2" orient="auto" refX="0" refY="0" style="overflow:visible"><path id="path1142-6" d="M 0,0 5,-5 -12.5,0 5,5 Z" transform="matrix(0.2,0,0,0.2,1.2,0)" style="fill:#000;fill-opacity:1;fill-rule:evenodd;stroke:#000;stroke-width:1.00000003pt;stroke-opacity:1"/></marker></defs><metadata id="metadata7"/><g id="layer2" transform="translate(0,46.062991)"><circle id="path844" cx="3.53" cy="-5.714" r="0" style="fill:#000;stroke:none"/><circle id="path846" cx="3.758" cy="-5.372" r="0" style="fill:#000;stroke:none"/><circle id="path848" cx="3.872" cy="-5.144" r="0" style="fill:#000;stroke:none"/><path id="path5127" d="m 23.870427,5.3675796 c 0,-4.53547492 -3.676612,-8.2122749 -8.212099,-8.2124869 -4.535475,-2.13e-4 -8.2124622,3.67622498 -8.2128872,8.2117119 -4.5e-4,4.5354871 3.6758122,8.2126374 8.2112872,8.2132874 4.535487,6.5e-4 8.212812,-3.6754373 8.213699,-8.2109254" style="fill:none;stroke:#000;stroke-width:.89999998;stroke-linecap:round;stroke-linejoin:round;stroke-miterlimit:10;stroke-dasharray:none;stroke-opacity:1"/><path id="path5125" d="M 1.3907078,-1.3343071 15.565694,23.415693 46.390705,-29.684316" style="fill:none;stroke:#000;stroke-width:.89999998;stroke-linecap:round;stroke-linejoin:round;stroke-miterlimit:10;stroke-dasharray:none;stroke-opacity:1"/><path id="path5125-4" d="M 55.952963,-1.3343071 70.127942,23.415693 100.95296,-29.684316" style="fill:none;stroke:#000;stroke-width:.89999992;stroke-linecap:round;stroke-linejoin:round;stroke-miterlimit:10;stroke-dasharray:none;stroke-opacity:1"/><path id="path5133" d="M 59.882272,-40.440734 C 45.691423,-21.523545 45.687673,4.4892326 59.873072,23.410511" style="fill:none;stroke:#000;stroke-width:.89999998;stroke-linecap:round;stroke-linejoin:round;stroke-miterlimit:10;stroke-dasharray:none;stroke-opacity:1"/><path id="path5133-5" d="m 99.879487,23.410512 c 14.190853,-18.9171897 14.194603,-44.92997 0.009,-63.85125" style="fill:none;stroke:#000;stroke-width:.89999992;stroke-linecap:round;stroke-linejoin:round;stroke-miterlimit:10;stroke-dasharray:none;stroke-opacity:1"/></g></svg>