<svg xmlns="http://www.w3.org/2000/svg" xmlns:svg="http://www.w3.org/2000/svg" xmlns:xlink="http://www.w3.org/1999/xlink" id="svg5821" width="64" height="64" version="1.1"><defs id="defs5823"><linearGradient id="linearGradient3792"><stop id="stop3794" offset="0" style="stop-color:#a40000;stop-opacity:1"/><stop id="stop3796" offset="1" style="stop-color:#ef2929;stop-opacity:1"/></linearGradient><linearGradient id="linearGradient4569"><stop id="stop4571" offset="0" style="stop-color:#fff;stop-opacity:1"/><stop id="stop4573" offset="1" style="stop-color:#a9a9a9;stop-opacity:1"/></linearGradient><linearGradient id="linearGradient6349"><stop id="stop6351" offset="0" style="stop-color:#000;stop-opacity:1"/><stop id="stop6353" offset="1" style="stop-color:#000;stop-opacity:0"/></linearGradient><linearGradient id="linearGradient3377"><stop id="stop3379" offset="0" style="stop-color:#0019a3;stop-opacity:1"/><stop id="stop3381" offset="1" style="stop-color:#0069ff;stop-opacity:1"/></linearGradient><linearGradient id="linearGradient3383" x1="901.188" x2="1267.906" y1="1190.875" y2="1190.875" gradientTransform="matrix(-1,0,0,1,2199.356,0)" gradientUnits="userSpaceOnUse" xlink:href="#linearGradient3377"/><radialGradient id="radialGradient6355" cx="1103.64" cy="1424.447" r="194.406" fx="1103.64" fy="1424.447" gradientTransform="matrix(-1.4307499,-1.3605156e-7,-1.202713e-8,0.1264801,2674.7488,1244.2826)" gradientUnits="userSpaceOnUse" xlink:href="#linearGradient6349"/><linearGradient id="linearGradient4575" x1="12.933" x2="49.987" y1="14.796" y2="48.776" gradientUnits="userSpaceOnUse" xlink:href="#linearGradient4569"/><linearGradient id="linearGradient4575-8" x1="12.933" x2="49.987" y1="14.796" y2="48.776" gradientUnits="userSpaceOnUse" xlink:href="#linearGradient4569-9"/><linearGradient id="linearGradient4569-9"><stop id="stop4571-0" offset="0" style="stop-color:#fff;stop-opacity:1"/><stop id="stop4573-8" offset="1" style="stop-color:#708cff;stop-opacity:1"/></linearGradient><linearGradient id="linearGradient4643" x1="12.933" x2="49.987" y1="14.796" y2="48.776" gradientUnits="userSpaceOnUse" xlink:href="#linearGradient4569"/><linearGradient id="linearGradient3798" x1="1119.668" x2="1090.425" y1="1322.279" y2="1088.337" gradientTransform="translate(3.4352637e-6,14.621356)" gradientUnits="userSpaceOnUse" xlink:href="#linearGradient3792"/><linearGradient id="linearGradient4643-6" x1="12.933" x2="49.987" y1="14.796" y2="48.776" gradientUnits="userSpaceOnUse" xlink:href="#linearGradient4569-7"/><linearGradient id="linearGradient4569-7"><stop id="stop4571-5" offset="0" style="stop-color:#fff;stop-opacity:1"/><stop id="stop4573-3" offset="1" style="stop-color:#a9a9a9;stop-opacity:1"/></linearGradient></defs><g id="layer1"><g id="g3360" transform="matrix(0.1367863,0,0,0.1367863,-119.15519,-134.86962)"><path id="path3799" d="M 52.727272,30 A 20.727272,20.727272 0 0 1 32,50.727272 20.727272,20.727272 0 0 1 11.272728,30 20.727272,20.727272 0 0 1 32,9.272728 20.727272,20.727272 0 0 1 52.727272,30 Z" transform="matrix(9.5231147,0,0,9.5231147,800.3066,934.2359)" style="color:#000;fill:url(#linearGradient4643);fill-opacity:1;fill-rule:evenodd;stroke:#2e3436;stroke-width:1.53535354;stroke-linecap:butt;stroke-linejoin:round;stroke-miterlimit:4;stroke-opacity:1;stroke-dasharray:none;stroke-dashoffset:0;marker:none;visibility:visible;display:inline;overflow:visible;enable-background:accumulate"/><path id="rect4577" d="m 1068.4929,1081.0266 -0.9069,102.3494 -101.44253,0 0,73.1068 102.34943,0 0,102.3494 73.1067,0 0,-102.3494 102.3495,0 0,-73.1068 -102.3495,0 0,-102.3494 z" style="color:#000;fill:#c00;fill-opacity:1;fill-rule:evenodd;stroke:#280000;stroke-width:14.62134743;stroke-linecap:butt;stroke-linejoin:round;stroke-miterlimit:4;stroke-opacity:1;stroke-dasharray:none;stroke-dashoffset:0;marker:none;visibility:visible;display:inline;overflow:visible;enable-background:accumulate"/><path id="rect4577-3" d="m 1083.1142,1095.6479 0,102.3495 -102.34939,0 0,43.864 102.34939,0 0,102.3494 43.8641,0 0,-102.3494 102.3494,0 0,-43.864 -102.3494,0 0,-102.3495 z" style="color:#000;fill:url(#linearGradient3798);fill-opacity:1;fill-rule:evenodd;stroke:#ef2929;stroke-width:14.62134743;stroke-linecap:butt;stroke-linejoin:miter;stroke-miterlimit:4;stroke-opacity:1;stroke-dasharray:none;stroke-dashoffset:0;marker:none;visibility:visible;display:inline;overflow:visible;enable-background:accumulate"/><path id="path3799-5" d="M 52.727272,30 A 20.727272,20.727272 0 0 1 32,50.727272 20.727272,20.727272 0 0 1 11.272728,30 20.727272,20.727272 0 0 1 32,9.272728 20.727272,20.727272 0 0 1 52.727272,30 Z" transform="matrix(8.8176988,0,0,8.8176988,822.8799,955.39837)" style="color:#000;fill:none;stroke:#fff;stroke-width:1.65818178999999999;stroke-linecap:butt;stroke-linejoin:round;stroke-miterlimit:4;stroke-opacity:1;stroke-dasharray:none;stroke-dashoffset:0;marker:none;visibility:visible;display:inline;overflow:visible;enable-background:accumulate"/></g></g><metadata id="metadata4697"/></svg>