<svg xmlns="http://www.w3.org/2000/svg" xmlns:svg="http://www.w3.org/2000/svg" xmlns:xlink="http://www.w3.org/1999/xlink" id="svg5821" width="64" height="64" version="1.1"><defs id="defs5823"><linearGradient id="linearGradient6349"><stop id="stop6351" offset="0" style="stop-color:#000;stop-opacity:1"/><stop id="stop6353" offset="1" style="stop-color:#000;stop-opacity:0"/></linearGradient><linearGradient id="linearGradient3377"><stop id="stop3379" offset="0" style="stop-color:#0019a3;stop-opacity:1"/><stop id="stop3381" offset="1" style="stop-color:#0069ff;stop-opacity:1"/></linearGradient><linearGradient id="linearGradient3383" x1="901.188" x2="1267.906" y1="1190.875" y2="1190.875" gradientTransform="matrix(-1,0,0,1,2199.356,0)" gradientUnits="userSpaceOnUse" xlink:href="#linearGradient3377"/><radialGradient id="radialGradient6355" cx="1103.64" cy="1424.447" r="194.406" fx="1103.64" fy="1424.447" gradientTransform="matrix(-1.4307499,-1.3605156e-7,-1.202713e-8,0.1264801,2674.7488,1244.2826)" gradientUnits="userSpaceOnUse" xlink:href="#linearGradient6349"/></defs><g id="layer1"><g id="g3360" transform="matrix(0.1367863,0,0,0.1367863,-119.15519,-134.86962)"><rect id="rect3860" width="277.806" height="248.563" x="907.658" y="1168.755" style="color:#000;fill:none;stroke:#0b1521;stroke-width:43.86404037;stroke-linecap:round;stroke-linejoin:round;stroke-miterlimit:4;stroke-opacity:1;stroke-dasharray:none;stroke-dashoffset:0;marker:none;visibility:visible;display:inline;overflow:visible;enable-background:accumulate"/><path id="path3862" d="M 48.363636,33.272728 A 18.181818,18.181818 0 0 1 30.181818,51.454546 18.181818,18.181818 0 0 1 12,33.272728 18.181818,18.181818 0 0 1 30.181818,15.09091 18.181818,18.181818 0 0 1 48.363636,33.272728 Z" transform="matrix(7.6471726,0,0,7.2375671,932.86278,913.31967)" style="color:#000;fill:none;stroke:#0b1521;stroke-width:5.89605999;stroke-linecap:round;stroke-linejoin:round;stroke-miterlimit:4;stroke-opacity:1;stroke-dasharray:none;stroke-dashoffset:0;marker:none;visibility:visible;display:inline;overflow:visible;enable-background:accumulate"/><rect id="rect3860-3" width="277.806" height="248.563" x="907.658" y="1168.755" style="color:#000;fill:none;stroke:#729fcf;stroke-width:14.62134731000000087;stroke-linecap:round;stroke-linejoin:round;stroke-miterlimit:4;stroke-opacity:1;stroke-dasharray:none;stroke-dashoffset:0;marker:none;visibility:visible;display:inline;overflow:visible;enable-background:accumulate"/><path id="path3862-6" d="M 48.363636,33.272728 A 18.181818,18.181818 0 0 1 30.181818,51.454546 18.181818,18.181818 0 0 1 12,33.272728 18.181818,18.181818 0 0 1 30.181818,15.09091 18.181818,18.181818 0 0 1 48.363636,33.272728 Z" transform="matrix(7.6471723,0,0,7.2375671,932.86278,913.31967)" style="color:#000;fill:none;stroke:#729fcf;stroke-width:1.96535339999999992;stroke-linecap:round;stroke-linejoin:round;stroke-miterlimit:4;stroke-opacity:1;stroke-dasharray:none;stroke-dashoffset:0;marker:none;visibility:visible;display:inline;overflow:visible;enable-background:accumulate"/></g></g><metadata id="metadata4153"/></svg>