<svg xmlns="http://www.w3.org/2000/svg" xmlns:svg="http://www.w3.org/2000/svg" xmlns:xlink="http://www.w3.org/1999/xlink" id="svg5821" width="64" height="64" version="1.1"><title id="title903">Draft_CircularLinkArray</title><defs id="defs5823"><linearGradient id="linearGradient6349"><stop style="stop-color:#000;stop-opacity:1" id="stop6351" offset="0"/><stop style="stop-color:#000;stop-opacity:0" id="stop6353" offset="1"/></linearGradient><linearGradient id="linearGradient3377"><stop style="stop-color:#0019a3;stop-opacity:1" id="stop3379" offset="0"/><stop style="stop-color:#0069ff;stop-opacity:1" id="stop3381" offset="1"/></linearGradient><linearGradient id="linearGradient3383" x1="901.188" x2="1267.906" y1="1190.875" y2="1190.875" gradientTransform="matrix(-1,0,0,1,2199.356,0)" gradientUnits="userSpaceOnUse" xlink:href="#linearGradient3377"/><radialGradient id="radialGradient6355" cx="1103.64" cy="1424.447" r="194.406" fx="1103.64" fy="1424.447" gradientTransform="matrix(-1.4307499,-1.3605156e-7,-1.202713e-8,0.1264801,2674.7488,1244.2826)" gradientUnits="userSpaceOnUse" xlink:href="#linearGradient6349"/><linearGradient id="linearGradient3791-6"><stop style="stop-color:#204a87;stop-opacity:1" id="stop3793-7" offset="0"/><stop style="stop-color:#729fcf;stop-opacity:1" id="stop3795-5" offset="1"/></linearGradient><linearGradient id="linearGradient3820" x1="939.988" x2="893.257" y1="1097.512" y2="989.777" gradientUnits="userSpaceOnUse" xlink:href="#linearGradient3791-6"/><linearGradient id="linearGradient3791-0"><stop style="stop-color:#204a87;stop-opacity:1" id="stop3793-6" offset="0"/><stop style="stop-color:#729fcf;stop-opacity:1" id="stop3795-2" offset="1"/></linearGradient><linearGradient id="linearGradient3896" x1="939.988" x2="893.257" y1="1097.512" y2="989.777" gradientUnits="userSpaceOnUse" xlink:href="#linearGradient3791-0"/><linearGradient id="linearGradient3791-2"><stop style="stop-color:#204a87;stop-opacity:1" id="stop3793-9" offset="0"/><stop style="stop-color:#729fcf;stop-opacity:1" id="stop3795-3" offset="1"/></linearGradient><linearGradient id="linearGradient3896-1" x1="939.988" x2="893.257" y1="1097.512" y2="989.777" gradientUnits="userSpaceOnUse" xlink:href="#linearGradient3791-2"/><linearGradient id="linearGradient3836"><stop id="stop3838" offset="0" style="stop-color:#3465a4;stop-opacity:1"/><stop id="stop3840" offset="1" style="stop-color:#729fcf;stop-opacity:1"/></linearGradient><linearGradient id="linearGradient3144-6"><stop style="stop-color:#fff;stop-opacity:1" id="stop3146-9" offset="0"/><stop style="stop-color:#fff;stop-opacity:0" id="stop3148-2" offset="1"/></linearGradient><radialGradient id="radialGradient3688" cx="225.264" cy="672.797" r="34.345" fx="225.264" fy="672.797" gradientTransform="matrix(1,0,0,0.6985294,0,202.82863)" gradientUnits="userSpaceOnUse" xlink:href="#linearGradient3144-6"/><linearGradient id="linearGradient3864-0-0"><stop style="stop-color:#0619c0;stop-opacity:1" id="stop3866-5-7" offset="0"/><stop style="stop-color:#379cfb;stop-opacity:1" id="stop3868-7-6" offset="1"/></linearGradient><linearGradient id="linearGradient3377-3"><stop style="stop-color:#fa0;stop-opacity:1" id="stop3379-6" offset="0"/><stop style="stop-color:#faff2b;stop-opacity:1" id="stop3381-7" offset="1"/></linearGradient><linearGradient id="linearGradient5048"><stop id="stop5050" offset="0" style="stop-color:black;stop-opacity:0"/><stop style="stop-color:black;stop-opacity:1" id="stop5056" offset=".5"/><stop id="stop5052" offset="1" style="stop-color:black;stop-opacity:0"/></linearGradient><radialGradient id="aigrd2" cx="20.892" cy="114.568" r="5.256" fx="20.892" fy="114.568" gradientUnits="userSpaceOnUse"><stop style="stop-color:#f0f0f0" id="stop15566" offset="0"/><stop style="stop-color:#9a9a9a;stop-opacity:1" id="stop15568" offset="1"/></radialGradient><radialGradient id="aigrd3" cx="20.892" cy="64.568" r="5.257" fx="20.892" fy="64.568" gradientUnits="userSpaceOnUse"><stop style="stop-color:#f0f0f0" id="stop15573" offset="0"/><stop style="stop-color:#9a9a9a;stop-opacity:1" id="stop15575" offset="1"/></radialGradient><linearGradient id="linearGradient15662"><stop id="stop15664" offset="0" style="stop-color:#fff;stop-opacity:1"/><stop id="stop15666" offset="1" style="stop-color:#f8f8f8;stop-opacity:1"/></linearGradient><radialGradient id="radialGradient4452" cx="33.967" cy="35.737" r="86.708" fx="33.967" fy="35.737" gradientTransform="matrix(0.96049297,0,0,1.041132,-52.144249,-702.33158)" gradientUnits="userSpaceOnUse" xlink:href="#linearGradient259"/><linearGradient id="linearGradient259"><stop id="stop260" offset="0" style="stop-color:#fafafa;stop-opacity:1"/><stop id="stop261" offset="1" style="stop-color:#bbb;stop-opacity:1"/></linearGradient><radialGradient id="radialGradient4454" cx="8.824" cy="3.756" r="37.752" fx="8.824" fy="3.756" gradientTransform="matrix(0.96827297,0,0,1.032767,-48.790699,-701.68513)" gradientUnits="userSpaceOnUse" xlink:href="#linearGradient269"/><linearGradient id="linearGradient269"><stop id="stop270" offset="0" style="stop-color:#a3a3a3;stop-opacity:1"/><stop id="stop271" offset="1" style="stop-color:#4c4c4c;stop-opacity:1"/></linearGradient><linearGradient id="linearGradient4095"><stop id="stop4097" offset="0" style="stop-color:#005bff;stop-opacity:1"/><stop id="stop4099" offset="1" style="stop-color:#c1e3f7;stop-opacity:1"/></linearGradient><linearGradient id="linearGradient4253" x1="394.158" x2="434.739" y1="185.13" y2="140.227" gradientTransform="matrix(0.94231826,0,0,0.94231826,23.727549,8.8262536)" gradientUnits="userSpaceOnUse" xlink:href="#linearGradient4247"/><linearGradient id="linearGradient4247"><stop id="stop4249" offset="0" style="stop-color:#2e8207;stop-opacity:1"/><stop id="stop4251" offset="1" style="stop-color:#52ff00;stop-opacity:1"/></linearGradient><linearGradient id="linearGradient3922" x1="11.39" x2="54.51" y1="453.55" y2="485.54" gradientTransform="matrix(1.050705,0.0195272,0.0195272,1.0567846,61.906432,41.415953)" gradientUnits="userSpaceOnUse" xlink:href="#linearGradient3836"/><linearGradient id="linearGradient1217" x1="11.39" x2="54.51" y1="453.55" y2="485.54" gradientTransform="matrix(1.050705,0.0195272,0.0195272,1.0567846,61.906432,41.415953)" gradientUnits="userSpaceOnUse" xlink:href="#linearGradient3836"/><linearGradient id="linearGradient1233" x1="11.39" x2="54.51" y1="453.55" y2="485.54" gradientTransform="matrix(1.050705,0.0195272,0.0195272,1.0567846,61.906432,41.415953)" gradientUnits="userSpaceOnUse" xlink:href="#linearGradient3836"/><linearGradient id="linearGradient1241" x1="11.39" x2="54.51" y1="453.55" y2="485.54" gradientTransform="matrix(1.050705,0.0195272,0.0195272,1.0567846,61.906432,41.415953)" gradientUnits="userSpaceOnUse" xlink:href="#linearGradient3836"/><linearGradient id="linearGradient1259" x1="11.39" x2="54.51" y1="453.55" y2="485.54" gradientTransform="matrix(1.050705,0.0195272,0.0195272,1.0567846,61.906432,41.415953)" gradientUnits="userSpaceOnUse" xlink:href="#linearGradient3836"/><linearGradient id="linearGradient4972" x1="11.39" x2="54.51" y1="453.55" y2="485.54" gradientTransform="matrix(1.050705,0.0195272,0.0195272,1.0567846,61.906432,41.415953)" gradientUnits="userSpaceOnUse" xlink:href="#linearGradient3836"/><linearGradient id="linearGradient4980" x1="11.39" x2="54.51" y1="453.55" y2="485.54" gradientTransform="matrix(1.050705,0.0195272,0.0195272,1.0567846,61.906432,41.415953)" gradientUnits="userSpaceOnUse" xlink:href="#linearGradient3836"/><radialGradient id="radialGradient6355-62" cx="1103.64" cy="1424.447" r="194.406" fx="1103.64" fy="1424.447" gradientTransform="matrix(-1.4307499,-1.3605156e-7,-1.202713e-8,0.1264801,2674.7488,1244.2826)" gradientUnits="userSpaceOnUse" xlink:href="#linearGradient6349"/><linearGradient id="linearGradient3834-6" x1="939.988" x2="893.257" y1="1097.512" y2="989.777" gradientTransform="matrix(1.251547,0,0,1.2214422,104.06364,54.837797)" gradientUnits="userSpaceOnUse" xlink:href="#linearGradient3791-6"/><linearGradient id="linearGradient911" x1="939.988" x2="893.257" y1="1097.512" y2="1049.63" gradientTransform="matrix(1.251547,0,0,1.2214422,104.06364,54.837797)" gradientUnits="userSpaceOnUse" xlink:href="#linearGradient3791-6"/><linearGradient id="linearGradient926" x1="939.988" x2="893.257" y1="989.777" y2="941.895" gradientTransform="matrix(1.251547,0,0,1.2214422,104.06352,186.42979)" gradientUnits="userSpaceOnUse" xlink:href="#linearGradient3791-6"/><radialGradient id="radialGradient6355-6" cx="1103.64" cy="1424.447" r="194.406" fx="1103.64" fy="1424.447" gradientTransform="matrix(-1.4307499,-1.3605156e-7,-1.202713e-8,0.1264801,2674.7488,1244.2826)" gradientUnits="userSpaceOnUse" xlink:href="#linearGradient6349"/><linearGradient id="linearGradient5137" x1="288.112" x2="372.525" y1="358.158" y2="7.542" gradientTransform="matrix(-0.51964051,0,0,0.50042191,1386.3532,982.21378)" gradientUnits="userSpaceOnUse" xlink:href="#linearGradient3774"/><linearGradient id="linearGradient3774"><stop id="stop3776" offset="0" style="stop-color:#4e9a06;stop-opacity:1"/><stop id="stop3778" offset="1" style="stop-color:#8ae234;stop-opacity:1"/></linearGradient></defs><g id="layer1"><g id="g3360" transform="matrix(0.1367863,0,0,0.1367863,-119.15519,-134.86962)"><g id="g3906" transform="matrix(-1.0281913,-0.88047731,0.88051744,-1.0281444,734.46171,1854.2651)" style="stroke:#3465a4;stroke-width:.8096711"><path style="fill:#3465a4;fill-opacity:1;stroke:#0b1521;stroke-width:10.80131626;stroke-miterlimit:4;stroke-dasharray:none;stroke-opacity:1" id="path4250" d="m 147.07465,535.89484 a 48.571431,48.571431 0 1 1 -97.14285,0 48.571431,48.571431 0 1 1 97.14285,0 z"/><path style="fill:url(#linearGradient3922);fill-opacity:1;stroke:#729fcf;stroke-width:10.80131435;stroke-miterlimit:4;stroke-dasharray:none;stroke-opacity:1" id="path4250-7" d="m 136.22359,535.86575 a 37.80547,37.803747 49.467268 1 1 -75.60894,-0.002 37.80547,37.803747 49.467268 0 1 75.60894,0.002 z"/></g><g id="g1215" transform="matrix(-1.0281913,-0.88047731,0.88051744,-1.0281444,891.57365,1854.2651)" style="stroke:#3465a4;stroke-width:.8096711"><path style="fill:#3465a4;fill-opacity:1;stroke:#0b1521;stroke-width:10.80131626;stroke-miterlimit:4;stroke-dasharray:none;stroke-opacity:1" id="path1211" d="m 147.07465,535.89484 a 48.571431,48.571431 0 1 1 -97.14285,0 48.571431,48.571431 0 1 1 97.14285,0 z"/><path style="fill:url(#linearGradient1217);fill-opacity:1;stroke:#729fcf;stroke-width:10.80131435;stroke-miterlimit:4;stroke-dasharray:none;stroke-opacity:1" id="path1213" d="m 136.22359,535.86575 a 37.80547,37.803747 49.467268 1 1 -75.60894,-0.002 37.80547,37.803747 49.467268 0 1 75.60894,0.002 z"/></g><g id="g1231" transform="matrix(-1.0281913,-0.88047731,0.88051744,-1.0281444,650.32142,1707.8349)" style="stroke:#3465a4;stroke-width:.8096711"><path style="fill:#3465a4;fill-opacity:1;stroke:#0b1521;stroke-width:10.80131626;stroke-miterlimit:4;stroke-dasharray:none;stroke-opacity:1" id="path1227" d="m 147.07465,535.89484 a 48.571431,48.571431 0 1 1 -97.14285,0 48.571431,48.571431 0 1 1 97.14285,0 z"/><path style="fill:url(#linearGradient1233);fill-opacity:1;stroke:#729fcf;stroke-width:10.80131435;stroke-miterlimit:4;stroke-dasharray:none;stroke-opacity:1" id="path1229" d="m 136.22359,535.86575 a 37.80547,37.803747 49.467268 1 1 -75.60894,-0.002 37.80547,37.803747 49.467268 0 1 75.60894,0.002 z"/></g><g style="stroke:#3465a4;stroke-width:.8096711" id="g1239" transform="matrix(-1.0281913,-0.88047731,0.88051744,-1.0281444,650.32142,2007.5725)"><path id="path1235" d="m 147.07465,535.89484 a 48.571431,48.571431 0 1 1 -97.14285,0 48.571431,48.571431 0 1 1 97.14285,0 z" style="fill:#3465a4;fill-opacity:1;stroke:#0b1521;stroke-width:10.80131626;stroke-miterlimit:4;stroke-dasharray:none;stroke-opacity:1"/><path id="path1237" d="m 136.22359,535.86575 a 37.80547,37.803747 49.467268 1 1 -75.60894,-0.002 37.80547,37.803747 49.467268 0 1 75.60894,0.002 z" style="fill:url(#linearGradient1241);fill-opacity:1;stroke:#729fcf;stroke-width:10.80131435;stroke-miterlimit:4;stroke-dasharray:none;stroke-opacity:1"/></g><g style="stroke:#3465a4;stroke-width:.8096711" id="g1257" transform="matrix(-1.0281913,-0.88047731,0.88051744,-1.0281444,577.21468,1854.2651)"><path id="path1253" d="m 147.07465,535.89484 a 48.571431,48.571431 0 1 1 -97.14285,0 48.571431,48.571431 0 1 1 97.14285,0 z" style="fill:#3465a4;fill-opacity:1;stroke:#0b1521;stroke-width:10.80131626;stroke-miterlimit:4;stroke-dasharray:none;stroke-opacity:1"/><path id="path1255" d="m 136.22359,535.86575 a 37.80547,37.803747 49.467268 1 1 -75.60894,-0.002 37.80547,37.803747 49.467268 0 1 75.60894,0.002 z" style="fill:url(#linearGradient1259);fill-opacity:1;stroke:#729fcf;stroke-width:10.80131435;stroke-miterlimit:4;stroke-dasharray:none;stroke-opacity:1"/></g><g style="stroke:#3465a4;stroke-width:.8096711" id="g4970" transform="matrix(-1.0281913,-0.88047731,0.88051744,-1.0281444,818.46691,1707.8349)"><path id="path4966" d="m 147.07465,535.89484 a 48.571431,48.571431 0 1 1 -97.14285,0 48.571431,48.571431 0 1 1 97.14285,0 z" style="fill:#3465a4;fill-opacity:1;stroke:#0b1521;stroke-width:10.80131626;stroke-miterlimit:4;stroke-dasharray:none;stroke-opacity:1"/><path id="path4968" d="m 136.22359,535.86575 a 37.80547,37.803747 49.467268 1 1 -75.60894,-0.002 37.80547,37.803747 49.467268 0 1 75.60894,0.002 z" style="fill:url(#linearGradient4972);fill-opacity:1;stroke:#729fcf;stroke-width:10.80131435;stroke-miterlimit:4;stroke-dasharray:none;stroke-opacity:1"/></g><g id="g4978" transform="matrix(-1.0281913,-0.88047731,0.88051744,-1.0281444,818.46691,2007.5725)" style="stroke:#3465a4;stroke-width:.8096711"><path style="fill:#3465a4;fill-opacity:1;stroke:#0b1521;stroke-width:10.80131626;stroke-miterlimit:4;stroke-dasharray:none;stroke-opacity:1" id="path4974" d="m 147.07465,535.89484 a 48.571431,48.571431 0 1 1 -97.14285,0 48.571431,48.571431 0 1 1 97.14285,0 z"/><path style="fill:url(#linearGradient4980);fill-opacity:1;stroke:#729fcf;stroke-width:10.80131435;stroke-miterlimit:4;stroke-dasharray:none;stroke-opacity:1" id="path4976" d="m 136.22359,535.86575 a 37.80547,37.803747 49.467268 1 1 -75.60894,-0.002 37.80547,37.803747 49.467268 0 1 75.60894,0.002 z"/></g></g></g><metadata id="metadata3357"/><g id="g4218" transform="matrix(0.1367863,0,0,0.1367863,-121.1483,-132.94258)"><path style="opacity:1;fill:#8ae234;fill-opacity:1;stroke:#172a04;stroke-width:14.62134743;stroke-miterlimit:4;stroke-dasharray:none;stroke-opacity:1" id="path4228" d="m 1145.5648,1074.1543 c 18.5937,-18.383 48.2169,-28.9064 88.8688,-31.5737 v -37.4326 c 0,-4.0003 1.9294,-6.80966 5.7868,-8.43006 4.0547,-1.61639 7.5171,-0.95178 10.3849,2.00121 l 75.9581,73.15065 c 1.8799,1.8121 2.8184,3.9543 2.8184,6.4303 0,2.4767 -0.9389,4.6185 -2.8184,6.429 l -75.9602,73.1502 c -1.7833,1.81 -4.0064,2.7148 -6.6772,2.7148 -1.1865,0 -2.4222,-0.2382 -3.7083,-0.7141 -3.8572,-1.6204 -5.7882,-4.4273 -5.7882,-8.4296 v -35.8618 c -15.9228,1.2386 -29.1503,3.7387 -39.6881,7.5008 -10.5331,3.7627 -18.9637,9.0247 -25.2946,15.7879 -14.738,15.7158 -19.9806,42.6214 -15.7274,80.7237 0.1953,2.4775 -0.9389,4.0963 -3.4125,4.858 -0.2967,0.097 -0.7414,0.142 -1.3349,0.142 -1.9778,0 -3.361,-0.8095 -4.154,-2.4285 l -2.9667,-5.7148 c -1.3832,-2.6676 -3.3858,-6.9784 -6.007,-12.9313 -2.6194,-5.9556 -4.9969,-11.9071 -7.1237,-17.8612 -2.1269,-5.9515 -4.0298,-12.5235 -5.7119,-19.7147 -1.6805,-7.194 -2.5219,-13.5508 -2.5219,-19.074 0,-32.0039 8.3606,-56.2428 25.078,-72.7222 z"/><path id="path5135" d="m 1252.6459,1025.0625 c 18.4441,17.7617 37.1632,35.1962 55.3062,53.3235 -19.0906,18.0067 -37.542,36.7844 -56.7747,54.6184 -0.018,-12.2743 -0.087,-24.5491 0.032,-36.8231 -26.4463,1.6409 -53.9694,3.575 -77.8197,17.2303 -17.0095,9.5803 -28.4884,27.8106 -34.5388,47.088 -3.5743,-21.5969 -1.2897,-45.3408 10.607,-63.6609 11.0273,-16.9013 29.5358,-25.7267 47.629,-30.3404 14.7839,-4.3279 30.2561,-4.0127 45.1276,-7.7257 7.8392,-4.3982 10.4187,-14.9284 9.2176,-23.8416 -0.062,-3.7919 -0.2886,-7.6325 -0.4323,-11.451 0.5488,0.5275 1.0977,1.055 1.6465,1.5825 z" style="opacity:1;fill:url(#linearGradient5137);fill-opacity:1;stroke:none;stroke-width:34.75331116;stroke-miterlimit:4;stroke-dasharray:none;stroke-opacity:1"/></g></svg>