<svg xmlns="http://www.w3.org/2000/svg" xmlns:svg="http://www.w3.org/2000/svg" xmlns:xlink="http://www.w3.org/1999/xlink" id="svg2726" width="64" height="64" version="1.1"><defs id="defs2728"><linearGradient id="linearGradient3773"><stop id="stop3775" offset="0" style="stop-color:#06989a;stop-opacity:1"/><stop id="stop3777" offset="1" style="stop-color:#34e0e2;stop-opacity:1"/></linearGradient><linearGradient id="linearGradient3765"><stop id="stop3767" offset="0" style="stop-color:#06989a;stop-opacity:1"/><stop id="stop3769" offset="1" style="stop-color:#34e0e2;stop-opacity:1"/></linearGradient><linearGradient id="linearGradient3144"><stop id="stop3146" offset="0" style="stop-color:#fff;stop-opacity:1"/><stop id="stop3148" offset="1" style="stop-color:#fff;stop-opacity:0"/></linearGradient><radialGradient id="radialGradient3850" cx="225.264" cy="672.797" r="34.345" fx="225.264" fy="672.797" gradientTransform="matrix(1,0,0,0.6985294,0,202.82863)" gradientUnits="userSpaceOnUse" xlink:href="#linearGradient3144"/><radialGradient id="radialGradient3850-4" cx="225.264" cy="672.797" r="34.345" fx="225.264" fy="672.797" gradientTransform="matrix(1,0,0,0.6985294,0,202.82863)" gradientUnits="userSpaceOnUse" xlink:href="#linearGradient3144-1"/><linearGradient id="linearGradient3144-1"><stop id="stop3146-9" offset="0" style="stop-color:#fff;stop-opacity:1"/><stop id="stop3148-8" offset="1" style="stop-color:#fff;stop-opacity:0"/></linearGradient><linearGradient id="linearGradient3771" x1="207.486" x2="133.471" y1="802.506" y2="457.1" gradientUnits="userSpaceOnUse" xlink:href="#linearGradient3765"/><linearGradient id="linearGradient3779" x1="25.818" x2="22.545" y1="49.273" y2="35.091" gradientUnits="userSpaceOnUse" xlink:href="#linearGradient3773"/></defs><g id="layer1"><g id="g4289" transform="matrix(0.1621282,0,0,0.1621282,6.3605986,-66.108806)"><rect id="rect3857" width="357.742" height="357.742" x="-20.728" y="426.26" ry="26.556" style="color:#000;fill:url(#linearGradient3771);fill-opacity:1;fill-rule:nonzero;stroke:#042a2a;stroke-width:12.335915569999999;stroke-linecap:butt;stroke-linejoin:miter;stroke-miterlimit:4;stroke-opacity:1;stroke-dasharray:none;stroke-dashoffset:0;marker:none;visibility:visible;display:inline;overflow:visible;enable-background:accumulate"/><path id="path4644" d="M 32.363636,41.636364 A 7.6363635,7.6363635 0 0 1 24.727272,49.272727 7.6363635,7.6363635 0 0 1 17.090909,41.636364 7.6363635,7.6363635 0 0 1 24.727272,34 a 7.6363635,7.6363635 0 0 1 7.636364,7.636364 z" transform="matrix(7.2693797,0,0,7.2693798,-83.288751,351.80416)" style="color:#000;fill:#34e0e2;fill-opacity:1;fill-rule:nonzero;stroke:#042a2a;stroke-width:1.69696950999999996;stroke-linecap:butt;stroke-linejoin:miter;stroke-miterlimit:4;stroke-opacity:1;stroke-dasharray:none;stroke-dashoffset:0;marker:none;visibility:visible;display:inline;overflow:visible;enable-background:accumulate"/><rect id="rect3857-3" width="333.07" height="333.07" x="-8.392" y="438.596" ry="12.81" style="color:#000;fill:none;stroke:#34e0e2;stroke-width:12.33591557;stroke-linecap:butt;stroke-linejoin:miter;stroke-miterlimit:4;stroke-opacity:1;stroke-dasharray:none;stroke-dashoffset:0;marker:none;visibility:visible;display:inline;overflow:visible;enable-background:accumulate"/><path id="path4644-6" d="M 32.363636,41.636364 A 7.6363635,7.6363635 0 0 1 24.727272,49.272727 7.6363635,7.6363635 0 0 1 17.090909,41.636364 7.6363635,7.6363635 0 0 1 24.727272,34 a 7.6363635,7.6363635 0 0 1 7.636364,7.636364 z" transform="matrix(5.653962,0,0,5.653962,-43.343878,419.06429)" style="color:#000;fill:url(#linearGradient3779);stroke:#34e0e2;stroke-width:2.1818180100000002;stroke-linecap:butt;stroke-linejoin:miter;stroke-miterlimit:4;stroke-opacity:1;stroke-dasharray:none;stroke-dashoffset:0;marker:none;visibility:visible;display:inline;overflow:visible;enable-background:accumulate;fill-opacity:1"/></g></g><metadata id="metadata6669"/></svg>