<svg xmlns="http://www.w3.org/2000/svg" xmlns:svg="http://www.w3.org/2000/svg" xmlns:xlink="http://www.w3.org/1999/xlink" id="svg249" width="64" height="64" version="1.1"><defs id="defs3"><linearGradient id="linearGradient5048"><stop style="stop-color:black;stop-opacity:0" id="stop5050" offset="0"/><stop id="stop5056" offset=".5" style="stop-color:black;stop-opacity:1"/><stop style="stop-color:black;stop-opacity:0" id="stop5052" offset="1"/></linearGradient><linearGradient id="linearGradient4542"><stop style="stop-color:#000;stop-opacity:1" id="stop4544" offset="0"/><stop style="stop-color:#000;stop-opacity:0" id="stop4546" offset="1"/></linearGradient><radialGradient id="radialGradient4548" cx="24.307" cy="42.078" r="15.822" fx="24.307" fy="42.078" gradientTransform="matrix(1,0,0,0.284916,0,30.08928)" gradientUnits="userSpaceOnUse" xlink:href="#linearGradient4542"/><linearGradient id="linearGradient15662"><stop style="stop-color:#fff;stop-opacity:1" id="stop15664" offset="0"/><stop style="stop-color:#f8f8f8;stop-opacity:1" id="stop15666" offset="1"/></linearGradient><radialGradient id="aigrd3" cx="20.892" cy="64.568" r="5.257" fx="20.892" fy="64.568" gradientUnits="userSpaceOnUse"><stop id="stop15573" offset="0" style="stop-color:#f0f0f0"/><stop id="stop15575" offset="1" style="stop-color:#9a9a9a;stop-opacity:1"/></radialGradient><radialGradient id="aigrd2" cx="20.892" cy="114.568" r="5.256" fx="20.892" fy="114.568" gradientUnits="userSpaceOnUse"><stop id="stop15566" offset="0" style="stop-color:#f0f0f0"/><stop id="stop15568" offset="1" style="stop-color:#9a9a9a;stop-opacity:1"/></radialGradient><linearGradient id="linearGradient269"><stop style="stop-color:#a3a3a3;stop-opacity:1" id="stop270" offset="0"/><stop style="stop-color:#4c4c4c;stop-opacity:1" id="stop271" offset="1"/></linearGradient><linearGradient id="linearGradient259"><stop style="stop-color:#fafafa;stop-opacity:1" id="stop260" offset="0"/><stop style="stop-color:#bbb;stop-opacity:1" id="stop261" offset="1"/></linearGradient><linearGradient id="linearGradient12512"><stop style="stop-color:#fff;stop-opacity:1" id="stop12513" offset="0"/><stop style="stop-color:#fff520;stop-opacity:.89108908" id="stop12517" offset=".5"/><stop style="stop-color:#fff300;stop-opacity:0" id="stop12514" offset="1"/></linearGradient><linearGradient id="linearGradient3781-9" x1="52" x2="12" y1="34" y2="44" gradientTransform="translate(-16.000004,-64)" gradientUnits="userSpaceOnUse" xlink:href="#linearGradient3775-1"/><linearGradient id="linearGradient3775-1"><stop style="stop-color:#d3d7cf;stop-opacity:1" id="stop3777-2" offset="0"/><stop style="stop-color:#fff;stop-opacity:1" id="stop3779-7" offset="1"/></linearGradient><radialGradient id="radialGradient278-3" cx="55" cy="125" r="14.375" fx="55" fy="125" gradientTransform="matrix(1.0434782,0,0,1.0434782,-8.391304,-131.43091)" gradientUnits="userSpaceOnUse" xlink:href="#linearGradient12512-6"/><linearGradient id="linearGradient12512-6"><stop id="stop12513-7" offset="0" style="stop-color:#fff;stop-opacity:1"/><stop id="stop12517-5" offset=".5" style="stop-color:#fff520;stop-opacity:.89108908"/><stop id="stop12514-3" offset="1" style="stop-color:#fff300;stop-opacity:0"/></linearGradient></defs><metadata id="metadata4"/><g id="layer6" transform="translate(0,16)"><rect style="fill:#d3d7cf;fill-opacity:1;stroke:#2e3436;stroke-width:2;stroke-linecap:round;stroke-linejoin:round;stroke-miterlimit:4;stroke-opacity:1;stroke-dasharray:none;stroke-dashoffset:0;display:inline" id="rect2987" width="46" height="58" x="-7" y="-61" transform="matrix(0,1,-1,0,0,0)"/><rect style="fill:url(#linearGradient3781-9);fill-opacity:1;stroke:#fff;stroke-width:2;stroke-linecap:round;stroke-linejoin:miter;stroke-miterlimit:4;stroke-opacity:1;stroke-dasharray:none;stroke-dashoffset:0;display:inline" id="rect2987-1" width="42" height="54" x="-5" y="-59" transform="matrix(0,1,-1,0,0,0)"/><g style="font-size:40.16712952000000314px;font-style:normal;font-variant:normal;font-weight:400;font-stretch:normal;line-height:125%;letter-spacing:0;word-spacing:0;fill:#2e3436;fill-opacity:1;stroke:none;font-family:Sans;-inkscape-font-specification:Clean" id="text3093" transform="matrix(0.87216211,0,0,1.25081,-0.5454545,0)"><path id="path3191" d="m 20.920054,1.2345772 -5.420502,14.7550618 10.767458,0 -5.346956,-14.7550618 m -3.408714,-4.4325049 6.25405,0 11.25729,30.3803137 -5.00324,0 -2.50162,-7.99482 -13.199453,0 -1.810267,7.99482 -5.00324,0 10.00648,-30.3803137" style="fill:#2e3436"/></g><g style="font-size:51.20000076000000178px;font-style:normal;font-variant:normal;font-weight:400;font-stretch:normal;line-height:125%;letter-spacing:0;word-spacing:0;fill:#2e3436;fill-opacity:1;stroke:none;font-family:Sans;-inkscape-font-specification:Clean" id="text3261" transform="translate(60,0)"><path id="path3269" d="m -22,30 18,0 1.6e-6,4 L -28,34 l 0,-4 c 1.916661,-1.983327 4.824993,-4.891658 8.125001,-8.225 3.316652,-3.349985 5.399983,-5.508316 6.25,-6.475 1.616648,-1.816646 2.741647,-3.349978 3.375,-4.6 0.6499786,-1.2666425 0.9749783,-2.5083079 0.9750005,-3.7250004 -2.22e-5,-1.9833044 -0.7000215,-3.5999694 -2.1000005,-4.8500001 -1.383352,-1.24996687 -3.191683,-1.87496625 -5.425,-1.875 -1.583346,3.375e-5 -3.258344,0.27503348 -5.025,0.825 C -23.575007,1.6250319 -26.000006,2.8833649 -28,4 l 0,-5.1 c 2.033328,-0.8166304 4.483327,-1.8582969 6.250001,-2.2750006 1.766656,-0.4166288 3.383321,-0.624962 4.85,-0.625 3.866649,3.8e-5 6.949979,0.9667037 9.2500005,2.9000001 C -5.3500246,0.83336601 -4,4 -4,7 c 0,2 -0.4916921,2.6416907 -1.0749985,4.025 -0.5666924,1.366688 -1.6083581,2.983353 -3.125,4.85 -0.4166895,0.483351 -1.7416882,1.883349 -3.9750005,4.2 C -14.408349,22.375011 -17.933347,25.850008 -22,30" style="fill:#2e3436"/></g><path id="path12511" d="m 64,-0.996127 a 15,15 0 0 1 -30,0 15,15 0 1 1 30,0 z" style="color:#000;fill:url(#radialGradient278-3);fill-opacity:1;fill-rule:nonzero;stroke:none;stroke-width:1.25000024;marker:none;visibility:visible;display:block"/></g></svg>