<svg xmlns="http://www.w3.org/2000/svg" xmlns:svg="http://www.w3.org/2000/svg" xmlns:xlink="http://www.w3.org/1999/xlink" id="svg3097" width="64" height="64" version="1.1"><title id="title3739">Mesh_Import_Mesh</title><defs id="defs3099"><linearGradient id="linearGradient4081"><stop style="stop-color:#ef2929;stop-opacity:1" id="stop4083" offset="0"/><stop style="stop-color:#a40000;stop-opacity:1" id="stop4085" offset="1"/></linearGradient><linearGradient id="linearGradient3193-8"><stop id="stop3195-6" offset="0" style="stop-color:#8ae234;stop-opacity:1"/><stop id="stop3197-4" offset="1" style="stop-color:#4e9a06;stop-opacity:1"/></linearGradient><linearGradient id="linearGradient3013-7" x1="21.956" x2="12.024" y1="55.424" y2="32.91" gradientTransform="matrix(-0.99998269,0.00588453,-0.00588453,-0.99998269,46.851483,72.745975)" gradientUnits="userSpaceOnUse" xlink:href="#linearGradient3193-8-4"/><linearGradient id="linearGradient3193-8-4"><stop id="stop3195-6-8" offset="0" style="stop-color:#68ff00;stop-opacity:1"/><stop id="stop3197-4-8" offset="1" style="stop-color:#078b00;stop-opacity:1"/></linearGradient><linearGradient id="linearGradient4062-2" x1="35.528" x2="29.622" y1="46.625" y2="30.59" gradientTransform="matrix(-0.99998269,0.00588453,-0.00588453,-0.99998269,47.801526,90.414925)" gradientUnits="userSpaceOnUse" xlink:href="#linearGradient4081-4"/><linearGradient id="linearGradient4081-4"><stop style="stop-color:#8ae234;stop-opacity:1" id="stop4083-5" offset="0"/><stop style="stop-color:#4e9a06;stop-opacity:1" id="stop4085-5" offset="1"/></linearGradient><linearGradient id="linearGradient4165-3" x1="12" x2="16" y1="48" y2="60" gradientTransform="translate(4.0000004,-4)" gradientUnits="userSpaceOnUse" xlink:href="#linearGradient4081-6"/><linearGradient id="linearGradient4081-6"><stop style="stop-color:#8ae234;stop-opacity:1" id="stop4083-7" offset="0"/><stop style="stop-color:#4e9a06;stop-opacity:1" id="stop4085-53" offset="1"/></linearGradient><linearGradient id="linearGradient3049" x1="12" x2="16" y1="48" y2="60" gradientTransform="matrix(-1,0,0,1,3.7546294,-19.78136)" gradientUnits="userSpaceOnUse" xlink:href="#linearGradient4081-6"/></defs><metadata id="metadata3102"/><g id="layer1"><g style="display:inline" id="g3030" transform="matrix(-1,0,0,1,6.8546294,18.781361)"><path style="fill:none;stroke:none" id="path4219" d="m -30.145337,-1.7813635 0,35.9999985 -24,0 0,-27.9999985 8,-8 z"/><path style="fill:#fff;stroke:none;display:inline" id="path4219-6" d="m -30.14537,-1.781361 0,35.999998 -24,0 0,-27.999998 8,-8 z"/><path style="fill:#888a85;stroke:none" id="path4245" d="m -46.14537,-1.781361 0,8 -8,0 z"/><path style="fill:none;stroke:#2e3436;stroke-width:2;stroke-linecap:butt;stroke-linejoin:round;stroke-opacity:1" id="path4221" d="m -46.14537,-1.781361 0,8 -8,0"/><path style="fill:none;stroke:#2e3436;stroke-width:2;stroke-linecap:round;stroke-linejoin:miter;stroke-opacity:1" id="path4247" d="m -34.145297,2.218637 -8,0"/><path style="fill:none;stroke:#2e3436;stroke-width:2;stroke-linecap:round;stroke-linejoin:miter;stroke-opacity:1" id="path4251" d="m -34.145297,12.218637 -16,0"/><rect style="fill:#73d216;fill-opacity:1;stroke:#172a04;stroke-width:2;stroke-linecap:round;stroke-linejoin:round;stroke-miterlimit:4;stroke-opacity:1;stroke-dasharray:none" id="rect4253" width="12" height="12" x="38.145" y="18.219" transform="scale(-1,1)"/><path style="fill:none;stroke:#172a04;stroke-width:2;stroke-linecap:butt;stroke-linejoin:miter;stroke-opacity:1" id="path4255" d="m -38.145297,18.218641 -12,12"/><path style="fill:none;stroke:#2e3436;stroke-width:2;stroke-linecap:round;stroke-linejoin:miter;stroke-opacity:1;display:inline" id="path4247-3" d="m -34.145265,6.218637 -8,0"/><path style="fill:none;stroke:#2e3436;stroke-width:2;stroke-linecap:round;stroke-linejoin:round;stroke-opacity:1;display:inline" id="path4219-6-6" d="m -30.145371,-1.781361 0,35.999998 -23.999999,0 0,-27.999998 8,-8 z"/><path style="fill:url(#linearGradient3049);fill-opacity:1;fill-rule:nonzero;stroke:none;stroke-width:2.20000004999999987;stroke-linecap:round;stroke-linejoin:round;stroke-miterlimit:4;stroke-opacity:1;stroke-dasharray:none;stroke-dashoffset:0;marker:none;visibility:visible;display:inline;overflow:visible;enable-background:accumulate" id="rect3165" d="m -12.245372,40.218639 -12,-8 12,-8 0,4 12.00000138,0 0,8 -12.00000138,0 z"/><path style="fill:none;stroke:#8ae234;stroke-width:2;stroke-linecap:butt;stroke-linejoin:round;stroke-opacity:1" id="path4087" d="m -14.245372,36.218639 0,-2 12.0000018,0 0,-4"/><path style="fill:none;stroke:#8ae234;stroke-width:2;stroke-linecap:butt;stroke-linejoin:miter;stroke-opacity:1" id="path4089" d="M -12.063554,37.809548 -22.109009,31.082276"/><path style="fill:none;stroke:#8ae234;stroke-width:1px;stroke-linecap:butt;stroke-linejoin:miter;stroke-opacity:1" id="path4091" d="m -12.245372,34.218639 -2,2"/><path style="fill:none;stroke:#172a04;stroke-width:2.20000005;stroke-linecap:round;stroke-linejoin:round;stroke-miterlimit:4;stroke-opacity:1;stroke-dasharray:none;stroke-dashoffset:0;marker:none;visibility:visible;display:inline;overflow:visible;enable-background:accumulate" id="rect3165-1" d="m -12.145371,40.218639 -12,-8 12,-8 0,4 12.0000022,0 0,8 -12.0000022,0 z"/><path id="path3009" d="m -12.145371,2.21864 -12,-4 0,15.999999 12,4 z" style="fill:#4e9a06;fill-opacity:1;stroke:none;display:inline"/><path style="fill:none;stroke:#73d216;stroke-width:2;stroke-linecap:butt;stroke-linejoin:miter;stroke-opacity:1;display:inline" id="path4167" d="M -12.145371,16.218639 -26.14537,10.21864"/><path id="path3009-6" d="m 1.8546312,-4.78136 -14.0000022,7 0,15.999999 14.0000022,-7.999999 z" style="fill:#73d216;fill-opacity:1;stroke:none;display:inline"/><path style="fill:none;stroke:#73d216;stroke-width:2;stroke-linecap:butt;stroke-linejoin:miter;stroke-opacity:1;display:inline" id="path4169" d="m -14.145371,2.21864 0,13.999999"/><path id="path3029" d="m -26.14537,-3.78136 14,-6 14.0000012,6 -14.0000022,6 z" style="fill:#8ae234;fill-opacity:1;stroke:#172a04;stroke-width:2;stroke-linecap:round;stroke-linejoin:round;stroke-miterlimit:4;stroke-opacity:1;stroke-dasharray:none;display:inline"/><path style="fill:none;stroke:#73d216;stroke-width:2;stroke-linecap:butt;stroke-linejoin:miter;stroke-opacity:1;display:inline" id="path4171" d="m -24.14537,-1.78136 0,14"/><path id="path5345" d="m -25.14537,-3.78136 27.0000012,0" style="fill:none;stroke:#172a04;stroke-width:2;stroke-linecap:round;stroke-linejoin:round;stroke-miterlimit:4;stroke-opacity:1;stroke-dasharray:none;display:inline"/><path style="fill:none;stroke:#73d216;stroke-width:2;stroke-linecap:butt;stroke-linejoin:miter;stroke-opacity:1;display:inline" id="path4173" d="m -26.14537,-1.78136 13.999999,6"/><path id="path5347-7" d="m -26.14537,-3.78136 14,22" style="fill:none;stroke:#172a04;stroke-width:2;stroke-linecap:round;stroke-linejoin:round;stroke-miterlimit:4;stroke-opacity:1;stroke-dasharray:none;display:inline"/><path id="path3009-9" d="m -12.145371,2.21864 -13.999999,-6 0,16 13.999999,5.999999 z" style="fill:none;stroke:#172a04;stroke-width:2;stroke-linecap:butt;stroke-linejoin:round;stroke-miterlimit:4;stroke-opacity:1;stroke-dasharray:none;display:inline"/><path style="fill:none;stroke:#8ae234;stroke-width:2;stroke-linecap:butt;stroke-linejoin:miter;stroke-opacity:1;display:inline" id="path4193" d="M -12.145371,16.218639 1.8546312,9.21864"/><path style="fill:none;stroke:#8ae234;stroke-width:2;stroke-linecap:butt;stroke-linejoin:miter;stroke-opacity:1;display:inline" id="path4195" d="m -0.1453688,9.21864 0,-11"/><path style="fill:none;stroke:#8ae234;stroke-width:2;stroke-linecap:butt;stroke-linejoin:miter;stroke-opacity:1;display:inline" id="path4197" d="m 1.8546312,-1.78136 -14.0000022,6"/><path style="fill:none;stroke:#8ae234;stroke-width:2;stroke-linecap:butt;stroke-linejoin:miter;stroke-opacity:1;display:inline" id="path4199" d="m -10.145368,16.218639 0,-13.999999"/><path id="path3009-6-4" d="m 1.8546312,-3.78136 -14.0000022,6 0,15.999999 14.0000022,-7.999999 z" style="fill:none;stroke:#172a04;stroke-width:2;stroke-linecap:butt;stroke-linejoin:round;stroke-miterlimit:4;stroke-opacity:1;stroke-dasharray:none;display:inline"/><path id="path5347" d="m -12.145371,2.21864 14.0000022,8" style="fill:none;stroke:#172a04;stroke-width:2;stroke-linecap:round;stroke-linejoin:round;stroke-miterlimit:4;stroke-opacity:1;stroke-dasharray:none;display:inline"/></g></g></svg>