<svg xmlns="http://www.w3.org/2000/svg" xmlns:svg="http://www.w3.org/2000/svg" xmlns:xlink="http://www.w3.org/1999/xlink" id="svg9484" width="64" height="64" version="1.1"><title id="title3749">mesh_boundary</title><defs id="defs9486"><linearGradient id="linearGradient3787"><stop style="stop-color:#3465a4;stop-opacity:1" id="stop3789" offset="0"/><stop style="stop-color:#3465a4;stop-opacity:0" id="stop3791" offset="1"/></linearGradient><linearGradient id="linearGradient12537"><stop style="stop-color:#00fd00;stop-opacity:1" id="stop12539" offset="0"/><stop style="stop-color:#00fd00;stop-opacity:0" id="stop12541" offset="1"/></linearGradient><linearGradient id="linearGradient12547" x1="4.5" x2="30.5" y1="14.755" y2="14.755" gradientTransform="translate(35,-2)" gradientUnits="userSpaceOnUse" xlink:href="#linearGradient12537"/><linearGradient id="linearGradient3793" x1="17.662" x2="18.212" y1="12.138" y2="15.856" gradientTransform="matrix(2.0769231,0,0,2.0769231,-0.3221559,-32.300461)" gradientUnits="userSpaceOnUse" xlink:href="#linearGradient3787"/></defs><metadata id="metadata9489"/><g id="layer1" transform="translate(0,32)"><path style="fill:#73d216;stroke:none" id="path2991-3" d="m 5,3 46,-30 8,54 z"/><path style="fill:none;stroke:#8ae234;stroke-width:4.15384626;stroke-linecap:butt;stroke-linejoin:miter;stroke-opacity:1" id="path3779" d="M 9.361434,4.2882443 50.374642,-22.064326"/><path style="fill:none;stroke:#8ae234;stroke-width:4.15384626;stroke-linecap:butt;stroke-linejoin:miter;stroke-opacity:1" id="path3781" d="m 47.039395,-23.701405 7.249288,47.223369"/><path style="fill:none;stroke:#8ae234;stroke-width:4.15384626;stroke-linecap:butt;stroke-linejoin:miter;stroke-opacity:1" id="path3783" d="M 58.081977,21.833612 8,0"/><path style="fill:none;stroke:#172a04;stroke-width:4.15384626;stroke-linecap:round;stroke-linejoin:round;stroke-opacity:1" id="path2991" d="m 5,3 46,-30 8,54 z"/><path style="fill:#204a87;fill-opacity:1;stroke:#0b1521;stroke-width:2.15216589;stroke-opacity:1" id="path10509" d="m 25.195623,14.792462 c 0,2.005318 -2.261747,3.630949 -5.051754,3.630949 -2.790006,0 -5.051754,-1.625631 -5.051754,-3.630949 0,-2.005317 2.261748,-3.630948 5.051754,-3.630948 2.790007,0 5.051754,1.625631 5.051754,3.630948 z" transform="matrix(1.8607197,0,0,2.0020199,0.565081,-29.722958)"/><path style="fill:none;stroke:url(#linearGradient3793);stroke-width:4.15384626;stroke-linecap:butt;stroke-linejoin:miter;stroke-opacity:1" id="path3785" d="M 32.908613,0.73482268 C 32.199859,-3.2235373 40.336618,-4.8362971 43,-1"/></g></svg>