<svg xmlns="http://www.w3.org/2000/svg" xmlns:svg="http://www.w3.org/2000/svg" xmlns:xlink="http://www.w3.org/1999/xlink" id="svg2766" width="64" height="64" version="1.1"><title id="title870">Mesh_Scale</title><defs id="defs2768"><linearGradient id="linearGradient3856"><stop id="stop3858" offset="0" style="stop-color:#4e9a06;stop-opacity:1"/><stop id="stop3860" offset="1" style="stop-color:#8ae234;stop-opacity:1"/></linearGradient><linearGradient id="linearGradient3824"><stop id="stop3826" offset="0" style="stop-color:#8ae234;stop-opacity:1"/><stop id="stop3828" offset="1" style="stop-color:#4e9a06;stop-opacity:1"/></linearGradient><linearGradient id="linearGradient3787"><stop style="stop-color:#0619c0;stop-opacity:1" id="stop3789" offset="0"/><stop style="stop-color:#379cfb;stop-opacity:1" id="stop3791" offset="1"/></linearGradient><linearGradient id="linearGradient3864"><stop style="stop-color:#0619c0;stop-opacity:1" id="stop3866" offset="0"/><stop style="stop-color:#379cfb;stop-opacity:1" id="stop3868" offset="1"/></linearGradient><linearGradient id="linearGradient3036" x1="56.172" x2="21.69" y1="29.28" y2="36.08" gradientTransform="matrix(0,-1.4500001,1.4705882,0,-15.05882,91.45)" gradientUnits="userSpaceOnUse" xlink:href="#linearGradient3895"/><linearGradient id="linearGradient3895"><stop id="stop3897" offset="0" style="stop-color:#729fcf;stop-opacity:1"/><stop id="stop3899" offset="1" style="stop-color:#204a87;stop-opacity:1"/></linearGradient><linearGradient id="linearGradient3012" x1="44.058" x2="32.329" y1="18.866" y2="43.94" gradientTransform="matrix(0.38366341,-0.38366341,0.41875298,0.41875298,12.196434,25.003375)" gradientUnits="userSpaceOnUse" xlink:href="#linearGradient3895"/><linearGradient id="linearGradient3830" x1="591.591" x2="599.127" y1="103.195" y2="128.195" gradientTransform="translate(-0.9420628,1.000004)" gradientUnits="userSpaceOnUse" xlink:href="#linearGradient3824"/><linearGradient id="linearGradient3862" x1="613.258" x2="595.359" y1="135.195" y2="68.195" gradientUnits="userSpaceOnUse" xlink:href="#linearGradient3856"/></defs><g id="layer1"><g id="g3518" transform="matrix(1.0614931,0,0,1,-612.96941,-69.194602)"><path style="display:inline;overflow:visible;visibility:visible;fill:url(#linearGradient3862);fill-opacity:1;fill-rule:nonzero;stroke:#172a04;stroke-width:1.94121;stroke-linecap:butt;stroke-linejoin:round;stroke-miterlimit:4;stroke-dasharray:none;stroke-dashoffset:0;stroke-opacity:1;marker:none;enable-background:accumulate" id="rect3446" d="m 580.28581,72.194602 3e-5,14 h 5.65241 v -8 h 1.88414 v -6 z m 11.30486,0 v 6 h 7.53655 v -6 z m 11.30483,0 v 6 h 7.53655 v -6 z m 11.30483,0 v 6 h 7.53655 v -6 z m 11.30483,0 v 6 h 3.76828 v 4 h 5.65241 v -10 z m 3.76828,14 v 8 h 5.65241 v -8 z m -48.9876,4 v 8 h 5.65241 v -8 z m 48.9876,8 v 7.999998 h 5.65241 v -7.999998 z m 0,11.999998 v 8 h 5.65241 v -8 z m 0,12 v 2 h -3.76828 v 6 h 9.42069 v -8 z m -18.84139,2 v 6 h 11.30483 v -6 z"/><path id="path3018" d="m 581.09443,102.94082 v 26.48566 h 24.84408 v -26.48566 z" style="fill:#4e9a06;stroke:#172a04;stroke-width:3.49797;stroke-linecap:round;stroke-linejoin:round;stroke-miterlimit:4;stroke-dasharray:none;stroke-opacity:1"/><path id="path3832" d="M 36,57 H 46" transform="matrix(0.94206924,0,0,1,577.45963,69.194602)" style="fill:none;stroke:#8ae234;stroke-width:2;stroke-linecap:butt;stroke-linejoin:miter;stroke-opacity:1"/><path id="path3834" d="m 52,57 h 5 v -2 h 3" transform="matrix(0.94206924,0,0,1,577.45963,69.194602)" style="fill:none;stroke:#8ae234;stroke-width:2;stroke-linecap:butt;stroke-linejoin:round;stroke-opacity:1"/><path id="path3836" d="M 57,48 V 42" transform="matrix(0.94206924,0,0,1,577.45963,69.194602)" style="fill:none;stroke:#8ae234;stroke-width:2;stroke-linecap:butt;stroke-linejoin:miter;stroke-opacity:1"/><path id="path3838" d="M 57,36 V 30" transform="matrix(0.94206924,0,0,1,577.45963,69.194602)" style="fill:none;stroke:#8ae234;stroke-width:2;stroke-linecap:butt;stroke-linejoin:miter;stroke-opacity:1"/><path id="path3840" d="M 57,24 V 18" transform="matrix(0.94206924,0,0,1,577.45963,69.194602)" style="fill:none;stroke:#8ae234;stroke-width:2;stroke-linecap:butt;stroke-linejoin:miter;stroke-opacity:1"/><path id="path3842" d="M 53,8 V 5 h 7" transform="matrix(0.94206924,0,0,1,577.45963,69.194602)" style="fill:none;stroke:#8ae234;stroke-width:2;stroke-linecap:butt;stroke-linejoin:miter;stroke-opacity:1"/><path id="path3844" d="M 46,5 H 40" transform="matrix(0.94206924,0,0,1,577.45963,69.194602)" style="fill:none;stroke:#8ae234;stroke-width:2;stroke-linecap:butt;stroke-linejoin:miter;stroke-opacity:1"/><path id="path3846" d="M 34,5 H 28" transform="matrix(0.94206924,0,0,1,577.45963,69.194602)" style="fill:none;stroke:#8ae234;stroke-width:2;stroke-linecap:butt;stroke-linejoin:miter;stroke-opacity:1"/><path id="path3848" d="M 22,5 H 16" transform="matrix(0.94206924,0,0,1,577.45963,69.194602)" style="fill:none;stroke:#8ae234;stroke-width:2;stroke-linecap:butt;stroke-linejoin:miter;stroke-opacity:1"/><path id="path3850" d="M 10,5 H 5 v 11" transform="matrix(0.94206924,0,0,1,577.45963,69.194602)" style="fill:none;stroke:#8ae234;stroke-width:2;stroke-linecap:butt;stroke-linejoin:miter;stroke-opacity:1"/><path id="path3852" d="m 5,22 v 6" transform="matrix(0.94206924,0,0,1,577.45963,69.194602)" style="fill:none;stroke:#8ae234;stroke-width:2;stroke-linecap:butt;stroke-linejoin:miter;stroke-opacity:1"/><path id="path3854" d="M 57,12 V 9" transform="matrix(0.94206924,0,0,1,577.45963,69.194602)" style="fill:none;stroke:#8ae234;stroke-width:2;stroke-linecap:butt;stroke-linejoin:miter;stroke-opacity:1"/><path id="path889" d="m 581.09443,102.94082 24.84408,26.48566" style="fill:#172a04;stroke:#172a04;stroke-width:2.42651;stroke-linecap:butt;stroke-linejoin:miter;stroke-miterlimit:4;stroke-dasharray:none;stroke-opacity:1"/><path id="path924" d="m 587.76414,106.15385 14.97158,-0.0736 0.0693,16.11295 z" style="fill:none;stroke:#8ae234;stroke-width:2.91181;stroke-linecap:butt;stroke-linejoin:miter;stroke-miterlimit:4;stroke-dasharray:none;stroke-opacity:1"/><path id="path926" d="m 584.25789,110.23022 0.0654,16.02995 14.96994,-0.0326 z" style="fill:none;stroke:#8ae234;stroke-width:2.91181;stroke-linecap:butt;stroke-linejoin:miter;stroke-miterlimit:4;stroke-dasharray:none;stroke-opacity:1"/></g><path id="path3343" d="M 35,15 39.062816,19.37832 31,27 l 6,6 7.71967,-7.964826 4.24264,4.242641 L 49,15 Z" style="fill:url(#linearGradient3012);fill-opacity:1;fill-rule:evenodd;stroke:#0b1521;stroke-width:2;stroke-linecap:butt;stroke-linejoin:round;stroke-miterlimit:4;stroke-dasharray:none;stroke-opacity:1"/><path id="path3343-2" d="m 39.550023,17 2.32515,2.37832 -7.987667,7.653821 3.080353,3.112494 7.751811,-7.937888 2.221642,2.240472 L 47.000002,17 Z" style="fill:none;stroke:#729fcf;stroke-width:2;stroke-linecap:butt;stroke-linejoin:miter;stroke-miterlimit:4;stroke-dasharray:none;stroke-opacity:1"/></g><metadata id="metadata5370"/></svg>