<svg xmlns="http://www.w3.org/2000/svg" xmlns:svg="http://www.w3.org/2000/svg" xmlns:xlink="http://www.w3.org/1999/xlink" id="svg3052" width="64" height="64" version="1.1"><title id="title3725">Tree_Mesh</title><defs id="defs3054"><radialGradient id="radialGradient2275-5" cx="25.188" cy="41.625" r="18.063" fx="25.188" fy="41.625" gradientTransform="matrix(1,0,0,0.32526,0,28.08607)" gradientUnits="userSpaceOnUse" xlink:href="#linearGradient2269-0"/><linearGradient id="linearGradient2269-0"><stop id="stop2271-4" offset="0" style="stop-color:#000;stop-opacity:1"/><stop id="stop2273-87" offset="1" style="stop-color:#000;stop-opacity:0"/></linearGradient><radialGradient id="radialGradient3169" cx="25.188" cy="41.625" r="18.063" fx="25.188" fy="41.625" gradientTransform="matrix(1,0,0,0.32526,0,28.08607)" gradientUnits="userSpaceOnUse" xlink:href="#linearGradient2269-0"/></defs><metadata id="metadata3057"/><g id="layer1"><g id="g3884" transform="matrix(-0.2109556,0.9774957,0.8838524,0.1907462,-82.022362,-158.02055)"><path id="path2267" d="m 43.25,41.625 c 0,3.244673 -8.086857,5.875 -18.0625,5.875 -9.975643,0 -18.0625,-2.630327 -18.0625,-5.875 0,-3.244673 8.086857,-5.875 18.0625,-5.875 9.975643,0 18.0625,2.630327 18.0625,5.875 z" transform="matrix(-0.34490802,1.7675115,1.0422728,0.24876696,148.23989,117.79495)" style="opacity:.26704544;color:#000;fill:url(#radialGradient3169);fill-opacity:1;fill-rule:evenodd;stroke:none;stroke-width:1;marker:none;visibility:visible;display:inline;overflow:visible"/><path style="fill:#8ae234;stroke:#172a04;stroke-width:2.10328221;stroke-linecap:round;stroke-linejoin:round;stroke-opacity:1" id="path2993" d="m 139.57372,149.87368 12.30643,-10.63966 33.65676,5.77029 -14.68333,12.33517 z"/><path style="fill:#73d216;stroke:none" id="path2995" d="m 139.57372,149.87368 1.37852,13.90595 29.32487,6.99918 0.57647,-13.43933 z"/><path style="fill:#4e9a06;stroke:none" id="path2997" d="m 140.95224,163.77963 13.53037,14.5435 27.36988,6.53257 -11.57538,-14.07689 z"/><path style="fill:#73d216;stroke:#172a04;stroke-width:2.10328221;stroke-linecap:round;stroke-linejoin:round;stroke-opacity:1" id="path2999" d="m 181.85249,184.8557 -11.19525,15.43052 -24.99298,-8.22808 8.81835,-13.73501 z"/><path style="fill:#4e9a06;stroke:none" id="path3001" d="m 170.65724,200.28622 -9.6204,-13.61028 -26.94796,-8.69469 11.57538,14.07689 z"/><path style="fill:none;stroke:#8ae234;stroke-width:2.10328221;stroke-linecap:butt;stroke-linejoin:miter;stroke-opacity:1" id="path3771" d="m 141.52871,150.34029 1.37852,13.90595"/><path style="fill:none;stroke:#8ae234;stroke-width:2.10328221;stroke-linecap:butt;stroke-linejoin:miter;stroke-opacity:1" id="path3773" d="m 141.37415,161.61751 28.34737,6.76588"/><path style="fill:none;stroke:#8ae234;stroke-width:2.10328221;stroke-linecap:butt;stroke-linejoin:miter;stroke-opacity:1" id="path3775" d="m 168.32212,170.3122 0.57647,-13.43933"/><path style="fill:none;stroke:#8ae234;stroke-width:2.10328221;stroke-linecap:butt;stroke-linejoin:miter;stroke-opacity:1" id="path3777" d="m 170.43167,159.5016 -30.30236,-7.23249"/><path style="fill:none;stroke:#172a04;stroke-width:2.10328221;stroke-linecap:round;stroke-linejoin:round;stroke-opacity:1" id="path2995-3" d="m 139.57372,149.87369 1.37852,13.90594 29.32486,6.99919 0.57648,-13.43934 z"/><path style="fill:none;stroke:#73d216;stroke-width:2.10328221;stroke-linecap:butt;stroke-linejoin:miter;stroke-opacity:1" id="path3797" d="m 147.3728,167.57489 24.43739,5.83266"/><path style="fill:none;stroke:#73d216;stroke-width:2.10328221;stroke-linecap:butt;stroke-linejoin:miter;stroke-opacity:1" id="path3799" d="M 178.92,184.15578 167.34462,170.0789"/><path style="fill:none;stroke:#73d216;stroke-width:2.10328221;stroke-linecap:butt;stroke-linejoin:miter;stroke-opacity:1" id="path3801" d="m 176.40943,181.29374 -23.4599,-5.59934"/><path style="fill:none;stroke:#73d216;stroke-width:2.10328221;stroke-linecap:butt;stroke-linejoin:miter;stroke-opacity:1" id="path3803" d="M 157.4151,179.02305 144.56558,164.56491"/><path style="fill:none;stroke:#172a04;stroke-width:2.10328221;stroke-linecap:round;stroke-linejoin:round;stroke-opacity:1" id="path2997-6" d="m 140.95224,163.77963 13.53037,14.5435 27.36988,6.53257 -11.57538,-14.07689 z"/><path style="fill:none;stroke:#73d216;stroke-width:2.10328221;stroke-linecap:butt;stroke-linejoin:miter;stroke-opacity:1" id="path3823" d="m 136.59945,180.84329 25.97047,8.46138"/><path style="fill:none;stroke:#73d216;stroke-width:2.10328221;stroke-linecap:butt;stroke-linejoin:miter;stroke-opacity:1" id="path3825" d="m 158.51905,186.56593 8.60928,12.35073"/><path style="fill:none;stroke:#73d216;stroke-width:2.10328221;stroke-linecap:butt;stroke-linejoin:miter;stroke-opacity:1" id="path3827" d="m 168.14666,197.42418 -24.01548,-7.99477"/><path style="fill:none;stroke:#73d216;stroke-width:2.10328221;stroke-linecap:butt;stroke-linejoin:miter;stroke-opacity:1" id="path3829" d="M 148.74858,192.57573 137.62751,178.85155"/><path style="fill:none;stroke:#172a04;stroke-width:2.10328221;stroke-linecap:round;stroke-linejoin:round;stroke-opacity:1" id="path3001-7" d="m 170.65724,200.28622 -9.62039,-13.61027 -26.94797,-8.69469 11.57538,14.07688 z"/></g></g></svg>