<svg xmlns="http://www.w3.org/2000/svg" xmlns:svg="http://www.w3.org/2000/svg" xmlns:xlink="http://www.w3.org/1999/xlink" id="svg2" width="64" height="64" version="1.1"><defs id="defs4"><marker id="TriangleOutS" orient="auto" refX="0" refY="0" style="overflow:visible"><path id="path4211" d="M 5.77,0.0 L -2.88,5.0 L -2.88,-5.0 L 5.77,0.0 z" transform="scale(0.2)" style="fill-rule:evenodd;stroke:#000;stroke-width:1pt"/></marker><marker id="TriangleInS" orient="auto" refX="0" refY="0" style="overflow:visible"><path id="path4202" d="M 5.77,0.0 L -2.88,5.0 L -2.88,-5.0 L 5.77,0.0 z" transform="scale(-0.2)" style="fill-rule:evenodd;stroke:#000;stroke-width:1pt"/></marker><linearGradient id="linearGradient3857"><stop style="stop-color:#ce5c00;stop-opacity:1" id="stop3859" offset="0"/><stop style="stop-color:#fcaf3e;stop-opacity:1" id="stop3861" offset="1"/></linearGradient><marker id="TriangleOutM" orient="auto" refX="0" refY="0" style="overflow:visible"><path id="path3966" d="m 5.77,0 -8.65,5 0,-10 8.65,5 z" transform="scale(0.4,0.4)" style="fill-rule:evenodd;stroke:#000;stroke-width:1pt"/></marker><marker id="TriangleInM" orient="auto" refX="0" refY="0" style="overflow:visible"><path id="path3957" d="m 5.77,0 -8.65,5 0,-10 8.65,5 z" transform="scale(-0.4,-0.4)" style="fill-rule:evenodd;stroke:#000;stroke-width:1pt"/></marker><marker id="TriangleOutL" orient="auto" refX="0" refY="0" style="overflow:visible"><path id="path3963" d="m 5.77,0 -8.65,5 0,-10 8.65,5 z" transform="scale(0.8,0.8)" style="fill-rule:evenodd;stroke:#000;stroke-width:1pt"/></marker><marker id="Arrow1Lend" orient="auto" refX="0" refY="0" style="overflow:visible"><path id="path3824" d="M 0,0 5,-5 -12.5,0 5,5 0,0 z" transform="matrix(-0.8,0,0,-0.8,-10,0)" style="fill-rule:evenodd;stroke:#000;stroke-width:1pt"/></marker><marker id="TriangleInL" orient="auto" refX="0" refY="0" style="overflow:visible"><path id="path3954" d="m 5.77,0 -8.65,5 0,-10 8.65,5 z" transform="scale(-0.8,-0.8)" style="fill-rule:evenodd;stroke:#000;stroke-width:1pt"/></marker><marker id="Arrow2Lstart" orient="auto" refX="0" refY="0" style="overflow:visible"><path id="path3839" d="M 8.7185878,4.0337352 -2.2072895,0.01601326 8.7185884,-4.0017078 c -1.7454984,2.3720609 -1.7354408,5.6174519 -6e-7,8.035443 z" transform="matrix(1.1,0,0,1.1,1.1,0)" style="fill-rule:evenodd;stroke-width:.625;stroke-linejoin:round"/></marker><marker id="Arrow1Lstart" orient="auto" refX="0" refY="0" style="overflow:visible"><path id="path3821" d="M 0,0 5,-5 -12.5,0 5,5 0,0 z" transform="matrix(0.8,0,0,0.8,10,0)" style="fill-rule:evenodd;stroke:#000;stroke-width:1pt"/></marker><linearGradient id="linearGradient3863" x1="27" x2="33" y1="1004.362" y2="1036.362" gradientUnits="userSpaceOnUse" xlink:href="#linearGradient3857"/><linearGradient id="linearGradient10861-3" x1="28" x2="36" y1="1006.362" y2="1036.362" gradientTransform="translate(7e-7,1.64e-5)" gradientUnits="userSpaceOnUse" xlink:href="#linearGradient4029"/><linearGradient id="linearGradient4029"><stop id="stop4031" offset="0" style="stop-color:#06989a;stop-opacity:1"/><stop id="stop4033" offset="1" style="stop-color:#16d0d2;stop-opacity:1"/></linearGradient><linearGradient id="linearGradient3837-6" x1="24" x2="34" y1="994.362" y2="1046.362" gradientTransform="translate(7e-7,1.64e-5)" gradientUnits="userSpaceOnUse" xlink:href="#linearGradient3995"/><linearGradient id="linearGradient3995"><stop style="stop-color:#16d0d2;stop-opacity:1" id="stop3997" offset="0"/><stop style="stop-color:#34e0e2;stop-opacity:1" id="stop3999" offset="1"/></linearGradient></defs><metadata id="metadata7"/><g id="layer1" transform="translate(0,-988.36218)"><g id="g7108" transform="matrix(-1,0,0,-1,64.000002,2040.7244)"><g id="g536"><rect style="color:#000;display:inline;overflow:visible;visibility:visible;fill:url(#linearGradient3837-6);fill-opacity:1;fill-rule:nonzero;stroke:#302b00;stroke-width:2;stroke-linecap:round;stroke-linejoin:round;stroke-miterlimit:4;stroke-dasharray:none;stroke-dashoffset:0;stroke-opacity:1;marker:none;enable-background:accumulate" id="rect7087-7" width="58" height="58" x="3" y="991.362"/><rect style="color:#000;display:inline;overflow:visible;visibility:visible;fill:none;fill-opacity:1;fill-rule:nonzero;stroke:#34e0e2;stroke-width:2;stroke-linecap:round;stroke-linejoin:miter;stroke-miterlimit:4;stroke-dasharray:none;stroke-dashoffset:0;stroke-opacity:1;marker:none;enable-background:accumulate" id="rect7087-3-5" width="54" height="54" x="5" y="993.362"/><rect style="color:#000;display:inline;overflow:visible;visibility:visible;fill:url(#linearGradient10861-3);fill-opacity:1;fill-rule:nonzero;stroke:#06989a;stroke-width:2;stroke-linecap:round;stroke-linejoin:round;stroke-miterlimit:4;stroke-dasharray:none;stroke-dashoffset:0;stroke-opacity:1;marker:none;enable-background:accumulate" id="rect2985-3" width="34" height="34" x="15" y="1003.362"/><g id="g169" transform="rotate(90,32.000018,1020.3622)"><path id="path3041-5" d="m 16.000005,1042.3622 h 18 v 0 -43.99996 h -18" style="color:#000;display:inline;overflow:visible;visibility:visible;fill:none;stroke:#000;stroke-width:4;stroke-linecap:round;stroke-linejoin:round;stroke-miterlimit:4;stroke-dasharray:4,8;stroke-dashoffset:10;stroke-opacity:1;marker:none;enable-background:accumulate"/><path style="fill:#000;stroke:none" id="path3018-6" d="m 19.000005,993.36224 v 9.99996 l -9,-4.99996 z"/><path style="fill:#000;stroke:none" id="path3018-1-2" d="m 19.000005,1037.3622 v 10 l -8.99998,-5 z"/></g></g></g></g></svg>