<svg xmlns="http://www.w3.org/2000/svg" xmlns:svg="http://www.w3.org/2000/svg" xmlns:xlink="http://www.w3.org/1999/xlink" id="svg3085" width="64" height="64" version="1.1"><defs id="defs3087"><linearGradient id="linearGradient5062"><stop id="stop5058" offset="0" style="stop-color:#729fcf;stop-opacity:1"/><stop id="stop5060" offset="1" style="stop-color:#204a87;stop-opacity:1"/></linearGradient><linearGradient id="linearGradient3836-0"><stop style="stop-color:#c4a000;stop-opacity:1" id="stop5008" offset="0"/><stop style="stop-color:#fce94f;stop-opacity:1" id="stop5010" offset="1"/></linearGradient><linearGradient id="linearGradient7597"><stop style="stop-color:#000003;stop-opacity:1" id="stop7599" offset="0"/><stop style="stop-color:#000003;stop-opacity:0" id="stop7601" offset="1"/></linearGradient><linearGradient id="linearGradient3893"><stop style="stop-color:#fff;stop-opacity:1" id="stop3895" offset="0"/><stop style="stop-color:#fff;stop-opacity:0" id="stop3897" offset="1"/></linearGradient><linearGradient id="linearGradient7603" x1="15.715" x2="34.136" y1="22.299" y2="22.299" gradientUnits="userSpaceOnUse" xlink:href="#linearGradient7597"/><linearGradient id="linearGradient3836-0-3"><stop id="stop3838-2" offset="0" style="stop-color:#c4a000;stop-opacity:1"/><stop id="stop3840-5" offset="1" style="stop-color:#fce94f;stop-opacity:1"/></linearGradient><linearGradient id="linearGradient5064" x1="33.056" x2="42.195" y1="43.596" y2="57.417" gradientUnits="userSpaceOnUse" xlink:href="#linearGradient5062"/><linearGradient id="linearGradient5072" x1="3.813" x2="19.801" y1="51.689" y2="51.689" gradientUnits="userSpaceOnUse" xlink:href="#linearGradient5062"/><linearGradient id="linearGradient5080" x1="13.818" x2="29.806" y1="25.689" y2="25.689" gradientUnits="userSpaceOnUse" xlink:href="#linearGradient5062"/><linearGradient id="linearGradient5088" x1="43.818" x2="59.806" y1="11.684" y2="11.684" gradientUnits="userSpaceOnUse" xlink:href="#linearGradient5062"/></defs><metadata id="metadata3090"/><g id="g3438"><ellipse style="opacity:1;vector-effect:none;fill:#fff;fill-opacity:1;stroke:#000;stroke-width:2;stroke-linecap:square;stroke-linejoin:miter;stroke-miterlimit:4;stroke-dasharray:none;stroke-dashoffset:0;stroke-opacity:1" id="path1917" cx="32" cy="32" rx="22.001" ry="22.001"/><circle style="opacity:1;vector-effect:none;fill:none;fill-opacity:1;stroke:#fff;stroke-width:2.58076358;stroke-linecap:square;stroke-linejoin:miter;stroke-miterlimit:4;stroke-dasharray:none;stroke-dashoffset:0;stroke-opacity:1" id="path1921" cx="32" cy="32" r="18.71"/><ellipse style="opacity:1;vector-effect:none;fill:#eeeeec;fill-opacity:1;stroke:#d3d7cf;stroke-width:2;stroke-linecap:square;stroke-linejoin:miter;stroke-miterlimit:4;stroke-dasharray:none;stroke-dashoffset:0;stroke-opacity:1" id="path1923" cx="32" cy="32" rx="17.082" ry="17.082"/><ellipse style="opacity:1;vector-effect:none;fill:none;fill-opacity:1;stroke:#000;stroke-width:2;stroke-linecap:square;stroke-linejoin:miter;stroke-miterlimit:4;stroke-dasharray:none;stroke-dashoffset:0;stroke-opacity:1" id="path1925" cx="32" cy="32" rx="15.06" ry="14.994"/><g id="g982" transform="matrix(0.8,0,0,0.8,34.558736,11.590457)"><path id="path4250-71-8" d="M 14.970374,19.82823 A 8.993818,8.9934077 0.02042283 1 1 28.632785,31.527845 8.993818,8.9934077 0.02042283 1 1 14.970374,19.82823 Z" style="fill:none;stroke:#2e2900;stroke-width:1.99999988;stroke-miterlimit:4;stroke-dasharray:none;stroke-opacity:1"/><path id="path4250-7-3-8" d="M 16.49299,21.139192 A 6.9999997,7.0000001 0 1 1 27.126578,30.245604 6.9999997,7.0000001 0 0 1 16.49299,21.139192 Z" style="fill:url(#linearGradient5080);fill-opacity:1;stroke:#729fcf;stroke-width:1.99999952;stroke-miterlimit:4;stroke-dasharray:none;stroke-opacity:1"/></g><g id="g986" transform="matrix(0.8,0,0,0.8,22.73212,-29.361449)"><path id="path4250-71-1" d="M 4.964639,45.82823 A 8.993818,8.9934077 0.02042283 1 1 18.62705,57.527845 8.993818,8.9934077 0.02042283 1 1 4.964639,45.82823 Z" style="fill:none;stroke:#2e2900;stroke-width:1.99999988;stroke-miterlimit:4;stroke-dasharray:none;stroke-opacity:1"/><path id="path4250-7-3-5" d="M 6.487255,47.139192 A 6.9999997,7.0000001 0 1 1 17.120843,56.245604 6.9999997,7.0000001 0 0 1 6.487255,47.139192 Z" style="fill:url(#linearGradient5072);fill-opacity:1;stroke:#729fcf;stroke-width:1.99999952;stroke-miterlimit:4;stroke-dasharray:none;stroke-opacity:1"/></g><g id="g1063" transform="matrix(0.8,0,0,0.8,2.5350356,6.6530409)"><g id="g994" transform="translate(-39.970374,20.177215)"><path style="fill:none;stroke:#2e2900;stroke-width:1.99999988;stroke-miterlimit:4;stroke-dasharray:none;stroke-opacity:1" id="path4250-71" d="M 44.970374,5.822785 A 8.993818,8.9934077 0.02042283 1 1 58.632785,17.5224 8.993818,8.9934077 0.02042283 1 1 44.970374,5.822785 Z"/><path style="fill:url(#linearGradient5088);fill-opacity:1;stroke:#729fcf;stroke-width:1.99999952;stroke-miterlimit:4;stroke-dasharray:none;stroke-opacity:1" id="path4250-7-3" d="M 46.49299,7.133747 A 6.9999997,7.0000001 0 1 1 57.126578,16.240159 6.9999997,7.0000001 0 0 1 46.49299,7.133747 Z"/></g></g><g id="g990" transform="matrix(0.8,0,0,0.8,1.9275309,10.67659)"><path id="path4250-71-6" d="M 30.970374,45.82823 A 8.993818,8.9934077 0.02042283 1 1 44.632785,57.527845 8.993818,8.9934077 0.02042283 1 1 30.970374,45.82823 Z" style="fill:none;stroke:#2e2900;stroke-width:1.99999988;stroke-miterlimit:4;stroke-dasharray:none;stroke-opacity:1"/><path id="path4250-7-3-2" d="M 32.49299,47.139192 A 6.9999997,7.0000001 0 1 1 43.126578,56.245604 6.9999997,7.0000001 0 0 1 32.49299,47.139192 Z" style="fill:url(#linearGradient5064);fill-opacity:1;stroke:#729fcf;stroke-width:1.99999952;stroke-miterlimit:4;stroke-dasharray:none;stroke-opacity:1"/></g></g></svg>