<svg xmlns="http://www.w3.org/2000/svg" xmlns:svg="http://www.w3.org/2000/svg" id="svg8" width="64" height="64" version="1.1" viewBox="0 0 64 64"><metadata id="metadata5"/><g id="layer1" transform="translate(0,-280.06665)"><flowRoot id="flowRoot3725" xml:space="preserve" style="font-style:normal;font-weight:400;font-size:40px;line-height:1.25;font-family:sans-serif;letter-spacing:0;word-spacing:0;fill:#000;fill-opacity:1;stroke:none"><flowRegion id="flowRegion3727"><rect id="rect3729" width="62.857" height="405.714" x="240" y="362.52"/></flowRegion><flowPara id="flowPara3731"/></flowRoot><flowRoot id="flowRoot4572" xml:space="preserve" style="font-style:normal;font-weight:400;font-size:40px;line-height:1.25;font-family:sans-serif;letter-spacing:0;word-spacing:0;fill:#000;fill-opacity:1;stroke:none"><flowRegion id="flowRegion4574"><rect id="rect4576" width="271.429" height="147.143" x="67.143" y="216.805"/></flowRegion><flowPara id="flowPara4578"/></flowRoot><rect style="fill:none;fill-opacity:1;stroke:none;stroke-width:148.89118958;stroke-miterlimit:4;stroke-dasharray:none;stroke-opacity:1" id="rect834" width="64" height="64" x="0" y="280.067"/><g id="g853" style="fill:#e5ff80;fill-opacity:1;stroke:none;stroke-width:37.79527664;stroke-miterlimit:4;stroke-dasharray:none;stroke-opacity:1"><path id="path855" d="M 9.8014818,329.42585 30.160757,343.31602 57.128521,327.4728 39.071136,315.15311 Z" points="30.161 343.316 57.129 327.473 39.071 315.153 9.801 329.426" style="fill:#353564;fill-rule:evenodd;stroke:none;stroke-width:194.0941925;stroke-linejoin:round"/><path id="path865" d="m 39.071136,315.15311 0.874086,-34.41161 23.392499,15.95959 -6.2092,30.77171 z" points="39.945 280.741 63.338 296.701 57.129 327.473 39.071 315.153" style="fill:#e9e9ff;fill-rule:evenodd;stroke:none;stroke-width:194.0941925;stroke-linejoin:round"/><path id="path857" d="M 9.8014818,329.42585 0.69376043,294.04969 39.945222,280.7415 39.071136,315.15311 Z" points=".694 294.05 39.945 280.741 39.071 315.153 9.801 329.426" style="fill:#4d4d9f;fill-rule:evenodd;stroke:none;stroke-width:194.0941925;stroke-linejoin:round"/><path id="path863" d="m 30.160757,343.31602 -2.060281,-30.56804 35.237245,-16.04689 -6.2092,30.77171 z" points="28.1 312.748 63.338 296.701 57.129 327.473 30.161 343.316" style="fill:#8ec98d;fill-opacity:1;fill-rule:evenodd;stroke:none;stroke-width:194.0941925;stroke-linejoin:round"/><path id="path861" d="M 0.69376043,294.04969 28.100476,312.74798 63.337721,296.70109 39.945222,280.7415 Z" points="28.1 312.748 63.338 296.701 39.945 280.741 .694 294.05" style="fill:#ee9bfc;fill-opacity:1;fill-rule:evenodd;stroke:none;stroke-width:194.0941925;stroke-linejoin:round"/><path id="path859" d="M 9.8014818,329.42585 0.69376043,294.04969 28.100476,312.74798 30.160757,343.31602 Z" points=".694 294.05 28.1 312.748 30.161 343.316 9.801 329.426" style="fill:#a7d9f0;fill-opacity:1;fill-rule:evenodd;stroke:none;stroke-width:194.0941925;stroke-linejoin:round"/></g><path style="fill:none;stroke:#000;stroke-width:1.45151734;stroke-linecap:butt;stroke-linejoin:miter;stroke-miterlimit:4;stroke-dasharray:none;stroke-opacity:1" id="path833" d="M 1.7257872,295.06561 28.19751,313.19314 30.187504,342.8281 10.522794,329.36192 Z"/><path style="fill:none;stroke:#000;stroke-width:1.5;stroke-linecap:butt;stroke-linejoin:miter;stroke-opacity:1;stroke-miterlimit:4;stroke-dasharray:none" id="path835" d="M 0.69376043,294.04969 39.945222,280.7415 63.337721,296.70109 28.100476,312.74798 v 0 0"/><path style="fill:none;stroke:#000;stroke-width:1.5;stroke-linecap:butt;stroke-linejoin:miter;stroke-opacity:1;stroke-miterlimit:4;stroke-dasharray:none" id="path837" d="m 57.128521,327.4728 6.2092,-30.77171"/><path style="fill:none;stroke:#000;stroke-width:1.5;stroke-linecap:butt;stroke-linejoin:miter;stroke-opacity:1;stroke-miterlimit:4;stroke-dasharray:none" id="path839" d="M 30.160757,343.31602 57.128521,327.4728"/><path style="fill:none;stroke:#000;stroke-width:1.5;stroke-linecap:butt;stroke-linejoin:miter;stroke-opacity:1;stroke-miterlimit:4;stroke-dasharray:none" id="path841" d="m 0.69376043,294.04969 62.64396057,2.6514"/><path style="fill:none;stroke:#000;stroke-width:1.5;stroke-linecap:butt;stroke-linejoin:miter;stroke-opacity:1;stroke-miterlimit:4;stroke-dasharray:none" id="path843" d="m 30.160757,343.31602 33.176964,-46.61493 v 0 0"/><path style="fill:none;stroke:#000;stroke-width:1.47181559;stroke-linecap:butt;stroke-linejoin:miter;stroke-miterlimit:4;stroke-dasharray:none;stroke-opacity:1" id="path845" d="M 30.709234,343.85948 1.9309977,295.29193"/></g></svg>