<svg xmlns="http://www.w3.org/2000/svg" xmlns:freecad="http://www.freecadweb.org/wiki/index.php?title=Svg_Namespace" xmlns:svg="http://www.w3.org/2000/svg" id="svg2045" width="420mm" height="297mm" version="1.1" viewBox="0 0 420 297"><metadata id="metadata2051"/><g id="orienation-border" style="fill:none;stroke:#000;stroke-width:.2;stroke-linecap:miter;stroke-miterlimit:4"><rect id="rect1826" width="395" height="283" x="18" y="7"/><path id="path1828" d="m 76,7 v 4"/><path id="path1830" d="m 132,7 v 4"/><path id="path1832" d="m 188,7 v 4"/><path id="path1834" d="m 244,7 v 4"/><path id="path1836" d="m 300,7 v 4"/><path id="path1838" d="m 356,7 v 4"/><path id="path1840" d="m 18,64 h 4"/><path id="path1842" d="m 18,120 h 4"/><path id="path1844" d="m 18,176 h 4"/><path id="path1846" d="m 18,232 h 4"/><path id="path1848" d="m 409,64 h 4"/><path id="path1850" d="m 409,120 h 4"/><path id="path1852" d="m 409,176 h 4"/><path id="path1854" d="m 409,232 h 4"/><path id="path1856" d="m 76,286 v 4"/><path id="path1858" d="m 132,286 v 4"/><path id="path1860" d="m 188,286 v 4"/><path id="path1862" d="m 244,286 v 4"/><path id="path1864" d="m 300,286 v 4"/><path id="path1866" d="m 356,286 v 4"/></g><g id="orientation-text" style="font-size:3px;text-anchor:start;fill:#000;font-family:tahoma"><text id="text1869" x="46" y="10">1</text><text id="text1871" x="103" y="10">2</text><text id="text1873" x="159" y="10">3</text><text id="text1875" x="215" y="10">4</text><text id="text1877" x="271" y="10">5</text><text id="text1879" x="327" y="10">6</text><text id="text1881" x="383" y="10">7</text><text id="text1883" x="19" y="36">A</text><text id="text1885" x="19" y="93">B</text><text id="text1887" x="19" y="149">C</text><text id="text1889" x="19" y="205">D</text><text id="text1891" x="19" y="261">E</text><text id="text1893" x="410" y="36">A</text><text id="text1895" x="410" y="93">B</text><text id="text1897" x="410" y="149">C</text><text id="text1899" x="410" y="205">D</text><text id="text1901" x="410" y="261">E</text><text id="text1903" x="46" y="289">1</text><text id="text1905" x="103" y="289">2</text><text id="text1907" x="159" y="289">3</text><text id="text1909" x="215" y="289">4</text><text id="text1911" x="271" y="289">5</text><text id="text1913" x="327" y="289">6</text><text id="text1915" x="383" y="289">7</text></g><g id="drawing-border" style="fill:none;stroke:#000;stroke-width:.35;stroke-linecap:miter;stroke-miterlimit:4"><rect id="rect1918" width="387" height="275" x="22" y="11"/></g><g id="titleblock-structure" style="fill:none;stroke:#000;stroke-width:.35;stroke-linecap:miter;stroke-miterlimit:4"><rect id="rect1921" width="140" height="34" x="269" y="252"/><path id="path1923" d="m 269,260 h 140"/><path id="path1925" d="m 269,278 h 87"/><path id="path1927" d="m 269,282 h 140"/><path id="path1929" d="m 314,252 v 8"/><path id="path1931" d="m 356,252 v 30"/><path id="path1933" d="m 384.99997,252 v 8"/><path id="path1935" d="m 356,268 h 53"/><path id="path1937" d="m 356,274 h 53"/><path id="path1939" d="m 384.99997,274 v 8"/></g><g id="titleblock-text-non-editable" style="font-size:3px;text-anchor:start;fill:#000;font-family:tahoma"><text id="text1942" x="270" y="255">Author:</text><text id="text1944" x="270" y="259">Appr.:</text><text id="text1946" x="315" y="255">Legal owner:</text><text id="text1948" x="270" y="264">TITLE:</text><text id="text1950" x="270" y="281">Document type:</text><text id="text1952" x="386" y="255">Sheet:</text><text id="text1954" x="386" y="259">Size:</text><text id="text1956" x="357" y="255">Scale:</text><text id="text1958" x="357" y="259">Toler.:</text><text id="text1960" x="357" y="263">Part material:</text><text id="text1962" x="357" y="267">Part number:</text><text id="text1964" x="357" y="272">Drawing no.:</text><text id="text1966" x="357" y="277">Date:</text><text id="text1968" x="385.903" y="277">Revision:</text></g><g id="titleblock-text-editable" style="font-size:3px;text-anchor:start;fill:#000;font-family:tahoma"><text id="text1973" x="281" y="255" freecad:editable="AUTHOR_NAME"><tspan id="tspan1971">AUTHOR NAME</tspan></text><text id="text1977" x="281" y="259" freecad:editable="APPROVER_NAME"><tspan id="tspan1975">APPROVER NAME</tspan></text><text id="text1981" x="316" y="259" freecad:editable="OWNER_NAME"><tspan id="tspan1979">OWNER NAME</tspan></text><text id="text1985" x="271" y="268" freecad:editable="TITLELINE-1"><tspan id="tspan1983">FreeCAD</tspan></text><text id="text1997" x="294" y="281" freecad:editable="DOCUMENT_TYPE" style="-inkscape-font-specification:'tahoma, Normal';font-family:tahoma;font-weight:400;font-style:normal;font-stretch:normal;font-variant:normal;font-size:3px;font-variant-ligatures:normal;font-variant-caps:normal;font-variant-numeric:normal;font-variant-east-asian:normal"><tspan id="tspan2307">Mechanical assembly drawing</tspan></text><text id="text2001" x="396" y="255" freecad:editable="SHEET"><tspan id="tspan1999">99 of 99</tspan></text><text id="text2005" x="366" y="255" freecad:editable="SCALE"><tspan id="tspan2003">M x:x</tspan></text><text id="text2009" x="366" y="259" freecad:editable="TOLERANCE"><tspan id="tspan2007">+/- ?</tspan></text><text id="text2013" x="378" y="263" freecad:editable="PM"><tspan id="tspan2011">PM</tspan></text><text id="text2017" x="377" y="267" freecad:editable="PN"><tspan id="tspan2015">PN</tspan></text><text id="text2021" x="376" y="272" freecad:editable="DN"><tspan id="tspan2019">DN</tspan></text><text id="text2025" x="358" y="281" freecad:editable="DATE"><tspan id="tspan2023">YYYY-MM-DD</tspan></text><text id="text2029" x="386.603" y="281" freecad:editable="REVISION"><tspan id="tspan2027">REV A</tspan></text><text id="text2033" x="396" y="259" freecad:editable="SIZE"><tspan id="tspan2031">A3</tspan></text><text id="text2037" x="270" y="285" freecad:editable="RIGHTS"><tspan id="tspan2035">(R) DO NOT DUPLICATE THIS DRAWING TO THIRD PARTIES WITHOUT OWNER&apos;S PERMISSION!</tspan></text></g><g style="display:inline" id="freecad-logo" fill="none" fill-rule="evenodd" stroke="#000" stroke-width=".35" transform="translate(257,275)"><path id="path2040" d="m0.1524 0.15254v8.8549h1.9744v-3.4652h1.396v-1.3661h-1.396v-1.4745h3.4391v-2.5441l-5.4135-0.005z"/><path id="path2042" d="m7.7927 3.4504-0.50715-0.176-0.48387-1.2366-0.76115 0.04-0.34718 1.2787-0.4859 0.23269-1.2119-0.53015-0.51188 0.56882 0.65892 1.1485-0.18006 0.50567-1.2366 0.48387 0.044064 0.76263 1.2787 0.34718 0.23269 0.4859-0.53421 1.2104 0.56882 0.51188 1.1485-0.65891 0.50973 0.18155 0.4798 1.2351 0.7667-0.04258 0.34311-1.2802 0.4859-0.23269 1.2145 0.5357 0.51188-0.56882-0.65891-1.1485 0.17748-0.51122 1.2351-0.4798-0.03851-0.76521-1.2802-0.34311-0.23269-0.4859 0.53163-1.216-0.56881-0.51184zm-0.5715 1.2244 0.23576 0.13679 0.20426 0.18519 0.16353 0.22101 0.11763 0.24572 0.06916 0.26489 0.01146 0.27146-0.03921 0.27139-0.08948 0.25764-0.14234 0.23834-0.17964 0.20167-0.22101 0.16353-0.24572 0.11763-0.26489 0.06916-0.27295 0.01553-0.2719-0.04-0.2576-0.089-0.2383-0.143-0.2002-0.183-0.165-0.217-0.1177-0.246-0.0676-0.269-0.0156-0.273 0.039206-0.2714 0.089484-0.25764 0.14085-0.23427 0.18113-0.20574 0.22101-0.16352 0.24572-0.11763 0.26895-0.06768 0.27147-0.01146 0.27139 0.03921 0.25764 0.08948z"/></g></svg>